<svg xmlns="http://www.w3.org/2000/svg" width="774" height="452" viewBox="0 0 774 452">
    <g fill="none" fill-rule="evenodd">
        <path fill="#FBD23C" d="M502.548 201.002c0 110.514-89.588 200.102-200.102 200.102-110.512 0-200.1-89.588-200.1-200.102 0-110.513 89.588-200.1 200.1-200.1 110.514 0 200.102 89.587 200.102 200.1"/>
        <path fill="#D8B032" d="M365.971 116.809c0 35.083-28.44 63.523-63.524 63.523-35.083 0-63.524-28.44-63.524-63.523s28.441-63.523 63.524-63.523c35.084 0 63.524 28.44 63.524 63.523"/>
        <path fill="#231F20" d="M161.253 358.113h221.134V203.295H161.253z"/>
        <path fill="#FFF" d="M276.484 128.78c.253-10.976.024.39.277-10.586a.51.51 0 0 0-.16-.411.408.408 0 0 0-.3-.14c-9.347-.292-38.435-.517-47.622-.805-.268-.101-.625.062-.634.489-.252 10.873-.03.396-.278 11.139-.054.3.09.667.435.677 9.387.294 38.775.36 47.735.153.252.04.538-.13.547-.515"/>
        <path fill="#FFF" d="M274.56 136.948l.2-7.623c.007-.292.158-.525.338-.522.179.005.318.246.312.538l-.202 7.623c-.006.292-.158.525-.337.52-.179-.004-.319-.244-.311-.536M229.2 136.962l.219-8.74c.008-.324.16-.583.339-.579.179.005.318.271.31.594l-.218 8.741c-.008.324-.16.583-.34.578-.178-.004-.317-.27-.31-.594"/>
        <path fill="#BCBEC0" d="M280.801 136.466c-16.282.183-46.378-.89-55.55-.33-.343.02-.473.494-.393.846a.83.83 0 0 0-.056.272c-1.228 28.442-5.647 204.562-5.998 217.054-.01.345.206.591.432.61 18.628 1.646 15.11 3.045 33.782 3.144 18.351.097 19.612.175 21.656-1.034 1.892-1.119 4.856-161.623 5.63-192.438.226-9.036.497-18.068.81-27.1.208-.345.104-1.029-.313-1.024"/>
        <path fill="#F37368" d="M234.53 296.801l24.25.02c.17-4.007.344-8.067.519-12.16l-24.248-.018c-.175 4.093-.35 8.151-.52 12.158M235.078 283.995c8.039.007 16.492.012 24.249.02l.5-11.727-24.248-.02-.501 11.728M235.606 271.622c8.046.006 16.5.012 24.249.02l.507-11.873-24.25-.017-.506 11.87M236.141 259.104l24.248.019.501-11.726-24.248-.02c-.167 3.897-.334 7.81-.5 11.727M236.67 246.73l24.248.02.514-12.044-24.248-.02-.515 12.044M237.211 234.04c8.104.005 16.57.012 24.25.018.167-3.952.335-7.866.5-11.726l-24.249-.019-.5 11.726M237.74 221.666c8.11.006 16.577.012 24.249.02.172-4.024.34-7.988.507-11.872l-24.25-.019-.506 11.871M238.275 209.149l24.249.019.5-11.727-24.248-.02-.501 11.728M238.803 196.775l24.25.019c.178-4.192.352-8.254.52-12.16l-24.25-.018c-.166 3.905-.34 7.968-.52 12.159M239.351 183.968l24.249.02.501-11.727-24.249-.019-.501 11.726M239.88 171.595c8.121.006 16.58.012 24.25.02l.507-11.872-24.249-.019-.508 11.871"/>
        <path fill="#BCBEC0" d="M241.488 136.06c-.136 3.165-.324 7.124-.503 11.29h-.065c-.144 3.339-6.31 147.74-6.5 152.19 8.116.005 16.574.012 24.249.019l6.469-151.501h.067l.503-11.726c-7.668-.007-16.1-.265-24.22-.271"/>
        <path fill="#231F20" d="M264.514 158.41c-5.678-.005-16.687-.084-23.762-.089l.481-11.222c7.073.002 18.081.084 23.76.088l-.479 11.222m-.527 12.374c-5.683-.003-16.69-.084-23.763-.088l.5-11.725c7.076.001 18.084.084 23.762.087l-.499 11.726m-.532 12.519c-5.686-.004-16.693-.085-23.764-.088l.506-11.871c7.072.004 18.08.084 23.762.088-.162 3.82-.33 7.798-.504 11.87m-.525 12.374c-5.692-.005-16.699-.085-23.767-.089l.5-11.726c7.071.003 18.08.084 23.765.088l-.498 11.726m-.543 12.808c-5.684-.006-16.69-.085-23.769-.09l.518-12.159c7.066.005 18.073.084 23.767.088l-.516 12.16m-.525 12.374c-5.688-.004-16.696-.085-23.77-.088.162-3.827.33-7.755.5-11.726 7.075.004 18.083.084 23.768.088l-.498 11.726m-.533 12.518c-5.685-.004-16.693-.084-23.77-.088l.505-11.87c7.074.002 18.082.084 23.77.088-.174 4.109-.343 8.09-.505 11.87m-1.028 24.21c-5.678-.005-16.685-.085-23.762-.089.078-1.799.375-8.993.47-11.189 7.076.004 18.084.083 23.766.088l-.042 1.047-.432 10.142m-.526 12.375c-5.684-.005-16.69-.085-23.764-.089l.501-11.726c7.075.004 18.084.084 23.762.087l-.499 11.728m-.532 12.517c-5.686-.003-16.694-.084-23.765-.087l.506-11.872c7.072.004 18.08.084 23.763.089l-.504 11.87m-.526 12.373c-5.692-.002-16.699-.083-23.765-.087.167-3.953.334-7.882.5-11.726 7.07.002 18.077.084 23.763.088l-.498 11.724m-.543 12.808c-5.683-.003-16.69-.084-23.768-.089l.517-12.159c7.067.005 18.073.084 23.767.089l-.516 12.16m-.525 12.373c-5.688-.005-16.696-.085-23.77-.089l.5-11.726c7.076.004 18.084.085 23.768.09l-.498 11.724m-.532 12.519c-5.685-.005-16.694-.084-23.77-.089l.505-11.87c7.074.004 18.081.084 23.77.089l-.505 11.87m-.527 12.374c-5.683-.005-16.693-.086-23.772-.089l.5-11.727c7.078.005 18.086.084 23.771.089l-.499 11.727M237.531 233.93c7.077.004 18.086.084 23.771.088l-.499 11.727c-5.685-.004-16.694-.085-23.773-.089l.501-11.726m-4.742 111.547c7.08.003 18.09.084 23.774.089m.647 0c3.188.001 13.88.144 16.251.147.01-.216.018-.433.026-.649-2.37-.002-13.063-.142-16.249-.145l.5-11.727c3.163.002 14.043.136 16.422.137l.016-.647c-2.396-.002-13.252-.135-16.41-.137.16-3.78.33-7.762.503-11.87 3.141.002 13.802.144 16.157.146.01-.216.017-.433.026-.647-2.356-.002-13.015-.144-16.155-.147.162-3.823.33-7.752.497-11.726 3.082.002 13.466.14 16.01.147l.016-.648c-2.56-.005-12.92-.144-15.998-.147l.516-12.159c3.065.002 13.353.108 15.787.111l.017-.647c-2.45-.002-12.716-.11-15.776-.111l.497-11.726c3.047.001 13.2.108 15.57.111l.017-.647c-2.388-.002-12.516-.11-15.559-.113l.504-11.87c3.028.002 13.055.038 15.351.04l.006-.166c.005-.161.01-.321.013-.48-2.308-.002-12.318-.038-15.343-.04l.5-11.726c2.997.002 12.877.144 15.158.147l.02-.647c-2.288-.003-12.156-.145-15.15-.147l.427-10.06.001-.01c.02-.459.035-.841.048-1.12 3.192.001 13.878.143 16.248.147.01-.216.017-.433.026-.648-2.37-.004-13.063-.144-16.249-.147l.5-11.726c3.162.002 14.042.135 16.42.137l.018-.647c-2.396-.002-13.253-.135-16.41-.136l.503-11.871c3.141.003 13.801.144 16.157.146.008-.216.017-.431.024-.648-2.354-.001-13.013-.144-16.154-.147l.498-11.725c3.081.002 13.465.14 16.01.145l.016-.645c-2.56-.006-12.92-.145-15.998-.147l.515-12.16c3.066.002 13.354.108 15.788.112l.017-.648c-2.45-.002-12.717-.108-15.778-.11l.5-11.727c3.046.001 13.197.107 15.57.11l.014-.645c-2.386-.004-12.514-.11-15.558-.112l.505-11.871c3.027.001 13.054.037 15.351.04l.006-.167.013-.48c-2.308-.003-12.318-.038-15.343-.04.176-4.132.343-8.069.5-11.727 2.996.002 12.877.145 15.158.148l.02-.648c-2.288-.001-12.157-.144-15.152-.147l.48-11.224c2.965.002 12.775.11 15.037.113.01-.22.017-.436.024-.648-2.26-.002-12.07-.109-15.033-.112.126-2.956.346-8.218.432-10.188l-.649-.001c-.085 1.974-.304 7.234-.43 10.19-5.68-.004-16.688-.084-23.76-.088.133-3.114.392-8.531.478-10.472l-.648-.007c-.086 1.944-.345 7.366-.479 10.478-5.376-.002-10.793-.012-16.26-.016-.01.214-.018.43-.027.648 5.47.004 10.884.013 16.26.014l-.482 11.224c-5.394-.002-10.717.06-16.19.056l-.023.647c5.474.004 10.794-.058 16.186-.055-.156 3.642-.325 7.58-.5 11.726-4.66-.002-10.315.153-16.092.17l-.022.647c5.778-.018 11.427-.172 16.085-.17l-.506 11.87c-4.628-.001-10.197.153-15.97.17l-.023.647c5.775-.017 11.34-.172 15.966-.17l-.499 11.727c-4.595-.003-10.076.15-15.846.17l-.02.647c5.77-.018 11.245-.172 15.84-.17-.174 4.053-.348 8.126-.519 12.16-4.555-.002-9.94.15-15.707.167l-.02.648c5.765-.018 11.146-.17 15.7-.167l-.5 11.725c-4.519-.002-9.81.15-15.568.168l-.019.648c5.757-.02 11.042-.17 15.56-.168l-.507 11.87c-4.48-.002-9.672.148-15.42.168-.008.215-.015.431-.02.647 5.747-.02 10.935-.17 15.413-.168l-.5 11.726c-4.442-.002-9.536.147-15.274.167l-.02.648c5.737-.02 10.825-.168 15.265-.167-.012.276-.025.59-.038.935h.005c-.122 2.898-.36 8.645-.429 10.255-5.394-.004-10.717.058-16.19.056l-.024.648c5.474.001 10.794-.06 16.186-.058l-.5 11.726c-4.66-.002-10.314.154-16.092.17l-.022.648c5.778-.017 11.427-.171 16.085-.17l-.506 11.872c-4.627-.003-10.197.15-15.97.168l-.023.647c5.775-.017 11.34-.171 15.966-.17l-.499 11.728c-4.595-.002-10.075.15-15.845.168l-.02.647c5.768-.018 11.245-.17 15.838-.168l-.518 12.159c-4.555-.002-9.94.15-15.707.168l-.02.648c5.765-.02 11.147-.17 15.7-.168l-.5 11.726c-4.519-.003-9.809.149-15.567.166l-.02.649c5.758-.02 11.043-.17 15.56-.168l-.506 11.87c-4.48-.002-9.672.147-15.422.168l-.02.647c5.75-.02 10.936-.17 15.414-.168-.178 4.199-.347 8.143-.5 11.726-4.442-.001-9.536.147-15.274.168l-.02.647c5.738-.02 10.826-.17 15.266-.167"/>
        <path fill="#BCBEC0" d="M141.045 254.96c-1.733-1.61-2.958-3.518-3.676-5.72-1.112-2.119-1.623-4.402-1.53-6.848-1.04-11.422.67-22.914-.51-34.323a217.072 217.072 0 0 0-2.494-13.435c-.968-4.453-2.144-8.867-3.713-13.146a17.958 17.958 0 0 1-.86-1.884 595.192 595.192 0 0 1-12.987 4.965c-.282.105-.459.32-.474.625-.754 14.807-3.109 103.634-3.622 107.772-.045.358.333.633.647.647 6.826.315 23.694.08 25.395-.036.92-.062 1.878.231 2.226-.745.21-.585.145-1.267.158-1.874.018-.837.043-1.674.073-2.51.06-1.673.146-3.345.258-5.015.588-8.896 2.011-17.68 3.44-26.467a13.828 13.828 0 0 1-2.33-2.007"/>
        <path fill="#BCBEC0" d="M205.7 180.023c-16.282.129-68.541-.794-77.714-.398-.342.014-.473.349-.392.598a.442.442 0 0 0-.056.193 1366.121 1366.121 0 0 0-2.351 60.404c-.083 5.013-.137 10.027-.166 15.04-.251-.096-.605.032-.62.386l-1.052 26.502c-.01.243.206.417.432.43 18.629 1.165 37.273 2.32 55.944 2.39 18.352.068 19.613.124 21.657-.732 1.89-.791 3.047-63.131 3.82-84.923.226-6.391.498-12.78.81-19.165.209-.245.105-.728-.312-.725M309.601 311.288c-1.733-1.608-2.958-3.517-3.675-5.72-1.112-2.118-1.623-4.4-1.53-6.846-1.041-11.422.67-22.914-.51-34.323a217.077 217.077 0 0 0-2.495-13.435c-.968-4.453-2.144-8.868-3.713-13.145a18.49 18.49 0 0 1-.86-1.885 585.018 585.018 0 0 1-12.986 4.965c-.283.105-.46.32-.475.625-.754 14.806-3.109 103.634-3.622 107.772-.045.358.333.632.647.647 6.826.315 23.694.079 25.395-.036.92-.063 1.879.23 2.226-.745.209-.585.145-1.267.159-1.874a167.998 167.998 0 0 1 .33-7.525c.589-8.896 2.011-17.682 3.44-26.467a13.802 13.802 0 0 1-2.331-2.007"/>
        <path fill="#FFF" d="M292.957 362.002l62.016-20.105c18.35.068 7.741.124 9.784-.732 1.892-.79 3.048-63.132 3.82-84.924.227-6.39.498-12.778.812-19.164.208-.245.103-.728-.314-.725-16.282.13-63.36-.794-72.533-.399-.342.015-.474.35-.393.6a.428.428 0 0 0-.055.191 1364.652 1364.652 0 0 0-2.35 60.404 1347.14 1347.14 0 0 0-.167 15.041c-.25-.096-.605.032-.62.385v49.428z"/>
        <path fill="#231F20" d="M359.101 304.261c-6.028-.16-16.21-.018-22.194-.176.163-6.079.09-4.129.253-10.193 6.073.161 16.229.016 22.267.177-.165 6.095-.162 4.14-.326 10.192m.672-10.83c-6.581-.178-16.34-.018-22.922-.194a.283.283 0 0 0-.246.111.302.302 0 0 0-.083.21c-.176 6.538-.096 4.295-.269 10.722-.059.186.037.436.294.443 6.519.177 16.345.018 22.785.191.182.038.401-.063.407-.303.176-6.567.167-4.273.342-10.798.025-.176-.078-.377-.308-.383m-35.563 10.687c-6.028-.16-16.21-.017-22.195-.175.163-6.079.092-4.129.254-10.194 6.073.16 16.229.017 22.268.176-.166 6.097-.163 4.141-.327 10.193m.672-10.83c-6.582-.178-16.341-.018-22.923-.195a.287.287 0 0 0-.246.112.31.31 0 0 0-.083.21c-.175 6.538-.094 4.295-.267 10.721-.061.188.037.438.293.444 6.519.176 16.345.018 22.786.192.181.037.399-.064.406-.304.177-6.566.167-4.273.343-10.798.024-.177-.078-.377-.309-.383m12.134-22.99c6.073.16 16.23.017 22.268.176-.166 6.097-.162 4.141-.327 10.192-6.028-.16-16.21-.016-22.195-.175.163-6.08.092-4.129.254-10.194m22.173 11.024c.182.037.399-.064.406-.305.177-6.566.167-4.273.343-10.798.024-.176-.078-.376-.309-.383-6.581-.176-16.341-.016-22.922-.193a.288.288 0 0 0-.247.111.316.316 0 0 0-.083.21c-.175 6.54-.094 4.296-.267 10.722-.061.187.037.436.293.443 6.519.177 16.345.02 22.786.193m-57.064-11.167c6.074.16 16.229.016 22.267.176-.165 6.096-.161 4.14-.326 10.193-6.028-.16-16.21-.018-22.194-.176.163-6.079.09-4.129.253-10.193m22.172 11.022c.182.037.401-.063.408-.304.175-6.566.167-4.272.341-10.797.025-.176-.078-.377-.307-.383-6.582-.177-16.341-.017-22.923-.195a.285.285 0 0 0-.246.113.305.305 0 0 0-.083.21c-.176 6.538-.096 4.295-.268 10.721-.06.187.037.437.293.444 6.519.175 16.345.018 22.785.191m35.236-23.53c-6.029-.16-16.21-.018-22.195-.176.163-6.079.091-4.129.253-10.193 6.073.16 16.23.016 22.268.175-.165 6.097-.162 4.141-.326 10.194m.672-10.83c-6.582-.178-16.34-.018-22.922-.196a.282.282 0 0 0-.246.113.298.298 0 0 0-.083.21c-.176 6.538-.096 4.295-.269 10.721-.06.187.037.437.294.444 6.518.176 16.345.018 22.785.191.182.037.4-.063.406-.304.177-6.566.167-4.272.343-10.797.025-.177-.078-.377-.308-.383M324.642 257.5c-6.028-.16-16.21-.017-22.195-.177.163-6.079.091-4.127.254-10.192 6.073.16 16.229.017 22.267.176-.166 6.097-.162 4.141-.326 10.193m.672-10.83c-6.582-.179-16.341-.018-22.923-.195a.287.287 0 0 0-.246.112.31.31 0 0 0-.083.21c-.176 6.538-.095 4.295-.268 10.721-.06.187.037.437.293.444 6.52.176 16.346.018 22.786.192.182.037.4-.064.407-.305.176-6.566.167-4.273.342-10.797.025-.177-.078-.377-.308-.383"/>
        <path fill="#231F20" d="M309.987 257.75c.066-.004.135 0 .202 0l.349-10.98a3.48 3.48 0 0 1-.645-.079l-.353 11.105c.148-.024.297-.04.447-.047M317.948 257.956l.35-11.209a3.121 3.121 0 0 1-.648.025c-.111 3.615-.227 7.338-.347 11.122.222 0 .437.024.645.062M309.07 280.699c.13-.006.259-.002.387.008l.342-10.743a4.9 4.9 0 0 1-.496.05c-.05.002-.101-.003-.153-.003-.113 3.574-.227 7.157-.342 10.71.087-.008.174-.018.262-.022M316.785 280.914c.15 0 .298.012.443.03l.346-11.024c-.143.02-.286.038-.43.057-.074.003-.146-.002-.22-.004l-.343 10.952c.068-.004.136-.01.204-.01M308.7 304.48c.113-3.574.23-7.292.353-11.102a3.508 3.508 0 0 1-.307.017c-.115 0-.23-.007-.34-.018l-.353 11.147c.216-.031.433-.046.647-.044M316.494 304.446l.34-10.92c-.141.019-.283.03-.426.03-.075 0-.148-.006-.223-.01l-.342 10.992c.21-.05.429-.078.65-.092M344.734 257.911c.066-.002.135 0 .202 0l.35-10.978a3.567 3.567 0 0 1-.646-.08l-.353 11.106c.148-.024.297-.043.447-.048M352.695 258.118l.35-11.208a3.894 3.894 0 0 1-.326.029 2.84 2.84 0 0 1-.32-.005l-.35 11.123c.223 0 .438.022.646.061M343.817 280.86c.13-.006.259-.002.387.009l.342-10.743a4.9 4.9 0 0 1-.496.05c-.05.002-.101-.003-.153-.004l-.341 10.712c.086-.01.173-.02.26-.024M351.533 281.076c.15 0 .298.013.442.03l.346-11.023-.43.057c-.074.003-.146-.002-.22-.005l-.343 10.953c.068-.005.137-.012.205-.012M343.448 304.641c.112-3.573.23-7.291.352-11.102a3.158 3.158 0 0 1-.647 0l-.353 11.146a4.42 4.42 0 0 1 .648-.044M351.24 304.608l.342-10.92c-.142.019-.284.03-.427.03-.075 0-.148-.006-.223-.01l-.342 10.99c.212-.047.429-.076.65-.09M129.138 268.702c-.126-5.151-.308-10.305-.606-15.45-.597-10.272-1.18-3.458-3.496-13.495-1.308-5.674-2.946-11.317-2.969-17.186a.605.605 0 0 0-.142-.401c-.03-.378-.326-.712-.766-.526a591.6 591.6 0 0 1-24.73 9.758c-.284.106-.46.32-.477.626C95.2 246.834 92.844 335.66 92.33 339.8c-.045.358.333.632.648.647 6.826.315 23.693.079 25.394-.036.92-.063 1.88.23 2.227-.745.21-.586.144-1.267.157-1.875a175.052 175.052 0 0 1 .331-7.526c.895-13.503 3.71-26.755 5.55-40.142.368-2.681.71-5.37.973-8.066 1.157-1.682 1.37-3.735 1.48-5.73.14-2.538.11-5.084.048-7.625"/>
        <path fill="#FFF" d="M245.776 240.664c.227-6.39.498-12.778.812-19.165.208-.244.104-.728-.313-.725-16.282.13-116.021.43-125.194.826-.342.014-.474.35-.393.597a.432.432 0 0 0-.056.193c-1.227 20.114-2.014 42.628-2.35 62.778-.084 5.014-.138 10.027-.166 15.042-.251-.098-.606.03-.62.384l-1.053 26.502c-.01.244.206.418.432.431 18.629 1.164 37.273 2.32 55.945 2.39 18.352.068 37.46 16.438 55.572 13.358 2.168-.369 4.424-.658 6.468-1.512 1.892-.79 3.293-2.113 4.34-3.864 1.25-2.09 2.197-4.394 3.248-6.59l2.425-5.072"/>
        <path fill="#231F20" d="M236.362 237.859c-6.077-.222-98.872-.33-104.935-.551.22-6.071.053-1.121.272-7.157 6.095.225 98.883.399 104.934.623-.22 6.026-.054 1.103-.271 7.085m.626-7.72c-6.564-.24-99.016-.406-105.538-.645-.176-.026-.378.075-.386.304-.241 6.58-.055 1.234-.296 7.813a.288.288 0 0 0 .11.248c.05.048.119.08.209.085 6.537.239 99.039.335 105.462.569.188.063.438-.032.448-.288.239-6.517.055-1.237.29-7.676.04-.181-.06-.401-.3-.41M235.211 260.736c-6.078-.222-98.873-.33-104.936-.551.22-6.071.054-1.121.272-7.157 6.095.225 98.883.399 104.934.623-.219 6.026-.053 1.103-.27 7.085m.625-7.72c-6.563-.24-99.015-.406-105.538-.645-.176-.026-.377.075-.386.304-.24 6.58-.054 1.234-.295 7.813a.285.285 0 0 0 .11.248c.05.048.12.08.208.085 6.537.239 99.04.335 105.463.569.187.063.437-.032.447-.288.24-6.517.055-1.237.292-7.676.04-.181-.06-.4-.3-.41M234.78 284.044c-6.078-.222-98.873-.329-104.936-.55.22-6.07.054-1.122.272-7.158 6.095.225 98.883.4 104.934.623-.22 6.026-.053 1.103-.27 7.085m.625-7.719c-6.563-.24-99.015-.406-105.538-.646-.176-.026-.377.075-.386.304-.241 6.581-.054 1.234-.295 7.813a.285.285 0 0 0 .11.248c.05.05.119.082.208.085 6.537.24 99.039.335 105.463.57.187.062.437-.033.447-.289.24-6.517.055-1.237.292-7.676.039-.18-.06-.4-.301-.409"/>
        <path fill="#F37368" d="M146.63 191.916c-.125-.283-.242-.355-.549-.423-.878-.19-1.978-.032-2.879-.043l-6.18-.077a.383.383 0 0 0-.113.004.282.282 0 0 0-.192.111l-.01.014-.016.026a.588.588 0 0 0-.02.044v.004a.319.319 0 0 0-.02.107 282.863 282.863 0 0 1-.382 10.21.362.362 0 0 0 .015.122 62.5 62.5 0 0 0-.009 8.805c.011.158.14.345.324.324a74.048 74.048 0 0 1 2.203-.23c1.064.124 2.13.233 3.203.201.886-.025 1.767-.12 2.65-.174a.307.307 0 0 0 .084.027c1.652.29 1.474-.229 1.402-1.733-.11-2.272.032-4.534.202-6.799a.281.281 0 0 0-.07-.218c.125-1.526.251-3.05.368-4.576a34.05 34.05 0 0 0 .117-2.979c-.008-.759.18-2.05-.128-2.747"/>
        <path fill="#231F20" d="M146.286 200.594c-6.134-.168-3.705-.019-9.711-.183l.238-8.854c6.06.16 3.722.017 9.71.175l-.237 8.862zm-.275 10.23c-6.023-.159-3.685-.016-9.711-.175l.257-9.59c6.023.164 3.594.014 9.71.182l-.256 9.583zm1.059-19.623a.408.408 0 0 0-.323-.11c-6.373-.17-3.717-.015-10.243-.19a.284.284 0 0 0-.246.112.307.307 0 0 0-.083.21l-.531 19.713-.001.028v.003a.285.285 0 0 0 .114.247c.05.042.115.07.198.073 6.582.177 3.823.017 10.405.194.26.007.302-.24.292-.436l.524-19.443c.015-.175-.015-.333-.106-.4zM146.515 188.396c-6.08-.161-3.702-.017-9.778-.178.035-.9.062-1.612.082-2.193 6.05.16 3.752.019 9.778.179-.02.583-.047 1.295-.082 2.192m.435-2.83c-6.582-.177-3.875-.021-10.457-.197-.218-.006-.32.167-.31.336-.024.704-.058 1.615-.108 2.863-.01.267.252.365.446.292 6.452.173 3.757.015 10.305.19a.285.285 0 0 0 .29-.187l.002-.006.001-.004a.34.34 0 0 0 .03-.128c.048-1.182.08-2.06.103-2.748.04-.183-.06-.404-.302-.411"/>
        <path fill="#F37368" d="M172.24 192.348c-.124-.283-.241-.355-.548-.423-.878-.191-1.978-.032-2.88-.043l-6.18-.077a.388.388 0 0 0-.112.004.284.284 0 0 0-.217.151c-.008.014-.014.029-.02.044l-.001.004a.296.296 0 0 0-.02.107 285.176 285.176 0 0 1-.381 10.21.362.362 0 0 0 .014.122 62.35 62.35 0 0 0-.008 8.805c.01.158.139.345.323.324a74.4 74.4 0 0 1 2.203-.231c1.064.125 2.13.234 3.204.202.886-.025 1.767-.12 2.65-.174a.3.3 0 0 0 .083.027c1.652.289 1.475-.229 1.402-1.733-.11-2.272.032-4.534.202-6.799a.281.281 0 0 0-.07-.218c.125-1.526.252-3.05.369-4.576.076-.993.127-1.983.117-2.979-.008-.759.179-2.05-.13-2.747"/>
        <path fill="#231F20" d="M171.897 201.026c-6.134-.168-3.705-.02-9.712-.183l.238-8.854c6.06.16 3.722.017 9.712.175-.08 2.954-.16 5.908-.238 8.862zm-.275 10.23c-6.023-.16-3.685-.016-9.712-.175l.258-9.59c6.022.164 3.593.014 9.71.182l-.256 9.583zm1.058-19.623a.406.406 0 0 0-.322-.111c-6.373-.17-3.717-.014-10.244-.19a.285.285 0 0 0-.246.113.311.311 0 0 0-.083.209l-.531 19.714-.001.028v.003a.287.287 0 0 0 .114.247.32.32 0 0 0 .199.073c6.58.177 3.823.017 10.404.194.26.007.302-.241.293-.436l.523-19.443c.016-.175-.014-.333-.106-.401zM172.125 188.827c-6.08-.16-3.702-.017-9.778-.178.036-.899.062-1.612.082-2.192 6.05.16 3.753.019 9.778.179-.02.583-.047 1.294-.082 2.191m.435-2.83c-6.58-.177-3.875-.02-10.456-.197-.218-.006-.32.167-.312.337-.023.703-.057 1.614-.106 2.863-.01.267.251.364.445.292 6.452.172 3.758.014 10.305.19a.285.285 0 0 0 .29-.188l.002-.006.001-.004a.34.34 0 0 0 .031-.127c.047-1.183.08-2.06.102-2.749.04-.182-.059-.403-.302-.41"/>
        <path fill="#F37368" d="M197.707 192.348c-.125-.283-.242-.355-.549-.423-.877-.191-1.977-.032-2.878-.043l-6.18-.077a.38.38 0 0 0-.113.004.28.28 0 0 0-.192.111l-.01.014-.016.026c-.008.014-.014.029-.02.044v.004a.296.296 0 0 0-.02.107 285.176 285.176 0 0 1-.382 10.21.362.362 0 0 0 .014.122 62.5 62.5 0 0 0-.008 8.805c.01.158.14.345.323.324a74.4 74.4 0 0 1 2.203-.231c1.064.125 2.13.234 3.204.202.886-.025 1.767-.12 2.65-.174a.3.3 0 0 0 .083.027c1.652.289 1.475-.229 1.402-1.733-.11-2.272.032-4.534.202-6.799a.281.281 0 0 0-.07-.218c.125-1.526.252-3.05.37-4.576a34.05 34.05 0 0 0 .116-2.979c-.008-.759.18-2.05-.129-2.747"/>
        <path fill="#231F20" d="M197.364 201.026c-6.134-.168-3.705-.02-9.712-.183l.238-8.854c6.06.16 3.722.017 9.712.175-.08 2.954-.16 5.908-.238 8.862zm-.275 10.23c-6.023-.16-3.685-.016-9.712-.175l.258-9.59c6.022.164 3.593.014 9.71.182l-.256 9.583zm1.058-19.623a.406.406 0 0 0-.322-.111c-6.373-.17-3.717-.014-10.244-.19a.285.285 0 0 0-.246.113.311.311 0 0 0-.083.209l-.531 19.714v.028l-.001.003a.287.287 0 0 0 .114.247.32.32 0 0 0 .199.073c6.58.177 3.823.017 10.404.194.26.007.303-.241.293-.436l.523-19.443c.016-.175-.014-.333-.106-.401zM197.592 188.827c-6.08-.16-3.7-.017-9.778-.178.036-.899.062-1.612.083-2.192 6.05.16 3.752.019 9.777.179-.02.583-.047 1.294-.082 2.191m.435-2.83c-6.58-.177-3.875-.02-10.456-.197-.218-.006-.32.167-.312.337a391.06 391.06 0 0 1-.106 2.863c-.01.267.251.364.445.292 6.452.172 3.758.014 10.305.19a.284.284 0 0 0 .29-.188l.002-.006.001-.004a.34.34 0 0 0 .031-.127c.047-1.183.08-2.06.102-2.749.04-.182-.059-.403-.302-.41"/>
        <path fill="#FFF" d="M350.557 227.643c.253-10.978.024-5.437.277-16.415a.511.511 0 0 0-.16-.411.408.408 0 0 0-.299-.138c-9.348-.294-25.27-.52-34.458-.807-.267-.1-.625.062-.634.489-.252 10.873-.03 6.224-.278 16.966-.053.302.091.667.435.677 9.388.295 25.61.36 34.57.154.252.04.538-.131.547-.515"/>
        <path fill="#FFF" d="M348.633 235.809l.2-7.623c.007-.292.158-.525.338-.521.18.004.318.246.312.538l-.202 7.623c-.006.292-.158.525-.336.52-.18-.004-.32-.245-.312-.537M316.439 235.824l.218-8.74c.008-.324.16-.583.339-.578.179.004.318.27.31.594l-.218 8.74c-.007.324-.16.583-.338.579-.18-.005-.32-.271-.311-.595"/>
        <path fill="#ED2D24" d="M256.245 118.9h-3.098l-1.322 2.618-1.322-2.618h-3.097l2.893 5.728v2.696h3.053v-2.696zM259.961 124.648a1.536 1.536 0 1 1 .003-3.073 1.536 1.536 0 0 1-.003 3.073m0-5.843a4.313 4.313 0 0 0-4.308 4.307 4.312 4.312 0 0 0 4.308 4.307 4.312 4.312 0 0 0 4.308-4.307 4.313 4.313 0 0 0-4.308-4.307M243.689 124.648a1.536 1.536 0 0 1 0-3.071 1.537 1.537 0 0 1 0 3.07m0-5.842a4.313 4.313 0 0 0-4.31 4.307 4.312 4.312 0 0 0 4.31 4.307 4.313 4.313 0 0 0 4.308-4.307 4.313 4.313 0 0 0-4.308-4.307M337.308 214.873h-3.08l-1.314 2.602-1.314-2.602h-3.079l2.876 5.693v2.681h3.035v-2.68zM341.003 220.587a1.529 1.529 0 0 1-1.526-1.527c0-.84.684-1.527 1.526-1.527a1.53 1.53 0 0 1 1.526 1.527 1.53 1.53 0 0 1-1.526 1.527m0-5.809a4.287 4.287 0 0 0-4.283 4.282 4.287 4.287 0 0 0 4.283 4.282c2.36 0 4.282-1.92 4.282-4.282a4.287 4.287 0 0 0-4.282-4.282M324.826 220.587a1.528 1.528 0 0 1-1.525-1.527c0-.84.684-1.527 1.525-1.527a1.53 1.53 0 0 1 1.527 1.527 1.53 1.53 0 0 1-1.527 1.527m0-5.809a4.286 4.286 0 0 0-4.282 4.282 4.286 4.286 0 0 0 4.282 4.282 4.286 4.286 0 0 0 4.282-4.282 4.286 4.286 0 0 0-4.282-4.282M244.954 301.53c-22.31 0-38.837-17.812-38.837-40.121 0-22.308 18.084-40.393 40.393-40.393"/>
        <g>
            <path fill="#464FB0" d="M632.718 310.75c-48.986 0-92.133 24.981-117.412 62.895-28.046-52.936-83.69-89.002-147.768-89.002-49.255 0-93.529 21.31-124.117 55.21-23.769-18.249-53.512-29.104-85.795-29.104-77.884 0-141.022 63.14-141.022 141.022H773.74c0-77.883-63.137-141.022-141.02-141.022"/>
            <path fill="#2E387F" d="M102.992 451.676c71.438-.034 142.876-.05 214.314-.07-30.707-41.253-86.522-68.839-150.29-68.839-63.852 0-119.73 27.661-150.412 69.005 28.796-.08 57.592-.082 86.388-.096"/>
            <path fill="#2E387F" d="M349.396 451.676c71.438-.034 142.876-.05 214.314-.07-30.708-41.253-86.523-68.839-150.29-68.839-63.853 0-119.731 27.661-150.412 69.005 28.796-.08 57.592-.082 86.388-.096"/>
            <path fill="#2E387F" d="M585.35 451.695c62.797-.026 125.594-.041 188.39-.057-26.993-33.05-76.056-55.152-132.11-55.152-56.13 0-105.248 22.162-132.218 55.286 25.313-.064 50.625-.065 75.938-.077"/>
            <path fill="#1F2144" d="M374.016 447.315l-5.53-.365 47.843-249.928 5.53.365zM521.9 445.374l5.529-.364-47.842-249.928-5.53.365z"/>
            <path fill="#F79884" d="M622.312 111.582c.025-3.472-1.591-4.92-4.376-6.427-15.02-8.12-28.504-.695-28.597 1.44-.377 8.671-1.118 19.731 2.91 27.57 3.014 5.865 8.915 11.061 15.655 8.173 7.032-3.013 14.269-11.499 14.408-30.756"/>
            <path fill="#F79884" d="M596.238 152.126c.394.098.786.201 1.185.28.362.073 2.367.228.43.095 2.009.138 4.01.37 6.014.558a53.38 53.38 0 0 0 5.042.211c.742 0 1.484-.034 2.226-.037l.846-.049.105-.022a9.467 9.467 0 0 0 1.315-.37c-.051-.567-.1-1.084-.101-1.495l2.363-28.909c-.006-1.1-2.621 2.483-3.548 3.152-4.71 3.398-8.478 4.442-14.111 5.03a1.64 1.64 0 0 0-.463.123c-.79-.002-.724.374-.72 1.393.019 4.96-.833 13.463-.583 20.04"/>
            <path fill="#F79884" d="M597.423 152.079c-.222-.84-.597-1.545-1.122-2.116a10.5 10.5 0 0 1 1.122 2.116"/>
            <path fill="#FFF" d="M609.838 132.788c-5.327 1.9-10.074-.367-10.357-.275-.119.038-.242.13-.216.257.455 2.305 3.068 3.605 5.105 3.721 2.121.12 5.091-1.13 5.793-3.347.06-.184-.108-.433-.325-.356"/>
            <path fill="#F79884" d="M622.223 119.87c-1.366-1.308-3.719-.026-4.177 1.536-.099.34.122.552.394.597a5.76 5.76 0 0 0-.425 1.904v.002c-.217.794-.297 1.572-.17 2.131.004.281.019.563.039.846-.12.32-.169.648-.04.953.828 1.963 3.404-.763 3.88-1.63.855-1.56 2.041-4.865.499-6.34M587.313 119.665c1.215-1.447 3.694-.43 4.319 1.073.136.326-.06.562-.326.636.303.537.519 1.185.63 1.847v.001c.302.766.467 1.531.4 2.1.028.28.044.562.054.846.154.304.238.624.144.941-.61 2.041-3.467-.387-4.034-1.198-1.02-1.455-2.56-4.612-1.187-6.246"/>
            <path fill="#DB745E" d="M620.382 121.696a7.204 7.204 0 0 1-.764 3.135c-.159.318.32.599.48.28a7.875 7.875 0 0 0 .84-3.415c.005-.356-.549-.356-.556 0M590.359 124.467a8.097 8.097 0 0 1-.703-2.956c-.017-.356-.57-.357-.554 0a8.828 8.828 0 0 0 .778 3.235c.147.325.625.044.479-.279"/>
            <path fill="#F79884" d="M556.292 405.84c-1.602.07-1.028-.255-2.404.738-.2.145-.359.345-.475.572-.863-.096-1.744.351-1.819 1.47-.615 9.09-2.466 18.053-2.738 27.17-.035 1.164.738 2.131 1.981 2.022 2.267-.202 1.572-.347 3.768-.934.581-.155 1.977-3.534 2.051-4.095.607-4.582 2.205-20.108 2.381-24.77.046-1.21-1.51-2.229-2.745-2.174M617.342 411.566c-1.6.07-1.028-.254-2.403.739a1.6 1.6 0 0 0-.476.572c-.863-.097-1.743.35-1.819 1.47-.615 9.09-2.466 18.052-2.738 27.17-.034 1.164.738 2.13 1.981 2.02 2.267-.2 1.573-.345 3.768-.932.581-.156 1.977-3.534 2.051-4.096.608-4.581 2.205-20.107 2.382-24.77.045-1.21-1.512-2.228-2.746-2.173"/>
            <path fill="#1F2144" d="M557.45 432.288c-2.17-.26-6.94-.182-9.312-.19-1.047.066-1.408.748-1.363 1.096.357 2.716-2.132 2.531-5.454 4.183-2.832 1.409-5.56 2.603-10.082 3.928-4.024 1.178-3.613.53-3.654 3.108-.03 1.847 4.108 1.56 7.467 1.382.529-.028 1.055-.052 1.58-.072a15.387 15.387 0 0 0 4.635-.918l.816-.302c2.48-.92 4.729-1.166 7.37-1.104.128.002.286.09.309.228.044.276.055.428.09.704a.958.958 0 0 0 .988.83 182.95 182.95 0 0 0 3.265-.142c2.063-.11 4.009-.142 4.323-.663.349-.579.193-.683.18-1.269-.03-1.582-.365-10.702-1.158-10.798"/>
            <path fill="#464A8A" d="M558.594 443.084a20.806 20.806 0 0 0-.143-1.543c-2.512.574-5.066.54-7.633.55-2.535.01-4.976.24-7.453.772-5.25 1.13-10.397 1.823-15.764 1.614.007.24.017.52.021.86.027 1.848 4.155 1.436 7.505 1.158.53-.044 1.055-.082 1.58-.119 1.58-.11 3.132-.47 4.604-1.058.27-.106.537-.215.806-.325 2.453-.993 4.693-1.306 7.334-1.324.127 0 .29.081.316.22.053.274.068.425.111.701a.959.959 0 0 0 1.012.8c1.082-.073 2.166-.15 3.26-.24 2.058-.172 4.003-.263 4.3-.793.332-.588.173-.689.144-1.273"/>
            <path fill="#FFF" d="M542.915 428.987a98.14 98.14 0 0 0 18.467.286c.583-.046 1.128-.472 1.108-1.1-.219-7.107.91-14.15 3.487-20.794 2.266-5.845 6.041-10.924 8.447-16.696 4.634-11.116 1.225-23.79 2.47-35.447.664-6.22 2.627-11.88 5.734-17.302 2.531-4.418 5.478-8.602 7.766-13.157 2.026-4.033 3.528-8.398 3.486-12.953-.03-3.303-1.1-6.605-.319-9.89.231-.974.595-1.902 1.04-2.795 1.087 17.768 2.167 35.535 1.84 53.343-.125 6.806-.543 13.612-.354 20.42.17 6.145.97 12.237 1.967 18.298 2.115 12.86 4.994 25.714 3.736 38.82-.062.654.56 1.029 1.108 1.1 4.186.549 8.391.828 12.614.76 2.384-.04 7.356.546 9.203-1.427.7-.748.767-1.71.875-2.664.242-2.152.285-4.351.427-6.512.283-4.342.567-8.684.852-13.024 1.986-30.353 4.532-60.731 5.74-91.125 1.233-31.017-.252-62.052-1.73-93.033-.068-1.4-2.244-1.413-2.216-.034a351.45 351.45 0 0 0-29.963.579 1.034 1.034 0 0 0-.656-.187l-14.329.42c-4.01.117-8.232-.158-12.196.469-2.975.47-4.488 2.188-5.34 4.98-1.204 3.942-1.92 8.114-2.773 12.144-12.887 60.968-12.163 123.678-21.56 185.128-.117.762.294 1.307 1.07 1.393"/>
            <path fill="#1F2144" d="M605.938 451.435a57.88 57.88 0 0 0 5.463-.115c1.196-.085 2.852.01 3.973-.502.419-.192.63-.473.842-.87.458-.863.806-1.454 1.657-2.015.638-.421.803-.832.848-1.754.293-4.178.38-8.362.253-12.55-.007-.2-.335-.566-1.112-.58a381.93 381.93 0 0 0-5.244-.003c-.653.007-1.5-.112-2.115.192-.744.368-.936 1.176-1.033 1.933-.192 1.502-.218 3.038-.204 4.557a.269.269 0 0 0-.044.138c-.09 3.369-3.641 4.988-4.834 7.88-.551 1.335-.59 4.112 1.55 3.689"/>
            <path fill="#464A8A" d="M610.986 438.59c-.35.041-.35.596.005.555.85-.1 2.809-.076 3.666-.056.356.01.352-.546-.005-.554-.856-.02-2.815-.046-3.666.055m.347-3.014c-.351.042-.351.597.005.555.85-.1 2.808-.075 3.665-.056.356.01.352-.545-.004-.553-.857-.02-2.816-.045-3.666.054m-.59 6.17c-.356-.009-.318.544.038.553.819.02 2.746.023 3.566.012.357-.005.32-.558-.037-.553-.82.012-2.747.008-3.566-.012M604.202 448.347c.014.002.023-.001.037.001 3.602.393 6.57.893 9.628-.162 1.793-.618 2.091-1.71 3.481-2.733a8.134 8.134 0 0 1 1.464-.84c-.03.526-.053 1.051-.09 1.578-.045.922-.21 1.332-.85 1.754-.85.56-1.197 1.152-1.655 2.014-.212.398-.423.678-.843.87-1.12.512-2.777.417-3.974.502a57.874 57.874 0 0 1-5.462.116c-1.857.367-2.072-1.681-1.736-3.1"/>
            <path fill="#231F20" d="M583.402 257.96c6.256.101 12.529.076 18.782-.175 2.358-.095 4.716-.233 7.068-.427 2.743-.226 4.23-.389 6.049-.679 4.348-.694 8.595-1.755 12.728-3.272 1.936-.71 5.357-2.685 7.627-4.444 2.143-14.439 8.494-67.486 7.567-73.693-.85-5.698-2.994-11.124-6.088-15.79-4.105-6.197-13.117-8.327-21.798-10.45-2.966 2.045-7.501 3.021-10.377 3.122-4.721.167-8.464-.862-10.77-4.472-6.844 1.343-12.965 2.894-18.722 6.416-7.125 4.358-9.42 10.431-12.101 19.56-2.397 8.162-7.66 65.927-3.135 80.704.317 1.036 15.929 3.481 23.17 3.6"/>
            <path fill="#231F20" d="M593.17 224.44a2.32 2.32 0 0 0-.25-.608c-4.122-10.728-5.333-22.265-6.963-33.563l-5.245-36.36c-.064-.445-.262-.75-.522-.944-.36-.453 8.252-3.937 7.53-3.751-25.769 6.65-35.684 27.89-39.286 42.853-1.918 7.969-3.186 16.966-.937 25.264 2.156 7.955 12.418 10.962 20.088 11.498 5.835.409 5.161-.513 10.976-.965l8.516-.662c1.84-.143 4.207.169 5.665-1.143.442-.397.567-1.062.428-1.618M606.45 232.774c1.459 1.312 3.827 1 5.666 1.144l8.517.662c5.814.452 11.774 1.307 17.609.899 7.67-.537 13.175-4.975 15.332-12.931 2.249-8.296 2.26-18.173-.555-32.51-3.155-16.07-10.314-33.891-28.024-38.182-.725-.176-1.298.103-1.658.556-.261.194-.458.498-.523.942l-5.245 36.36c-1.63 11.299-7.173 30.106-11.296 40.833a2.36 2.36 0 0 0-.25.61c-.138.555-.013 1.22.428 1.617"/>
            <path fill="#F5E4D5" d="M616.985 151.804c-.186-1.57-1.414-3.265-2.108-4.725-.108-.226-.361-.214-.957-.015-2.066.458-3.684 1.042-5.681 1.67-1.004.314-2.11.608-3.051 1.036-.196.09-.395.177-.556.296-.146-.115-.327-.203-.504-.294-.912-.47-1.995-.814-2.975-1.174-1.951-.717-3.526-1.373-5.557-1.924-.582-.225-.834-.248-.957-.027-.794 1.427-2.137 3.061-2.43 4.622-.233 1.241.768 2.204 1.65 3.127 1.293 1.353 2.645 2.802 4.223 3.948.982.714 1.8 1.005 2.768.184 1.205-1.023 1.693-2.638 2.286-3.922l1.245-2.69c.057-.123.14-.266.224-.42.068.148.137.286.182.404l1.057 2.741c.505 1.31.88 2.944 2.013 4.02.91.864 1.747.61 2.777-.058 1.655-1.073 3.104-2.459 4.489-3.752.943-.882 2.009-1.797 1.862-3.047"/>
            <path fill="#231F20" d="M625.533 110.467c-.214-1.264-1.083-2.46-1.422-3.692-.28-1.013-.055-2.15-.565-3.076-.934-1.692-2.732-2.128-4.33-2.895a6.868 6.868 0 0 0-.356-1.994c-.341-1.003-.988-2.17-2.022-2.549-.89-.324-1.588.093-2.207.68-.732-2.164-1.801-3.826-3.931-4.838-1.915-.91-4.11-1.152-6.181-.76a10.245 10.245 0 0 0-2.941 1.04c-.548.294-1.04.647-1.532 1.025-1.07.826-1.857.495-2.932.038-1.814-.77-3.73-.514-5.304.73-1.953 1.543-2.343 3.724-3.034 5.985-.351 1.155-1.38 1.8-1.802 2.911a4.403 4.403 0 0 0-.172 2.464c.347 1.62 1.736 3.262 3.487 2.783 1.402-.385 2.615-.896 4.098-.994 1.686-.11 3.298.23 4.94.571 1.328.274 2.686.52 4.04.3 1.374-.224 2.505-.972 3.684-1.684 2.9-1.752 3.706-2.674 6.752-1.262 4.583 1.663 6.47 3.88 6.212 9.786-.076 1.747-.516 4.155.407 5.767.203.354.542.65.833.438a.286.286 0 0 0 .105-.057c1.706-1.455 1.93-3.058 2.433-5.148.296-1.224 1.192-2 1.616-3.142.292-.788.263-1.609.124-2.427"/>
            <path fill="#231F20" d="M591.29 105.643c-.829-.596-2.353-.355-3.46-.176a.267.267 0 0 0-.163.024c-.069.01-.14.023-.209.034l-.122.019c-.042-.118-.078-.236-.123-.353-.128-.328-.664-.186-.534.147 1.146 2.948.88 6.08 1.174 9.169.161 1.68.341 4.516 2.294 5.092.15.044.296-.053.341-.193 1.155-3.621-.688-7.532.546-11.168.276-.811 1.22-1.903.255-2.595"/>
            <path fill="#F79884" d="M571.78 195.55c-.14 1.44.572 3.177 1.134 4.61-.544.076-.595.988.046 1.094 6.72 1.12 14.286 5.39 20.82 7.318.275.082-.318-2.756-.22-3.06a157.814 157.814 0 0 0 1.59-5.122c.075-.26-.005-.639-.315-.718a492.311 492.311 0 0 0-11.922-2.883c-3.012-.686-6.975-1.322-10.66-1.725-.245-.028-.446.225-.472.486"/>
            <path fill="#231F20" d="M596.32 198.065c.13-.431.262-.86.398-1.29.338-1.06-.735-1.864-1.636-1.725.204-1.021-.642-1.677-1.45-1.664-.363-.913-1.675-1.35-2.342-.461-.36-.711-1.367-.92-2.061-.423l.085-.303c.486-1.73-2.11-2.417-2.672-.737l-.515 1.54c-.618-.673-1.966-.625-2.411.51a74.646 74.646 0 0 0-4.503 17.263c-.136.99.583 2.03 1.704 1.704.007-.002.014-.006.022-.01.203.67.96 1.059 1.709.946.973-.148 1.754-.756 2.397-1.585.509.38 1.223.45 1.728-.14.352-.41.662-.836.955-1.27.382.357.969.492 1.532.279.219.52.809.757 1.388.702.13.373.396.676.776.814a94.072 94.072 0 0 0-.318 2.202c-.23 1.763 2.543 1.746 2.77 0 .207-1.58.469-3.145.774-4.701.06-.185.118-.374.175-.566.929-3.112 1.72-6.271 2.475-9.43.21-.876-.325-1.483-.98-1.655"/>
            <path fill="#464A8A" d="M637.537 197.743c.144.326.62.044.478-.28-3.196-7.268-7.361-14.783-8.16-22.802-.657-6.603 1.613-13.13 7.067-16.71-.148-.121-.29-.248-.44-.367-5.238 3.506-7.652 9.73-7.255 16.15.526 8.45 4.965 16.402 8.31 24.009M575.878 159.884c-1.244-1.503-2.826-2.617-4.565-3.422-.18.121-.35.25-.528.372 1.914.838 3.642 2.052 4.938 3.752 2.233 2.934 2.818 6.797 2.39 10.388-.469 3.948-2.195 7.63-4.048 11.1-1.963 3.675-4.03 7.297-6.05 10.942-.173.311.304.592.478.28 2.258-4.073 4.617-8.106 6.737-12.253 1.811-3.544 3.351-7.342 3.546-11.36.168-3.466-.65-7.083-2.898-9.799"/>
            <path fill="#F79884" d="M553.562 192.217c-.275 1.504 2.987 1.075 3.778 1.136 2.113.162 4.02.405 6.114.62-.076.23-.492.568-.555.798-2.676-.257-5.542-.18-7.922.55-.32.096-.303.482-.114.682 1.205 1.283 4.337.977 5.96 1.072 1.888.113 9.278 4.04 10.504 4.392 2.528.728 3.16-.534 3.855-.863 1.18-.56 2.026-1.994 3.122-2.762a.36.36 0 0 0 .14-.437.378.378 0 0 0-.11-.439 301.41 301.41 0 0 1-6.231-5.62c-1.511-1.405-2.918-3.174-4.862-3.974-2.241-.922-4.837-1.34-7.231-1.593-1.22-.13-3.17-.666-4.138.358-.192.203-.071.501.139.621 1.567.895 3.755 1.057 5.506 1.47l4.419 1.044c-.005.008-.507.556-.512.565-2.498-.5-5.354-.972-7.35-.898-1.138.042-3.933.037-4.188 1.437-.281 1.546 2.493.654 3.31.62 2.59-.11 4.825.464 7.246.953-.204.397.052-.514-.135-.11-2.154-.362-4.01-.934-6.188-.97-.87-.015-4.298-.066-4.557 1.348M639.621 209.18c-2.082-.644-4.26-.979-6.42-1.306a31.377 31.377 0 0 0-.183-1.323c2.453.287 4.755.438 7.183 1.347.764.286 3.22 1.256 3.337.44.206-1.408-2.464-2.274-3.532-2.668-1.873-.69-4.736-1.13-7.265-1.432-.002-.01-.308-.687-.31-.697l4.524.383c1.792.152 3.923.678 5.69.315.236-.048.445-.294.326-.546-.602-1.276-2.621-1.372-3.823-1.629-2.354-.502-4.95-.912-7.366-.734-1.755.13-3.615.413-5.19 1.206.45-.587 1.04-.689 1.619-1.165.507-.418 1.161-.593 1.696-.967.42-.295 1.011-.78.804-1.356-.27-.754-1.14-.5-1.696-.313-1.523.513-2.96 1.266-4.379 2.012-1.168.615-2.136 1.228-2.938 2.298-.988 1.322-1.749 2.955-3.501 3.382a.283.283 0 0 0-.145.092c-5.729 1.094-12.32 1.19-17.639 2.284-.28.058 1.58 2.282 1.635 2.598.307 1.761.644 3.516 1.01 5.266.056.265.304.562.616.485a487.638 487.638 0 0 0 11.875-3.07c1.964-.535 4.282-1.286 6.619-2.129.053.004.106.007.156.012 1.27.13 1.792 1.837 6.875 1.27 1.854.257 3.558.007 5.389.49 1.57.411 4.452 1.678 5.998.833.24-.132.376-.493.102-.686-2.034-1.432-4.735-2.397-7.357-2.985.011-.238.019-.478.017-.72 2.057.448 3.946.81 6.004 1.313.77.188 3.739 1.611 3.945.096.192-1.424-2.846-2.14-3.676-2.396"/>
            <path fill="#231F20" d="M613.218 222.616a171.92 171.92 0 0 0-4.205-21.428c0-.005 0-.01-.002-.014h-.002l-.089-.348c-.272-1.03-1.409-1.048-2.106-.51-.044-.14-.085-.281-.129-.421-.499-1.573-2.743-.79-2.658.697.008.153.02.305.03.459-.776-.507-2.063-.03-2.18.976-.704.09-1.345.64-1.194 1.507l.291 1.678a2.916 2.916 0 0 0-1.524.237c-1.64.753-2.523 2.607-1.827 4.334.15.37.272.749.411 1.124.028.075.048.125.063.16l.032.16c.144.688.25 1.372.308 2.073.135 1.625 1.773 2.99 3.391 2.915.345 2.15.71 4.297 1.107 6.439.323 1.743 3.076 1.41 2.75-.35a265.01 265.01 0 0 1-.63-3.542c.034-.013.07-.024.101-.041.252.25.59.368.933.374.108.648.217 1.297.332 1.945.19 1.059 1.457 1.446 2.204.968.453.425 1.2.498 1.736.198.035.253.075.506.107.76.23 1.765 2.98 1.424 2.75-.35"/>
            <path fill="#464A8A" d="M611.524 215.67c-1.601.206-3.381.468-4.656 1.554-1.642 1.396-1.406 3.807-2.917 5.321-3.477 3.483-9.078 1.784-13.426 2.413-4.442.644-8.531 2.695-12.95 3.448-4.822.823-9.736-.738-14.51.513-.342.09-.245.636.1.545 4.768-1.249 9.69.315 14.51-.513 4.417-.758 8.508-2.804 12.95-3.447 4.128-.598 8.728.72 12.485-1.604 1.755-1.085 2.275-2.465 2.936-4.318.906-2.532 3.137-3.053 5.579-3.367.353-.046.253-.59-.101-.546M608.506 206.148c-2.24.558-4.369-1.697-6.466-2.29-2.013-.566-4.137-.51-6.202-.352-5.105.392-10.166.809-15.293.792-.354-.001-.405.55-.049.552 5.008.017 9.963-.332 14.948-.758 2.586-.22 5.334-.326 7.755.776 1.765.802 3.33 2.342 5.407 1.826.344-.086.248-.632-.1-.546"/>
            <path fill="#1F2144" d="M594.5 292.768a180.072 180.072 0 0 0-4.882-18.823c-.216-.678-1.286-.39-1.069.294a179.53 179.53 0 0 1 4.881 18.824c.141.698 1.21.402 1.07-.295M574.147 349.489a84.09 84.09 0 0 1-6.393-12.126c-.28-.654-1.234-.09-.957.56a84.194 84.194 0 0 0 6.393 12.126c.382.599 1.342.044.957-.56M576.64 341.79a105.495 105.495 0 0 1-5.742-12.475c-.253-.659-1.324-.373-1.069.295a107.836 107.836 0 0 0 5.854 12.738c.34.628 1.298.07.957-.559"/>
            <path fill="#231F20" d="M515.615 391.034h-141.73c-11.78 0-21.33-9.55-21.33-21.329V72.968c0-11.78 9.55-21.33 21.33-21.33h141.73c11.779 0 21.328 9.55 21.328 21.33v296.737c0 11.78-9.55 21.33-21.328 21.33"/>
            <path fill="#E62E24" d="M509.698 58.27h-15.22c-2.305 0-4.175 1.666-4.175 3.72 0 6.503-5.92 11.775-13.222 11.775h-64.662c-7.303 0-13.224-5.272-13.224-11.775 0-2.054-1.87-3.72-4.175-3.72H379.8c-11.562 0-20.935 8.349-20.935 18.646v264.547c0 10.296 9.373 18.644 20.936 18.644h129.897c11.563 0 20.936-8.348 20.936-18.644V76.916c0-10.297-9.373-18.645-20.936-18.645"/>
            <path fill="#231F20" d="M536.943 185.466h.58a2.918 2.918 0 0 0 2.918-2.917V156.1a2.917 2.917 0 0 0-2.918-2.917h-.58v32.283zM349.058 102.816v13.776l1.371.358v10.927l-1.371.356v13.99a3.497 3.497 0 0 0 3.497 3.498V99.318a3.497 3.497 0 0 0-3.497 3.498"/>
            <path fill="#FFF" d="M465.766 189.159h-14.733l-6.285 12.446-6.289-12.446h-14.726l13.756 27.234v12.826h14.522v-12.826zM483.443 216.492c-4.026 0-7.302-3.276-7.302-7.305 0-4.025 3.276-7.301 7.302-7.301 4.025 0 7.303 3.276 7.303 7.3 0 4.03-3.278 7.306-7.303 7.306m0-27.786c-11.298 0-20.486 9.185-20.486 20.48 0 11.3 9.188 20.487 20.486 20.487 11.292 0 20.485-9.187 20.485-20.486 0-11.296-9.193-20.481-20.485-20.481M406.055 216.492c-4.026 0-7.299-3.276-7.299-7.305 0-4.025 3.273-7.301 7.3-7.301 4.026 0 7.303 3.276 7.303 7.3 0 4.03-3.277 7.306-7.304 7.306m0-27.786c-11.296 0-20.485 9.185-20.485 20.48 0 11.3 9.19 20.487 20.485 20.487 11.294 0 20.485-9.187 20.485-20.486 0-11.296-9.19-20.481-20.485-20.481"/>
            <path fill="#F2F2F2" d="M225.972 89.107c2.131-5.883-3.997-12.808-10.972-12.398-6.307.37-12.482 5.509-18.155 3.044-3.783-1.644-4.942-5.815-5.922-9.44-.978-3.623-2.845-7.776-6.95-8.623-3.01-.62-5.997.835-8.8 1.985-2.802 1.15-6.339 1.969-8.794.312-2.022-1.366-2.466-3.951-1.984-6.16.482-2.21 1.7-4.237 2.408-6.398 2.728-8.312-3.589-18.063-13.08-20.195-9.493-2.132-20.312 3.77-22.407 12.225-.854 3.443-.416 7.023-.705 10.539-.288 3.515-1.529 7.269-4.772 9.32-5.012 3.172-13.483 1.54-16.572 6.255-1.359 2.074-1.038 4.672-.41 7.004.627 2.332 1.526 4.69 1.19 7.068-.339 2.378-2.428 4.792-5.138 4.723-1.728.095-3.688 1.395-3.792 2.922-.104 1.527 1.225 3.029 2.927 3.307l38.008.436c23.674 0 47.376-.451 71.05-.21 2.707.027 5.515.037 7.987-.941 2.473-.977 4.515-3.24 4.117-5.607M125.12 136.72c2.131-5.884-3.996-12.81-10.972-12.399-6.305.37-12.481 5.51-18.153 3.044-3.785-1.645-4.944-5.815-5.924-9.439-.977-3.625-2.844-7.778-6.95-8.624-3.01-.62-5.996.835-8.8 1.984-2.802 1.151-6.338 1.97-8.793.312-2.023-1.365-2.467-3.95-1.984-6.159.481-2.209 1.7-4.238 2.409-6.398 2.727-8.313-3.59-18.063-13.083-20.195-9.491-2.133-20.31 3.77-22.405 12.225-.855 3.443-.416 7.023-.704 10.54-.29 3.513-1.53 7.268-4.773 9.32-5.012 3.171-13.483 1.54-16.573 6.253-1.358 2.074-1.037 4.673-.41 7.005.627 2.331 1.526 4.69 1.19 7.067-.338 2.38-2.428 4.793-5.138 4.723-1.728.096-3.688 1.395-3.79 2.923-.106 1.526 1.224 3.028 2.925 3.307l38.008.436c23.675 0 47.376-.45 71.05-.21 2.709.026 5.516.037 7.987-.94 2.474-.979 4.516-3.24 4.118-5.609M707.556 101.834l-49.328.364c-1.117-1.357-1.416-3.339-.749-4.966.666-1.626 3.074-2.71 4.822-2.892 2.339.81 4.759-1.237 5.792-3.487 1.033-2.249 1.303-4.83 2.609-6.933 1.497-2.41 4.348-3.913 7.183-3.786 2.835.128 5.54 1.88 6.816 4.415.753 1.5 1.04 3.233 2.023 4.593 1.88 2.597 5.614 2.961 8.79 2.52 3.177-.44 6.41-1.44 9.526-.683 3.117.756 5.849 4.302 4.306 7.114 0 0 2.847 3.741-1.79 3.741"/>
        </g>
    </g>
</svg>