<svg xmlns="http://www.w3.org/2000/svg" xmlns:xlink="http://www.w3.org/1999/xlink" width="616" height="521" viewBox="0 0 616 521">
    <defs>
        <path id="a" d="M.029 241.846c0 133.218 107.994 241.213 241.211 241.213 133.219 0 241.214-107.995 241.214-241.213S374.459.634 241.24.634C108.023.634.029 108.628.029 241.846"/>
        <path id="c" d="M.029 241.846c0 133.218 107.994 241.213 241.211 241.213 133.219 0 241.214-107.995 241.214-241.213S374.459.634 241.24.634C108.023.634.029 108.628.029 241.846"/>
        <path id="e" d="M.029 241.846c0 133.218 107.994 241.213 241.211 241.213 133.219 0 241.214-107.995 241.214-241.213S374.459.634 241.24.634C108.023.634.029 108.628.029 241.846"/>
        <path id="g" d="M.029 241.846c0 133.218 107.994 241.213 241.211 241.213 133.219 0 241.214-107.995 241.214-241.213S374.459.634 241.24.634C108.023.634.029 108.628.029 241.846"/>
        <path id="i" d="M.029 241.846c0 133.218 107.994 241.213 241.211 241.213 133.219 0 241.214-107.995 241.214-241.213S374.459.634 241.24.634C108.023.634.029 108.628.029 241.846"/>
        <path id="k" d="M.029 241.846c0 133.218 107.994 241.213 241.211 241.213 133.219 0 241.214-107.995 241.214-241.213S374.459.634 241.24.634C108.023.634.029 108.628.029 241.846"/>
        <path id="m" d="M39.853 22.15H7.403a7.2 7.2 0 0 1-7.201-7.2V7.618a7.2 7.2 0 0 1 7.201-7.2h32.45a7.2 7.2 0 0 1 7.2 7.2v7.332"/>
        <path id="o" d="M16.415 22.15H7.403a7.2 7.2 0 0 1-7.201-7.2V7.618a7.2 7.2 0 0 1 7.201-7.2h32.45c.806 0 1.565.162 2.288.406L16.415 22.15z"/>
    </defs>
    <g fill="none" fill-rule="evenodd">
        <g transform="translate(16 25)">
            <mask id="b" fill="#fff">
                <use xlink:href="#a"/>
            </mask>
            <path fill="#FBD23C" d="M482.454 241.846c0 133.218-107.995 241.212-241.214 241.212C108.023 483.058.029 375.064.029 241.846S108.023.634 241.242.634c133.218 0 241.213 107.994 241.213 241.212" mask="url(#b)"/>
        </g>
        <g transform="translate(16 25)">
            <mask id="d" fill="#fff">
                <use xlink:href="#c"/>
            </mask>
            <path fill="#FFECC5" d="M-48.874 152.19c26.133-7.565 35.39-40.718 58.247-55.472C24.58 86.903 44.488 86.174 59.12 75.524c8.444-6.146 15.447-15.672 25.818-16.91 14.002-1.668 24.718 13.232 26.828 27.175 2.108 13.943-.885 28.426 2.353 42.15 2.79 11.825 9.978 22.109 14.164 33.514 4.186 11.406 4.608 25.828-4.32 34.069-5.608 5.177-13.629 6.725-20.108 10.76-13.17 8.202-17.924 25.514-16.639 40.978 1.285 15.464 7.358 30.07 11.081 45.135 1.932 7.815.515 19.383-7.535 19.456-3.357.029-6.222-2.28-8.768-4.468l-31.423-26.994c-5.672-4.873-11.56-9.867-18.7-12.091-15.976-4.976-32.988 5.147-49.634 3.429-19.508-2.013-34.119-20.37-38.277-39.537-4.158-19.167-.173-39.054 3.81-58.258l5.894-28.425" mask="url(#d)"/>
        </g>
        <g transform="translate(16 25)">
            <mask id="f" fill="#fff">
                <use xlink:href="#e"/>
            </mask>
            <path fill="#FFECC5" d="M419.892-.118c-11.907-5.096-24.178 6.39-30.94 17.437-6.763 11.045-14.373 24.413-27.288 25.406-5.101.393-10.108-1.36-15.204-1.833-20.109-1.87-36.308 15.568-55.22 22.657-10.747 4.028-22.7 4.753-32.804 10.197-10.105 5.443-17.748 18.638-11.67 28.374 7.909 12.667 29.844 7.513 39.291 19.078 5.143 6.296 4.79 15.607 9.26 22.397 5.887 8.942 20.34 10.434 27.929 2.884 5.666-5.637 8.42-15.45 16.317-16.688 9.398-1.474 14.55 10.353 16.805 19.596 2.253 9.243 9.085 20.735 18.044 17.534 4.474-1.599 6.826-6.368 8.884-10.65 6.237-12.977 18.288-27.26 32.069-23.09 16.935 5.125 15.412 30.906 28.294 43.037 11.62 10.943 32.582 5.974 41.418-7.319 8.836-13.294 7.273-31.425.131-45.7-5.043-10.079-12.59-18.9-16.377-29.516-5.756-16.139-2.435-35.329-11.922-49.598-10.861-16.33-36.825-23.853-37.014-43.465" mask="url(#f)"/>
        </g>
        <g transform="translate(16 25)">
            <mask id="h" fill="#fff">
                <use xlink:href="#g"/>
            </mask>
            <path fill="#FFECC5" d="M273.174 174.045c-3.46 14.66 7.892 26.551 18.887 36.846 10.995 10.295 24.57 17.48 35.804 27.51 12.855 11.476 22.393 26.623 27.19 43.173 4.38 15.123 5.038 31.706 13.39 45.053 11.256 17.986 36.5 25.61 55.83 16.861.805-.365 1.623-.77 2.21-1.433 2.462-2.78-.709-6.853-3.439-9.373-3.816-3.519-7.306-7.77-8.293-12.866-3.253-16.794 20.804-27.937 21.353-45.035.5-15.557-17.78-24.274-25.34-37.88-3.277-5.897-4.474-12.725-7.324-18.838-6.529-14.009-22.32-23.107-37.715-21.728-9.63.862-19.449 5.364-28.6 2.24-11.25-3.84-16.534-17.638-27.587-22.013-11.423-4.522-25.16 2.524-36.366-2.517" mask="url(#h)"/>
        </g>
        <g transform="translate(16 25)">
            <mask id="j" fill="#fff">
                <use xlink:href="#i"/>
            </mask>
            <path fill="#FFF" d="M158.166 277.016c-13.583.433-17.544 12.89-22.95 25.358-5.406 12.47-5.93 26.43-6.37 40.012-.083 2.547-.13 5.244 1.13 7.46 1.286 2.261 3.72 3.62 6.166 4.51 17.044 6.215 35.745-5.44 53.745-3.174 6.862.863 13.327 3.732 20.15 4.868 6.822 1.135 14.73.08 19.035-5.333 4.684-5.886 3.357-14.518.563-21.5-2.796-6.984-6.873-13.755-7.064-21.274-.156-6.158 2.346-12.366.947-18.365-2.398-10.269-14.978-14.728-25.477-13.744-10.5.984-20.49 5.545-31.03 5.87-3.654.113-8.24-1.084-8.845-4.688" mask="url(#j)"/>
        </g>
        <g transform="translate(16 25)">
            <mask id="l" fill="#fff">
                <use xlink:href="#k"/>
            </mask>
            <path fill="#FFECC5" d="M438.31 213.675c1.619 7.498 4.32 11.116 8.373 17.628 3.64 5.853 11.15 11.63 16.705 7.549 1.665-1.224 2.69-3.112 3.66-4.936l8.12-15.255c1.09-2.046 2.2-4.162 2.408-6.47.517-5.758-4.976-10.643-10.68-11.594-5.701-.95-11.45.968-16.912 2.859-5.59 1.935-12.34 5.592-11.64 11.466" mask="url(#l)"/>
        </g>
        <g>
            <g transform="translate(285 435)">
                <mask id="n" fill="#fff">
                    <use xlink:href="#m"/>
                </mask>
                <path d="M39.853 22.15H7.403a7.2 7.2 0 0 1-7.201-7.2V7.618a7.2 7.2 0 0 1 7.201-7.2h32.45a7.2 7.2 0 0 1 7.2 7.2v7.332a7.2 7.2 0 0 1-7.2 7.2" mask="url(#n)"/>
            </g>
            <g transform="translate(285 435)">
                <mask id="p" fill="#fff">
                    <use xlink:href="#o"/>
                </mask>
                <path d="M16.415 22.15L42.141.824C41.418.58 40.659.418 39.853.418H7.403a7.2 7.2 0 0 0-7.201 7.2v7.332a7.2 7.2 0 0 0 7.201 7.2h9.012z" mask="url(#p)"/>
            </g>
            <path fill="#231F20" d="M362.654 382.897H243.56c-9.898 0-17.922-8.022-17.922-17.921V115.632c0-9.898 8.024-17.922 17.922-17.922h119.093c9.898 0 17.922 8.025 17.922 17.922v249.344c0 9.899-8.024 17.921-17.922 17.921"/>
            <path fill="#E62E24" d="M357.683 103.284h-12.789c-1.938 0-3.508 1.399-3.508 3.125 0 5.464-4.974 9.894-11.111 9.894H275.94c-6.136 0-11.111-4.43-11.111-9.894 0-1.726-1.571-3.125-3.508-3.125h-12.788c-9.716 0-17.592 7.014-17.592 15.667v222.293c0 8.653 7.876 15.666 17.592 15.666h109.15c9.715 0 17.592-7.013 17.592-15.666V118.95c0-8.653-7.877-15.667-17.592-15.667"/>
            <path fill="#231F20" d="M380.576 210.164h.488a2.451 2.451 0 0 0 2.45-2.452v-22.224a2.45 2.45 0 0 0-2.45-2.451h-.488v27.127zM222.7 140.714v11.576l1.152.3v9.182l-1.152.299v11.756a2.94 2.94 0 0 0 2.939 2.939v-38.991a2.94 2.94 0 0 0-2.94 2.939"/>
            <path fill="#FFF" d="M320.767 177.278h-12.379l-5.282 10.46-5.283-10.46h-12.375l11.558 22.885v10.777h12.203v-10.777zM335.62 200.247a6.145 6.145 0 0 1-6.135-6.138 6.143 6.143 0 0 1 6.135-6.136 6.144 6.144 0 0 1 6.137 6.136 6.145 6.145 0 0 1-6.137 6.138m0-23.348c-9.493 0-17.214 7.718-17.214 17.21 0 9.494 7.721 17.213 17.214 17.213 9.49 0 17.214-7.72 17.214-17.213 0-9.492-7.724-17.21-17.214-17.21M270.594 200.247a6.142 6.142 0 0 1-6.134-6.138 6.141 6.141 0 0 1 6.134-6.136 6.144 6.144 0 0 1 6.137 6.136 6.145 6.145 0 0 1-6.137 6.138m0-23.348c-9.492 0-17.214 7.718-17.214 17.21 0 9.494 7.722 17.213 17.214 17.213 9.49 0 17.213-7.72 17.213-17.213 0-9.492-7.724-17.21-17.213-17.21"/>
            <path fill="#E62E24" d="M449.381 394.772a26.087 26.087 0 0 0 2.45 4.666c7.04 10.762 20.606 15.627 27.735 30.456 8.078 16.803 15.633 34.315 16.738 44.454.47 4.3.084 6.474-.51 7.55 2.006-1.478 6.616-4.026 6.994-14.093.595-15.825 1.45-59.72-3.836-76.332-2.168-6.822-5.602-12.791-9.386-18.25-5.412-7.845-11.538-14.637-15.627-21.382-6.943-11.44-13.244-16.252-20.607-8.18-7.177 7.868-9.71 36.803-3.95 51.11"/>
            <path fill="#E62E24" d="M505.232 469.82s-13.061-22.084-15.53-44.002c-2.47-21.918 11.102-68.547 13.622-94.545 2.52-25.997-2.177-57.16 20.668-60.028 22.845-2.867 14.368 25.35 22.156 41.21 7.787 15.86 17.22 30 6.433 55.58-10.787 25.582-31.293 47.936-35.656 63.79-4.362 15.853-3.618 37.961-9.012 42.588-5.395 4.627-2.681-4.594-2.681-4.594"/>
            <path fill="#CDCFD0" d="M502.525 420.636a.582.582 0 0 1 .075-.302l.004-.007c1.332-5.273 2.984-10.442 4.735-15.385 2.382-6.723 4.972-13.397 7.246-20.166a.615.615 0 0 1-.111-.284 40.988 40.988 0 0 0-8.95-21.2c-.483-.594.36-1.45.85-.85 4.738 5.832 7.778 12.59 8.998 19.944 1.458-4.521 2.75-9.092 3.718-13.755 2.64-12.712 2.238-25.711 2.003-38.614-.254-13.993-.187-28.142 4.25-41.57.242-.73 1.402-.417 1.159.319-7.104 21.495-2.873 44.168-4.395 66.323 4.539-10.2 16.075-16.62 19.197-27.791.208-.744 1.367-.428 1.159.319-3.73 13.345-19.787 20.034-20.944 34.362a.578.578 0 0 1-.134.325l-.014.12c-2.606 19.093-11.55 36.445-16.77 54.817a34.02 34.02 0 0 1 19.442-13.098c.75-.185 1.07.972.319 1.158-8.805 2.174-16.221 7.768-20.725 15.64-.011.02-.028.028-.041.047-.841 3.334-1.543 6.707-2.04 10.135-1.876 12.97-.812 26.57 6.215 37.922.407.659-.631 1.263-1.037.607-9.257-14.953-8.338-32.495-4.21-49.016"/>
            <path fill="#231F20" d="M495.794 481.897c-1.147.848-2.024.913-2.024.913s1.207.56 2.024-.913"/>
            <path fill="#464FB0" d="M495.743 518.6h14.404c7.926 0 14.539-5.237 15.238-12.066l3.45-33.74c.447-4.375-3.538-8.14-8.615-8.14h-34.863c-5.104 0-9.098 3.804-8.608 8.2l3.77 33.785c.757 6.783 7.346 11.96 15.224 11.96"/>
            <path fill="#646566" d="M434.967 368.48h37.717a6.02 6.02 0 0 0 6.02-6.02l-3.003-19.7a6.02 6.02 0 0 0-6.02-6.02h-31.71a6.021 6.021 0 0 0-6.022 6.02l-3.003 19.7a6.02 6.02 0 0 0 6.021 6.02"/>
            <path fill="#58595B" d="M445.536 336.736c.185-6.346 3.762-12.01 8.15-12.01s7.965 5.664 8.149 12.01h2.703c-.187-8.527-4.973-15.358-10.853-15.358s-10.666 6.83-10.85 15.358h2.702z"/>
            <path fill="#F37368" d="M448.904 283.086s9.217 4.018 13.02 12.794c3.804 8.777 14.415 33.16 11.21 37.184-3.202 4.024-7.906 1.343-10.308-2.197s-11.911-25.009-11.911-25.009l-2.011-22.772z"/>
            <path fill="#F37368" d="M468.23 322.828l1.446 12.249s-11.434-.285-20.772-.637l-.595-8.954c8.688-1.04 19.922-2.658 19.922-2.658"/>
            <path fill="#231F20" d="M223.842 245.764s2.364 6.623-1.906 11.277c-4.27 4.655-9.637.751-9.637.751l.81-12.503 10.733.475z"/>
            <path fill="#231F20" d="M223.57 251.135c-.93 2.854-3.564 4.404-3.564 4.404l-9.934-9.537-1.472-4.348s1.853-3.852 2.742-5.347c.474-.198.768-.318.768-.318s7.1.701 10.93 7.42c.45.791 2.057 3.047.53 7.726M221.341 288.427s7.56 2.698 9.962 5.601c2.402 2.902 3.555 9.584 5.957 17.292 2.402 7.707 4.004 17.016 4.004 17.016s-13.814-11.728-14.815-11.72c-1 .01-3.203-6.698-3.302-7.999-.1-1.3-2.303-7.407-1.702-10.91.6-3.504-.104-9.28-.104-9.28"/>
            <path fill="#F37368" d="M215.712 245.936a4.655 4.655 0 0 1 4.475 4.381c.437 7.683.601 23.265-5.149 24.467-5.61 1.173-16.43-.714-16.803-1.43-.374-.714.426-28.064.426-28.064l17.051.647z"/>
            <path fill="#FFF" d="M216.243 266.271c.475.018.814.497.643.939-.527 1.355-2.08 2.302-3.876 2.233-1.797-.068-3.274-1.129-3.697-2.52-.137-.454.238-.906.712-.888l6.218.236z"/>
            <path fill="#F37368" d="M211.642 272.638l-.36 2.366-.566 3.676-1.428 9.37-7.129 1.885s-3.64-3.658-3.863-3.928l-2.438-.186c.385-.15 2.301-15.183 2.301-15.183l13.483 2z"/>
            <path fill="#FFF" d="M195.13 283.353s.914-4.584 1.515-5.216c.6-.632 4.353.262 6.23 2.89 1.877 2.627 3.754 6.719 3.754 6.719s-6.83-1.126-7.057-1.276c-.225-.151-4.442-3.117-4.442-3.117"/>
            <path fill="#FFF" d="M209.946 283.733s-.071 1.988-4.075 2.389c-4.004.4-9.416-3.201-9.416-3.201l-8.407 3.075 28.882 30.62 3.448-13.13s-.947-9.91-1.047-11.01c-.1-1.101-3.915-6.658-3.915-6.658l-5.47-2.085z"/>
            <path fill="#231F20" d="M195.13 283.353s-3.502 1.083-7.518 2.83c-2.88 1.253-10.91 2.384-10.31 7.955.6 5.57 5.506 23.788 8.608 33.697 3.104 9.91 5.205 23.224 5.205 23.523 0 .301 39.038 2.803 39.038 2.803l1.101-36.935s-.85-6.86-2.052-9.686c-1.2-2.827-4.254-6.831-4.755-9.333-.5-2.502 0-6.635-.9-8.272-.9-1.638-13.602-6.202-13.602-6.202s6.55 7.452 7.295 15.216c.774 8.052-1.512 15.301-2.062 15.147-.465-.13-6.69-5.568-11.429-12.912-5.46-8.466-8.316-17.831-8.619-17.831"/>
            <path fill="#231F20" d="M179.807 289.451s-5.407 2.55-7.209 6.904c-1.802 4.354.938 17.717 4.673 28.227 3.735 10.511 5.987 17.567 7.488 18.62 1.502 1.05 8.26.6 9.61-.752 1.351-1.352-5.105-40.39-5.555-41.29-.45-.9-9.007-11.709-9.007-11.709"/>
            <path fill="#231F20" d="M200.525 334.342c.9.3 14.564 4.504 14.564 4.504l1.202 4.935-6.454 2.373h-18.82c-1.981 0-3.93-.625-5.48-1.857-.327-.26-.597-.516-.752-.746-2.818-4.18-2.818-9.226-2.818-9.226s17.657-.283 18.558.017"/>
            <path fill="#FFF" d="M276.899 349.657H217.24l9.923-34.637a4.276 4.276 0 0 1 4.112-3.1h52.483a2.977 2.977 0 0 1 2.863 3.798l-9.723 33.939z"/>
            <path fill="#646566" d="M259.069 328.987c0 1.587-1.751 3.087-3.476 2.875-1.575-.195-2.274-1.288-2.274-2.875s1.919-3.188 3.476-2.875c1.9.382 2.274 1.288 2.274 2.875"/>
            <path fill="#231F20" d="M215.613 244.372s1.952 6.663-5.755 8.24c-6.99 1.43-10.695 4.983-10.73 6.712-.034 1.73.523 7.212-.985 9.48-.98 1.476-4.313-10.655-5.327-15.28-3.227-14.726 13.555-20.862 21.318-16.753 1.712.907 4.76 2.062 5.79 4.97 1.027 2.907-4.311 2.631-4.311 2.631"/>
            <path fill="#231F20" d="M220.377 254.038c0-.099 0-1.3-.756-4.7-.712-3.202-7.979-3.556-7.979-3.556l2.408-1.554s3.078.201 4.204.651c1.126.451 2.252.751 2.628 1.502.375.75.975 2.552 1.051 2.852.075.301-1.556 4.805-1.556 4.805"/>
            <path fill="#CDCFD0" d="M399.488 357.571V510.69a7.912 7.912 0 0 1-7.91 7.91H92.196V349.661h299.384a7.909 7.909 0 0 1 7.909 7.91"/>
            <path fill="#BCBEC0" d="M399.488 357.571V510.69a7.912 7.912 0 0 1-7.91 7.91h-99.27c23.747-22.498 40.24-40.54 35.736-86.52-3.848-39.27 9.307-61.145 21.397-82.418h42.138a7.909 7.909 0 0 1 7.909 7.91"/>
            <path fill="#F37368" d="M384.399 322.705s4.062 4.32 2.803 25.75c-.876 14.92-1.418 20.695-3.22 22.296-1.802 1.602-4.604 0-5.806-1.201-1.201-1.201-3.194-16.16-3.587-26.97-.391-10.81-1.635-13.608-1.635-13.608l2.236-6.267h9.209z"/>
            <path fill="#FFF" d="M190.015 349.657h30.028v-3.503h-26.525a3.503 3.503 0 0 0-3.503 3.503"/>
            <path fill="#BCBEC0" d="M122.957 349.655v168.937H38.97a7.506 7.506 0 0 1-7.507-7.506V357.163a7.506 7.506 0 0 1 7.508-7.508h83.985z"/>
            <path fill="#FFF" d="M123.557 349.662V518.6h-1.2V349.656h.6v.006z"/>
            <path fill="#F37368" d="M425.726 514.144c-.24.313-1.081.625-2.313.925-.03-.048-.053-.09-.083-.12-.115-.125-.589.067-1.34.427-6.041 1.188-17.267 2.12-18.497 2.012-.326-.03-.572-.109-.757-.229-.156-.84.036-1.904.486-2.846.78-.727 3.741-2.24 6.721-3.935 3.068-1.734 6.149-3.67 6.876-5.14 2-4.055-1.426-24.375-1.426-24.375l12.712 1.702s-2.109 14.781-1.671 20.769c.108 1.502.211 2.978.253 4.342.09 2.901-.072 5.315-.961 6.469"/>
            <path fill="#646566" d="M427.291 512.019c-.18 1.255-1.272 6.046-1.38 6.095-.224.09-2.667.028-3.752-.106-.055-.008.575-2.815-.649-2.522-3.826.917-4.754 2.762-9.054 2.947-5.825.259-9.184-.353-9.49-.876a1.962 1.962 0 0 1-.269-.697c-.155-.841-.366-1.557.54-2.565.782-.726 3.742-2.24 6.721-3.933.013.696.246 1.8 1.645 2.01 2.061.32 4.517.217 12.11-2.401 2.18-.751 2.99-2.312 2.99-2.312s.762 3.105.588 4.36"/>
            <path fill="#F37368" d="M456.17 514.392c-.236.306-1.063.608-2.273.898-.03-.046-.053-.087-.082-.118-.112-.124-.579.063-1.317.413-5.935 1.145-16.958 2.014-18.166 1.904-.318-.032-.559-.11-.74-.228-.15-.826.041-1.868.487-2.792.77-.711 3.682-2.184 6.612-3.836 3.02-1.691 6.052-3.578 6.771-5.02 1.98-3.971-2.349-28.723-2.349-28.723l14.892-5.951s-3.504 26.964-3.097 32.844c.101 1.474.195 2.924.231 4.263.077 2.848-.092 5.217-.969 6.346"/>
            <path fill="#646566" d="M457.716 512.31c-.183 1.232-1.273 5.932-1.38 5.979-.219.086-2.617.017-3.682-.12-.054-.006.577-2.76-.626-2.477-3.76.885-4.678 2.69-8.9 2.856-5.72.232-9.014-.383-9.312-.895a1.91 1.91 0 0 1-.26-.688c-.15-.826-.355-1.529.54-2.514.768-.71 3.681-2.185 6.611-3.836.01.685.236 1.77 1.61 1.981 2.02.32 4.431.231 11.893-2.31 2.143-.728 2.945-2.257 2.945-2.257s.737 3.05.561 4.282"/>
            <path fill="#CDCFD0" d="M78.53 335.264a.902.902 0 0 1-.891-.775c-.068-.488-1.646-12.039 1.627-20.266 1.42-3.566 3.14-6.185 4.66-8.494 2.042-3.108 3.806-5.792 4.6-10.075 1.238-6.675.014-13.323 0-13.39a.902.902 0 0 1 1.772-.333c.053.284 1.298 7.05 0 14.052-.86 4.64-2.806 7.601-4.868 10.736-1.542 2.347-3.137 4.774-4.49 8.17-3.098 7.787-1.532 19.233-1.516 19.348a.902.902 0 0 1-.893 1.027"/>
            <path fill="#E62E24" d="M79.653 331.576c0-.504-1.651-11.314-6.306-18.22-4.655-6.908-9.76-15.015-14.264-15.916-4.504-.9-5.705 9.46-2.403 15.915 3.304 6.456 5.432 6.893 9.5 11.411 3.68 4.084 8.668 8.56 8.668 8.56l4.805-1.75z"/>
            <path fill="#E62E24" d="M75.298 331.576s3.454-9.182 5.556-12.875c2.102-3.694 8.558-7.298 14.864-12.403 6.307-5.105 14.114-2.402 10.66 4.354-3.453 6.757-9.732 15.01-13.8 16.063-4.067 1.054-4.967 1.006-7.07 2.681-2.102 1.676-10.21 2.18-10.21 2.18"/>
            <path fill="#767779" d="M83.336 349.816h-9.609c-8.873 0-16.067-7.193-16.067-16.065a4.355 4.355 0 0 1 4.355-4.355h33.032a4.355 4.355 0 0 1 4.354 4.355c0 8.872-7.193 16.065-16.065 16.065"/>
            <path fill="#808285" d="M89.993 279.523c-.17 0-2.731.065-2.862 1.313-.132 1.248.984 1.905.984 3.218s2.12 1.248 2.998.722c.877-.525 2.124-1.773 1.86-2.955-.261-1.182-1.246-2.303-2.98-2.298M84.228 314.597c.159-.184 2.49-3.01 1.266-4.322-1.224-1.312-2.98-.723-4.398-1.954-1.418-1.232-3.336 1.12-3.591 2.56-.255 1.438-.078 3.956 1.445 4.78 1.522.825 3.657.813 5.278-1.064M91.641 297.737c-.37-.888-1.22-2.741-2.702-2.741s-3.507 1.56-3.932 2.74c-.426 1.182.01 1.792 1.84 3.36 1.83 1.569 1.758.235 3.4-.043 2.57-.436 1.72-2.537 1.394-3.316"/>
            <path fill="#CDCFD0" d="M74.54 325.848a101.894 101.894 0 0 0-14.844-21.084c-.521-.572-1.37.279-.849.849a100.676 100.676 0 0 1 14.655 20.84c.362.685 1.398.079 1.038-.605M96.498 313.297c-5.71 3.904-12.796 6.435-15.546 13.322-.285.719.876 1.03 1.159.32 2.594-6.497 9.624-8.935 14.992-12.604.635-.434.035-1.475-.605-1.038"/>
            <path fill="#FFF" d="M210.525 279.937s-1.86.376-2.911 1.953-2.336 4.655-2.336 4.655l5.247-1.502-.58-1.31.58-3.796z"/>
            <path fill="#231F20" d="M195.13 283.353s-2.089-1.132-3.815-.509c-1.727.623-2.178 2.875-2.178 2.875l4.505 2.708 1.488-1.882v-3.192zM209.946 283.733s.812-.89 2.539-.492c2.189.503 2.692 2.482 2.692 2.482l-.714.822-4.517-2.812z"/>
            <path fill="#CDCFD0" d="M206.813 288.766c-.11-.084-.553-.088-.645-.062-.292.08-.533.433-.42.738l.333.89c.18.487.802.597 1.097.144.39-.597.164-1.302-.365-1.71M209.977 296.532c-.606-.387-.967.349-.725.938.157.382.213.78.575 1.027.409.28.866-.104.904-.518.053-.592-.264-1.135-.754-1.447M212.877 305.21c-.37-.28-.914.1-.904.519.006.22 0 .728.346 1.17.325.413.94.39 1.11-.11.21-.61-.059-1.209-.552-1.58"/>
            <path fill="#231F20" d="M212.525 334.591c-6.074.08-13 .138-17.787-4.229-4.48-4.087-3.945-10.479-4.585-15.995-.991-8.547-4.221-17.666-13.026-20.79-.731-.259-1.044.901-.32 1.158 5.85 2.076 9.364 7.432 10.958 13.212 1.483 5.375 1.068 10.974 2.29 16.364 2.383 10.5 13.468 11.597 22.47 11.481.772-.01.774-1.21 0-1.2M201.446 301.332c-1.708-.217-3.416-.428-5.122-.651-1.6-.21-2.193-.127-3.348-1.378-1.141-1.237-1.012-1.265-1.235-2.82-.454-3.178-.893-6.359-1.34-9.538-.106-.762-1.264-.438-1.157.319l1.042 7.419c.223 1.595.15 3.924 1.073 5.358 1.683 2.617 7.505 2.164 10.087 2.492.765.097.758-1.105 0-1.201M223.307 295.373c-.35-1.203-1.504-2.264-2.283-3.171l-4.274-4.984c-.504-.588-1.349.265-.848.849 1.748 2.039 3.591 4.029 5.26 6.134 2.421 3.055-1.49 4.424-2.784 6.692-.383.672.655 1.278 1.037.606 1.191-2.087 4.756-3.161 3.892-6.126"/>
            <path fill="#FFF" d="M202.711 308.362l-8.685 1.03a1.241 1.241 0 0 1-1.378-1.085l-.173-1.46a1.24 1.24 0 0 1 1.086-1.378l8.684-1.031a1.24 1.24 0 0 1 1.378 1.086l.174 1.46a1.24 1.24 0 0 1-1.086 1.378"/>
            <path fill="#231F20" d="M192.642 252.616s-2.604-9.238-2.829-12.391c-.225-3.153 4.43-9.835 9.609-9.76 5.18.076 3.815 5.884 3.815 5.884l-6.142 13.26-4.453 3.007z"/>
            <path fill="#F37368" d="M412.832 242.318s-4.143 26.346 6.938 30.167c5.68 1.96 19.226-1.688 19.58-2.456.353-.768-2.54-28.942-2.54-28.942l-23.978 1.231z"/>
            <path fill="#F37368" d="M441.625 283.502c-.187.332-3.313 4.732-3.313 4.732l-11.642-.814-3.52-15.07 15.96-4.756s2.2 16.271 2.508 15.908h.007z"/>
            <path fill="#FFF" d="M442.776 279.428s-21.013-2.687-27.22 6.39c-4.8 7.02-8.653 24.289-3.916 36.31 1.802 4.573 2.115 18.244 4.668 31.607.32 1.676 26.205-1.952 31.718-2.99 2.545-.478-.93-6.822 3.566-14.427 4.354-7.366 8.492-24.061 7.206-37.75-1.4-14.927-16.022-19.14-16.022-19.14"/>
            <path fill="#231F20" d="M426.786 272.195s2.447 6.988 5.245 10.252c2.798 3.264 5.325 1.958 5.45 6.555.127 4.596 2.603 13.526 8.16 12.324 5.554-1.2 5.704-6.33 4.353-12.324-1.352-5.994.578-10.913-.45-14.359-2.702-9.052-5.881-5.77-5.705-14.006.15-7.057-7.176-15.96-7.176-15.96l-9.877 27.518z"/>
            <path fill="#231F20" d="M434.776 234.32c-4.505-1.528-9.91-2.103-17.017 1-7.107 3.103-4.926 6.998-4.926 6.998 4.466-.203 7.098 7.696 5.577 13.822-.901 3.625-1.136 7.057 3.003 8.982 3.504 1.63 4.44 6.916 6.24 7.935 7.253 4.105 10.899-2.88 11.626-3.674.172-.188.278-.427.323-.679.236-1.293 1.19-6.549 1.377-7.788 1.532-10.226 5.238-22.715-6.203-26.596"/>
            <path fill="#F37368" d="M427.267 287.537c-.996-4.551-6.673-6.083-9.7-2.587-1.37 1.583-2.574 3.84-3.27 7.057-2.463 11.388 1.019 37.863 1.564 39.36.545 1.497 6.451 3.414 8.73-.347 2.28-3.761 4.212-33.01 3.538-38.535a54.26 54.26 0 0 0-.862-4.948"/>
            <path fill="#FBD23C" d="M446.207 348.034c5.631-.97 6.6 3.609 8.107 6.137 4.437 7.435 8.366 18.215 10.69 34.403 2.506 17.449 9.525 68.667-3.688 84.08-9.808 11.444-19.973 4.207-22.572 11.713-2.6 7.505-15.736 11.25-24.188 3.502-11.874-10.881-12.218-49.431-12.362-62.46-.303-27.626 6.112-58.142 9.88-69.267 4.68-13.813 8.771-7.107 18.823-6.48 7.081.44 12.093-1.074 15.31-1.628"/>
            <path fill="#F37368" d="M385.501 367.041s-1.04 6.322-1.94 9.325c-.903 3.003-7.204 6.206-8.557 6.507-1.355.3-4.786-2.198-4.786-2.803 0-2.602 3.1-5.782 4.333-8.508 1.232-2.726 2.87-4.521 2.87-4.521h8.08zM415.418 328.952s-2.805 5.05-4.967 11.12c-2.16 6.068-6.012 24.786-6.012 24.786 1.26 1.693 7.201.01 7.201.01 4.133-10.055 9.205-16.413 12.591-28.773 1.188-4.337 1.692-10.136 1.692-10.136l-10.505 2.993z"/>
            <path fill="#F37368" d="M404.44 364.858s-1.945 2.29-2.997 5.442c-1.051 3.154-4.954 11.662-1.651 12.412 3.303.751 7.657-.9 8.858-2.852 1.2-1.952 2.99-14.992 2.99-14.992l-7.2-.01z"/>
            <path fill="#231F20" d="M438.745 247.525c.534-.394 4.89-3.096 8.342-1.444 3.454 1.65 4.053 5.65 1.803 7.63-2.252 1.979-6.116 1.836-7.037 1.907-.921.072-5.276-2.781-5.127-3.231.151-.451 2.019-4.862 2.019-4.862"/>
            <path fill="#646566" d="M457.118 372.158c.06-.77-1.142-.767-1.201 0-1.366 17.628-7.462 34.504-10.386 51.887-2.871 17.07-3.901 34.402-3.162 51.693.033.771 1.234.774 1.2 0-.766-17.958.366-35.965 3.517-53.665 2.973-16.702 8.716-32.936 10.032-49.915"/>
            <path fill="#767779" d="M143.738 343.816l-12.29 5.478c-.187.083-.127.363.078.363h24.578c.205 0 .265-.28.077-.363l-12.29-5.478a.188.188 0 0 0-.153 0"/>
            <path fill="#767779" d="M142.814 346.153h2.002V327.34h-2.002z"/>
            <path fill="#464FB0" d="M157.41 327.34H130.22a2.433 2.433 0 0 1-2.423-2.66l2.55-27.341a2.433 2.433 0 0 1 2.42-2.208h22.096c1.256 0 2.306.957 2.423 2.208l2.549 27.342a2.433 2.433 0 0 1-2.423 2.659"/>
            <path fill="#BCBEC0" d="M323.538 349.662c-14.714 9.483-44.38 27.23-38.53 63.215 7.3 44.913 3.397 64.983-13.42 83.952-7.925 8.938-17.467 14.026-28.638 21.77H126.585c17.195-12.516 54.548-37.473 67.97-56.154 21.018-29.253 9.52-38.976 17.42-66.424 7.62-26.484 28.468-37.677 37.694-46.36h73.87z"/>
            <path fill="#464FB0" d="M369.829 283.086s14.13 36.173 15.53 41.778c1.403 5.606-7.967 5.784-10.57 5.816-2.602.032-12.611-23.239-12.611-23.239l.6-18.708 7.05-5.647z"/>
            <path fill="#F7A098" d="M323.227 498.62l-.583 8.663s1.455 1.364 4.281 1.167c2.827-.198 4.214 1.503 4.917.226.704-1.278.582-8.202.582-8.202l-9.197-1.855z"/>
            <path fill="#464FB0" d="M368.847 281.953s2.74 1.363 6.043 8.721c3.303 7.357 7.105 16.61 6.306 18.318-.8 1.708-3.603.728-7.357 5.77-3.754 5.04-5.5 6-5.5 6s-4.26 1.742-4.26 1.292c0-.45-1.55-29.33-1.902-29.679-.35-.35 6.67-10.422 6.67-10.422"/>
            <path fill="#646566" d="M332.433 504.793c-1.618-.605-6.336.23-8.069-.982-2.207-1.545-2.892-.804-3.348 0-.457.802-8.522 7.124-9.892 7.485-1.37.361-4.641 1.896-5.251 5.238-.608 3.341 15.523 2.077 16.588 1.806 1.066-.271 1.066-1.355 1.826-1.174.379.09.57.358.666.606.118.307.384.835.665.842 1.603.039 6.04.133 6.351-.014.381-.181.511-5.298.409-7.745-.049-1.179.461-5.91.055-6.062"/>
            <path fill="#F7A098" d="M353.659 498.62l-.583 8.663s1.455 1.364 4.28 1.167c2.828-.198 4.214 1.503 4.918.226.704-1.278.582-8.202.582-8.202l-9.197-1.855z"/>
            <path fill="#646566" d="M362.807 504.71c-1.617-.604-6.278.313-8.012-.9-2.207-1.544-2.89-.803-3.347 0-.457.803-8.523 7.125-9.892 7.486-1.37.36-4.642 1.896-5.25 5.238-.609 3.34 15.522 2.077 16.587 1.806 1.065-.271 1.065-1.355 1.826-1.174.38.09.57.358.664.607.12.306.385.834.666.84 1.604.04 6.04.134 6.352-.013.38-.181.51-5.298.41-7.745-.05-1.18.402-5.992-.004-6.144"/>
            <path fill="#F37368" d="M279.19 296.834s-1.575-3.23-2.176-5.632c-.6-2.401-2.101-4.805-4.053-6.23-1.953-1.426-3.154-3.018-3.23-.525-.081 2.724 2.528 2.851 2.304 4.503-.226 1.653-5.982.076-7.258-2.476-1.275-2.553-2.477-5.03-3.453-4.43-.976.6-2.403 6.082-1.284 9.61.86 2.72 2.936 5.855 6.915 9.084 3.422 2.776 7.132 3.901 7.132 3.901l5.104-7.805z"/>
            <path fill="#767779" d="M368.195 375.547c-1.171 24.978-4.871 123.107-4.984 125.04-.14 2.499-2.187 2.259-5.682 1.412-2.648-.642-6.114 1.117-7.291-.498-1.214-1.652-6.925-84.004-8.576-112.514-.007-.156-.085-.252-.181-.3-.18-.083-.432.012-.45.3 0 0 0 .06-.006.168-1.862 34.006-6.354 109.895-6.444 111.433-.14 2.498-2.187 2.258-5.682 1.41-2.648-.641-6.162.007-7.34-1.608-1.392-1.905-8.702-120.111-8.971-130.297-.271-10.186 1.8-18.18 1.8-18.18h27.394l.017 6.84c.529-4.19 1.219-6.84 1.219-6.84s23.97.457 23.982.53c0 0 .69 3.315 1.08 9.128.254 3.71.374 8.445.115 13.976"/>
            <path fill="#F37368" d="M317.654 232.897s-2.503 31.33 7.334 31.457c6.269.083 20.057-1.821 20.424-2.625.366-.801-2.743-30.192-2.743-30.192l-25.015 1.36z"/>
            <path fill="#F37368" d="M347.828 275.781c-.193.347-3.441 4.948-3.441 4.948l-12.152-.812-3.72-15.716 16.638-5.012s2.347 16.971 2.668 16.593h.007z"/>
            <path fill="#646566" d="M368.195 375.547c-1.171 24.978-4.871 123.107-4.984 125.04-.14 2.499-2.187 2.259-5.682 1.412-2.648-.642-6.114 1.117-7.291-.498-1.214-1.652-6.925-84.004-8.576-112.514-.007-.156-.085-.252-.181-.3 1.832-1.195 10.368-4.15 15.513-9.705 6.268-6.77 10.547-17.28 10.547-17.28s.204-.052.54-.131c.253 3.71.373 8.445.114 13.976"/>
            <path fill="#231F20" d="M327.864 253.942c-2.375-3.091-2.6-5.904-2.027-9.76.29-1.954.15-7.357-4.511-7.131-4.865.236-9.774-3.87-7.208-10.697 2.567-6.827 6.962-6.237 10.93-6.103 3.969.134 9.895 1.849 12.724 2.14 2.829.294 7.67-.805 10.205 3.399 3.283 5.44.673 15.75-.894 26.425-.191 1.294-1.17 6.78-1.412 8.132a1.43 1.43 0 0 1-.336.71c-.756.829-3.23 2.179-9.74-3.587-2.336-2.07-6.28-1.637-7.731-3.528"/>
            <path fill="#464FB0" d="M324.26 275.398s2.902-6.767 4.254-7.868c1.351-1.101 7.657-2.503 10.66-2.403 3.003.1 6.996-.1 8.653 1.702 1.658 1.802 3.16 7.107 3.16 7.107l-26.727 1.462z"/>
            <path fill="#464FB0" d="M309.106 286.92c-.083-2.502 1.25-4.885 3.609-6.424 5.677-3.706 16.819-10.123 26.454-10.538 13.6-.585 28.654 10.05 30.66 13.129 2.006 3.078-1.678 37.503-1.678 43.38 0 5.878 4.617 34.077 2.276 37.156-2.341 3.078-13.055 6.41-25.761 5.852-12.706-.56-30.764-1.866-33.064-4.105-2.3-2.24.959-29.947.959-40.815 0-8.244-3.151-28.578-3.455-37.635"/>
            <path fill="#F37368" d="M311.005 281.953s-18.495 37.548-20.497 40.351c-2.002 2.803-2.402 16.164 7.407 11.285 9.81-4.879 22.422-33.106 22.422-33.106V286.67l-9.332-4.717z"/>
            <path fill="#F37368" d="M274.086 304.64s6.595 13.577 9.215 17.865c1.682 2.753 7.508 10.498 7.508 10.498l10.91-13.267s-7.993-6.763-10.21-9.016c-3.415-3.472-12.319-13.886-12.319-13.886h-7.5l2.396 7.806z"/>
            <path fill="#464FB0" d="M314.94 279.085s-4.913 1.228-7.916 5.883c-3.003 4.654-7.808 15.164-7.957 16.816-.15 1.652.86 8.408 7.937 12.162 7.078 3.753 11.882 2.102 11.882 2.102s7.658-27.32 7.658-28.299c0-.979-.151-6.754-.751-7.02-.601-.266-10.852-1.644-10.852-1.644"/>
            <path fill="#FFF" d="M319.595 278.8c-.772-.038-.77 1.164 0 1.2 7.222.349 5.688 13.166 4.454 17.777-1.49 5.562-4.604 10.47-8.928 14.256-.582.51.271 1.358.85.85 5.44-4.767 9.017-11.351 9.982-18.533.682-5.068.746-15.208-6.358-15.55"/>
            <path fill="#646566" d="M356.436 270.67a4.634 4.634 0 0 0-4.356 4.372c-.581 10.258-3.245 37.45-15.422 56.577-16.466 25.863-36.145 38.843-33.966 42.473 2.178 3.63 4.675 5.903 6.906 4.636 2.232-1.266 25.88-27.398 37.264-48.285 11.384-20.886 14.013-46.075 14.35-50.297.124-1.563.156-3.307.145-4.88a4.632 4.632 0 0 0-4.9-4.597l-.021.001z"/>
            <path fill="#646566" d="M316.327 420.615H296.83a4.261 4.261 0 0 1-4.261-4.26v-40.67a4.261 4.261 0 0 1 4.26-4.26h19.498a4.261 4.261 0 0 1 4.26 4.26v40.67a4.261 4.261 0 0 1-4.26 4.26"/>
            <path fill="#E62E24" d="M199.144 305.557l-.846.146-.237.777-.484-.652-.846.146 1.059 1.427.127.736.834-.144-.127-.736z"/>
            <path fill="#E62E24" d="M200.43 306.951a.426.426 0 1 1-.143-.84.426.426 0 0 1 .142.84m-.274-1.595a1.194 1.194 0 1 0 .406 2.354 1.194 1.194 0 0 0-.406-2.354M195.987 307.718a.426.426 0 1 1-.143-.84.426.426 0 0 1 .143.84m-.274-1.595a1.195 1.195 0 0 0-.974 1.379c.112.648.73 1.085 1.379.973a1.194 1.194 0 0 0-.405-2.352"/>
            <path fill="#464FB0" d="M599.716 520.047H2.104a1.69 1.69 0 1 1 0-3.381h597.612c.935 0 1.69.756 1.69 1.69 0 .935-.755 1.69-1.69 1.69"/>
            <path fill="#F2F2F2" d="M47.777 66.134c-3.124-2.896-1.384-8.513 2.14-10.906 3.523-2.393 8.02-2.612 12.239-3.209 4.218-.596 8.804-1.949 11.01-5.592 2.132-3.517 1.36-7.965 1.159-12.072-.203-4.106.778-9.02 4.568-10.615 6.263-2.635 12.87 6.37 19.28 4.11 5.91-2.083 4.992-10.542 6.844-16.529 2.036-6.583 9.175-11.167 16.008-10.282 6.834.886 12.567 7.14 12.858 14.023.268 6.328-3.467 12.064-4.992 18.211-1.525 6.147.804 14.506 7.108 15.123 7.737.757 14.834-10.848 21.198-6.383 4.09 2.87 2.509 9.593 5.48 13.61 2.93 3.956 8.988 3.697 13.594 1.96 4.606-1.74 9.02-4.58 13.942-4.512 4.922.07 10.088 5.185 7.783 9.534l-150.22 3.53zM451.73 103.904c-2.138-1.982-.946-5.828 1.467-7.466 2.412-1.64 5.49-1.788 8.379-2.197 2.886-.41 6.026-1.335 7.538-3.83 1.459-2.406.93-5.452.792-8.263s.533-6.176 3.128-7.267c4.288-1.805 8.81 4.36 13.199 2.814 4.046-1.427 3.417-7.218 4.686-11.317 1.394-4.506 6.28-7.645 10.959-7.038 4.678.606 8.603 4.886 8.803 9.6.183 4.332-2.374 8.259-3.418 12.467s.55 9.93 4.865 10.353c5.298.519 10.157-7.427 14.514-4.37 2.8 1.965 1.717 6.568 3.752 9.317 2.005 2.709 6.152 2.532 9.306 1.342 3.153-1.19 6.175-3.135 9.545-3.088 3.37.047 6.906 3.549 5.328 6.527l-102.842 2.416zM522.909 147.683c-4.02-4.005-.41-10.834-.41-10.834 3.172-4.705 9.838-6.675 15.057-4.452 2.57 1.095 4.714 3.037 7.297 4.102 2.582 1.066 6.073.927 7.577-1.427 1.207-1.889.657-4.335.509-6.57-.146-2.236.61-5.022 2.808-5.46 3.884-.774 5.522 6.458 9.47 6.14 1.778-.145 3.032-1.924 3.34-3.68.309-1.758-.06-3.554-.128-5.337-.252-6.588 4.099-13.1 10.284-15.387 6.183-2.287 13.725-.173 17.82 4.994 4.096 5.168 4.43 12.994.79 18.491-1.381 2.086-3.25 3.83-4.508 5.992-1.26 2.162-1.802 5.032-.394 7.1 1.403 2.061 4.275 2.611 6.73 2.173 2.457-.437 4.698-1.648 7.07-2.424 2.37-.775 5.119-1.069 7.242.243 2.122 1.311 2.964 4.711 1.07 6.336h-91.624"/>
        </g>
    </g>
</svg>