<svg xmlns="http://www.w3.org/2000/svg" xmlns:xlink="http://www.w3.org/1999/xlink" width="620" height="508" viewBox="0 0 620 508">
    <defs>
        <path id="a" d="M.06 241.852c0 133.217 107.994 241.213 241.212 241.213s241.212-107.996 241.212-241.213C482.484 108.634 374.49.64 241.272.64S.06 108.634.06 241.852"/>
        <path id="c" d="M.06 241.852c0 133.217 107.994 241.213 241.212 241.213s241.212-107.996 241.212-241.213C482.484 108.634 374.49.64 241.272.64S.06 108.634.06 241.852"/>
        <path id="e" d="M.06 241.852c0 133.217 107.994 241.213 241.212 241.213s241.212-107.996 241.212-241.213C482.484 108.634 374.49.64 241.272.64S.06 108.634.06 241.852"/>
        <path id="g" d="M.06 241.852c0 133.217 107.994 241.213 241.212 241.213s241.212-107.996 241.212-241.213C482.484 108.634 374.49.64 241.272.64S.06 108.634.06 241.852"/>
        <path id="i" d="M.06 241.852c0 133.217 107.994 241.213 241.212 241.213s241.212-107.996 241.212-241.213C482.484 108.634 374.49.64 241.272.64S.06 108.634.06 241.852"/>
        <path id="k" d="M.06 241.852c0 133.217 107.994 241.213 241.212 241.213s241.212-107.996 241.212-241.213C482.484 108.634 374.49.64 241.272.64S.06 108.634.06 241.852"/>
    </defs>
    <g fill="none" fill-rule="evenodd">
        <g transform="translate(94)">
            <mask id="b" fill="#fff">
                <use xlink:href="#a"/>
            </mask>
            <path fill="#FBD23C" d="M482.484 241.852c0 133.218-107.994 241.213-241.212 241.213S.06 375.07.06 241.852 108.054.64 241.272.64s241.212 107.994 241.212 241.212" mask="url(#b)"/>
        </g>
        <g transform="translate(94)">
            <mask id="d" fill="#fff">
                <use xlink:href="#c"/>
            </mask>
            <path fill="#FFECC5" d="M-48.843 152.197c26.134-7.566 35.39-40.72 58.247-55.473C24.61 86.91 44.52 86.18 59.152 75.529 67.595 69.384 74.6 59.857 84.97 58.622c14.002-1.67 24.72 13.229 26.828 27.173 2.108 13.943-.885 28.425 2.354 42.15 2.79 11.825 9.978 22.108 14.163 33.515 4.186 11.405 4.608 25.827-4.319 34.068-5.609 5.177-13.629 6.725-20.108 10.76-13.172 8.203-17.925 25.513-16.64 40.978 1.285 15.464 7.358 30.07 11.081 45.134 1.932 7.816.516 19.384-7.534 19.456-3.357.03-6.222-2.28-8.768-4.467l-31.423-26.994c-5.673-4.873-11.56-9.868-18.7-12.092-15.977-4.975-32.988 5.148-49.634 3.43-19.509-2.014-34.12-20.37-38.278-39.537-4.158-19.167-.172-39.054 3.811-58.258 1.963-9.474 3.928-18.95 5.893-28.425" mask="url(#d)"/>
        </g>
        <g transform="translate(94)">
            <mask id="f" fill="#fff">
                <use xlink:href="#e"/>
            </mask>
            <path fill="#FFECC5" d="M419.923-.112c-11.906-5.096-24.178 6.391-30.94 17.437-6.762 11.045-14.373 24.413-27.287 25.407-5.102.392-10.11-1.36-15.204-1.834-20.11-1.869-36.31 15.567-55.221 22.657-10.747 4.028-22.7 4.754-32.804 10.197-10.104 5.444-17.748 18.64-11.67 28.374 7.909 12.666 29.845 7.513 39.29 19.077 5.145 6.296 4.79 15.608 9.262 22.398 5.886 8.942 20.34 10.434 27.928 2.884 5.666-5.637 8.42-15.45 16.317-16.688 9.399-1.473 14.55 10.353 16.805 19.596 2.254 9.243 9.086 20.735 18.045 17.534 4.474-1.599 6.826-6.368 8.884-10.65 6.236-12.977 18.288-27.26 32.068-23.09 16.935 5.125 15.413 30.906 28.294 43.037 11.62 10.943 32.582 5.974 41.418-7.319 8.836-13.293 7.273-31.424.13-45.7-5.041-10.08-12.59-18.9-16.376-29.515-5.756-16.14-2.435-35.33-11.922-49.599-10.86-16.33-36.824-23.853-37.014-43.465" mask="url(#f)"/>
        </g>
        <g transform="translate(94)">
            <mask id="h" fill="#fff">
                <use xlink:href="#g"/>
            </mask>
            <path fill="#FFECC5" d="M273.206 174.051c-3.46 14.66 7.891 26.551 18.886 36.846 10.995 10.295 24.57 17.48 35.805 27.51 12.854 11.476 22.393 26.623 27.188 43.173 4.382 15.122 5.04 31.706 13.391 45.053 11.257 17.986 36.5 25.61 55.831 16.86.805-.364 1.622-.769 2.21-1.43 2.462-2.782-.709-6.856-3.44-9.374-3.815-3.52-7.306-7.77-8.293-12.867-3.252-16.794 20.804-27.937 21.353-45.035.5-15.557-17.78-24.274-25.34-37.88-3.277-5.897-4.474-12.724-7.323-18.838-6.53-14.009-22.322-23.107-37.715-21.729-9.632.863-19.449 5.365-28.6 2.241-11.25-3.84-16.534-17.637-27.587-22.012-11.424-4.523-25.162 2.522-36.366-2.518" mask="url(#h)"/>
        </g>
        <g transform="translate(94)">
            <mask id="j" fill="#fff">
                <use xlink:href="#i"/>
            </mask>
            <path fill="#FFECC5" d="M158.197 277.022c-13.584.433-17.545 12.89-22.95 25.358-5.407 12.469-5.929 26.428-6.37 40.01-.083 2.549-.13 5.246 1.13 7.462 1.285 2.26 3.721 3.619 6.165 4.51 17.045 6.216 35.745-5.442 53.746-3.175 6.862.864 13.328 3.733 20.15 4.869 6.822 1.136 14.73.079 19.036-5.333 4.683-5.887 3.356-14.517.562-21.501-2.795-6.983-6.874-13.754-7.065-21.273-.155-6.158 2.347-12.366.948-18.364-2.398-10.27-14.978-14.728-25.477-13.745-10.499.984-20.49 5.545-31.03 5.87-3.653.113-8.24-1.084-8.845-4.688" mask="url(#j)"/>
        </g>
        <g transform="translate(94)">
            <mask id="l" fill="#fff">
                <use xlink:href="#k"/>
            </mask>
            <path fill="#FFECC5" d="M438.34 213.681c1.62 7.497 4.323 11.115 8.374 17.628 3.64 5.852 11.15 11.63 16.705 7.548 1.666-1.224 2.69-3.112 3.66-4.936 2.708-5.085 5.414-10.17 8.12-15.255 1.09-2.045 2.202-4.161 2.409-6.469.517-5.758-4.977-10.643-10.68-11.594-5.702-.95-11.45.968-16.912 2.858-5.591 1.936-12.34 5.593-11.64 11.466" mask="url(#l)"/>
        </g>
        <g>
            <path fill="#ED2D24" d="M388.933 180.318c-5.584 0-10.127-4.545-10.127-10.131 0-5.582 4.543-10.127 10.127-10.127 5.58 0 10.126 4.545 10.126 10.127 0 5.586-4.545 10.13-10.126 10.13m0-38.533c-15.668 0-28.411 12.737-28.411 28.403 0 15.669 12.743 28.408 28.41 28.408 15.66 0 28.409-12.74 28.409-28.408 0-15.666-12.75-28.403-28.408-28.403M281.612 180.318c-5.584 0-10.122-4.545-10.122-10.131 0-5.582 4.538-10.127 10.122-10.127s10.13 4.545 10.13 10.127c0 5.586-4.546 10.13-10.13 10.13m0-38.533c-15.665 0-28.408 12.737-28.408 28.403 0 15.669 12.743 28.408 28.408 28.408 15.662 0 28.41-12.74 28.41-28.408 0-15.666-12.748-28.403-28.41-28.403"/>
            <path fill="#F37368" d="M363.54 475.28c-.892-.86-.405-.711-1.693-.955a1.231 1.231 0 0 0-.574.037c-.405-.536-1.125-.792-1.794-.24-5.428 4.49-11.443 8.218-16.706 12.914-.67.599-.804 1.547-.08 2.186 1.318 1.165 1.03.699 2.527 1.619.396.243 3.035-.77 3.39-1.027 2.894-2.095 12.458-9.455 15.17-11.837.702-.617.446-2.032-.24-2.696M413.463 334.964a19.306 19.306 0 0 1-2.063-3.138c.476-.79.957-3.47 1.047-5.364.013-.275-4.21-2.257-6.082-1.903-.93.176-1.881.34-2.79.602-.374.11-.755.193-1.032.493-.86.933-2.584 2.052-2.31 3.058.422 1.534 3.234 4.023 4.1 5.384.387.606.975 1.128 1.66 1.272.98.7 1.649 1.754 2.457 2.64a22.065 22.065 0 0 0 3.018 2.72c.067.05.199.056.262-.01.783-.846 1.829-1.442 2.65-2.265.377-.378.962-.783.825-1.366-.171-.733-1.281-1.558-1.742-2.123"/>
            <path fill="#E62E24" d="M461.151 310.109a73.9 73.9 0 0 0 2.535-5.427c.213-.51-.616-.73-.826-.228-4.394 10.514-11.379 20.285-20.463 27.254-8.567 6.572-21.684 10.224-30.28 1.57-.173-.173-.43-.148-.607 0a65.972 65.972 0 0 0-6.51 6.377c-.12.134-.179.358-.068.519 7.427 10.737 22.488 13.62 34.628 10.998 6.023-1.302 11.703-4.054 16.502-7.912 2.408-1.935 4.722-4.154 6.426-6.75 1.791-2.725 2.778-5.916 3.533-9.063 1.556-6.484.367-12.92-4.87-17.338"/>
            <path fill="#F37368" d="M365.878 469.18c-.771-.97-.309-.76-1.554-1.17a1.243 1.243 0 0 0-.573-.038c-.332-.584-1.013-.933-1.747-.472-5.969 3.742-12.419 6.653-18.249 10.622-.744.507-.999 1.43-.366 2.158 1.155 1.327.931.827 2.295 1.933.361.294 3.109-.366 3.494-.574 3.143-1.7 13.588-7.749 16.586-9.756.777-.52.709-1.957.114-2.704"/>
            <path fill="#808285" d="M411.127 312.985c-3.671-.077-6.986.003-10.474.065-.56.01-.773.304-.685 1.46.327 4.008.779 8.003 1.378 11.98.172 1.146.071 3.31.944 4.19.934.944 3.184.474 4.332.476.814.002 2.473.39 3.099-.35.306-.365.27-.945.315-1.384.111-1.062.212-2.125.318-3.188l1.27-12.751c.026-.272-.25-.492-.497-.498"/>
            <path fill="#231F20" d="M346.506 493.45c2.9-2.657 3.266-3.036 3.03-3.607-.64-1.564-2.654-4.594-3.543-6.2-.44-.681-1.036-.668-1.254-.505-1.7 1.264-1.981.69-4.35-.928-2.02-1.381-3.855-2.772-6.453-5.324-2.314-2.272-1.721-2.24-3.477-1.295-1.258.677.497 3.362 1.884 5.56.219.349.433.695.644 1.04a11.846 11.846 0 0 0 2.37 2.783c.169.147.339.29.51.438 1.556 1.327 2.57 2.752 3.525 4.559.046.086.048.226-.037.293-.17.134-.27.2-.443.328a.74.74 0 0 0-.186.978c.434.717.874 1.434 1.327 2.152.852 1.35 1.608 2.652 2.078 2.667.52.017.534-.127.925-.356 1.056-.618 2.438-1.654 3.45-2.582"/>
            <path fill="#58595B" d="M434.657 403.634c-24.453 19.581-48.924 39.18-74.466 57.336a858.743 858.743 0 0 1-5.403 3.81c-1.022.711-2.594 1.412-3.203 2.561-.669 1.261.051 2.792.387 4.061l1.713 6.461c.136.511.587.67.99.583-.55.581-.1 1.768.791 1.428 7.096-2.703 13.771-6.298 20.341-10.079 6.338-3.648 12.587-7.337 18.194-12.067 11.207-9.457 21.278-20.858 30.16-32.498 4.87-6.384 9.146-13.2 11.93-20.763.327-.893-.843-1.307-1.434-.833M343.462 485.747a14.02 14.02 0 0 0 .168-1.975c.004-.272-.421-.329-.425-.051a14.02 14.02 0 0 1-.169 1.972c-.042.274.383.327.426.054m-1.537-2.469c.108-.25-.262-.466-.372-.213-.265.608-.57 1.194-.917 1.757-.144.236.227.447.372.212.348-.563.652-1.149.917-1.755m-1.687-1.14c.159-.226-.214-.439-.372-.214a49.297 49.297 0 0 0-1.058 1.578c-.15.233.222.445.372.214.343-.534.695-1.06 1.058-1.578M343.054 496.041c.312-.183.655-.405 1.007-.647-1.29-1.52-2.178-3.284-3.101-5.04-.911-1.736-1.94-3.329-3.19-4.838-2.648-3.199-4.958-6.483-6.73-10.239-.162.09-.351.198-.583.323-1.257.676.496 3.361 1.883 5.561.219.347.434.693.646 1.04a11.832 11.832 0 0 0 2.368 2.781c.169.147.34.292.51.438 1.557 1.327 2.572 2.752 3.526 4.56.046.085.047.225-.038.292-.17.135-.268.2-.442.328a.74.74 0 0 0-.186.98c.434.715.874 1.432 1.326 2.15.853 1.351 1.609 2.652 2.078 2.667.523.018.535-.127.926-.356"/>
            <path fill="#231F20" d="M459.975 258.801c-1.163.231-2.203.547-3.415.417-1.214-.13-2.38-.59-3.558-.884a18.955 18.955 0 0 0-5.02-.576c-2.631.06-4.29.8-5.87 2.253.688.936 1.25 2.008 1.81 2.934.68 1.127 1.543 2.56 1.85 3.998a7.744 7.744 0 0 1 1.443.01c1.9.193 3.746.744 5.644.957 1.825.206 3.637.063 5.454-.156 2.202-.265 4.43-.698 6.659-.502 2.308.203 4.325 1.145 6.374 2.151.394.193.703-.055.8-.384.344.332 1.058.243 1.098-.37.422-6.632-7.332-11.033-13.27-9.848"/>
            <path fill="#58595B" d="M479.942 387.609c-.34-3.37-6.47-3.173-9.023-3.427a390.696 390.696 0 0 0-25.86-1.706c.207-1.334.368-2.68.471-4.04.102-1.371-3.349-1.262-3.45.098-.659 8.745.244 15.745-1.019 17.264-5.428 6.536-17.838 19.655-24.01 25.433a1277.395 1277.395 0 0 1-40.99 36.749 1284.582 1284.582 0 0 1-24.368 20.39c-.566.463-.638 1.144-.134 1.69 4.712 5.123 6.58 7.866 12.173 12.009.447.33 1.118.409 1.514-.073 2.211-2.7 17.137-7.5 20.05-9.021 5.166-2.7 7.996-7.595 11.072-12.314 1.731-2.656 3.635-5.245 6.234-7.117 2.682-1.93 5.801-3.097 8.815-4.392 2.666-1.145 5.326-2.384 7.6-4.212 2.323-1.866 4.165-4.201 5.99-6.537 1.902-2.432 3.827-4.94 6.361-6.753 2.88-2.061 6.314-3.082 9.55-4.43 2.826-1.175 5.363-2.653 7.674-4.673 2.434-2.125 4.62-4.561 7.392-6.266 5.176-3.184 12.886-4.903 16.63-10.143 3.585-5.014 5.21-10.847 6.086-16.78.32-2.165.6-4.336.836-6.513.183-1.687.58-3.534.406-5.236"/>
            <path fill="#F37368" d="M468.67 271.612c-3.233-4.896-9.687-8.843-15.884-9a1.456 1.456 0 0 1-.703.444c-2.553.744-5.252.906-7.705 1.978a1.378 1.378 0 0 1-.978.053c-3.337 4.42-2.992 12.156-3.73 18.97-.276 2.548-.4 9.149.606 11.456 1.302 2.989 6.41 3.48 9.208 2.82 7.407-1.745 14.046-5.626 18.229-12.044 3.86-5.926 4.932-8.661.958-14.677"/>
            <path fill="#F37368" d="M468.558 304.157l-2.737-22.261c-.177-.833-2.515 2.667-3.113 3.319-3.034 3.31-7.157 4.737-11.332 6.064-.127.04-.233.1-.33.166-.598.122-1.133.645-.97 1.415 1.034 4.906 2.532 14.386 4.632 18.984.545 1.193.443-.751 1.87-.457.967.2 2.569-.306 3.556-.425l3.792-.454c1.38-.165 4.236.09 5.16-1.242.899-1.296-.256-3.824-.528-5.11"/>
            <path fill="#231F20" d="M459.401 386.08c.03-.273-.398-.272-.429 0a40.05 40.05 0 0 1-4.872 15.216c-2.477 4.408-5.832 8.219-9.572 11.596-7.423 6.702-16.077 11.86-23.519 18.55-7.86 7.068-14.963 14.885-23.17 21.577-7.563 6.168-15.56 11.776-23.224 17.815-6.11 4.813-12.016 9.943-17.19 15.743l.292.303c11.107-12.481 25.514-21.657 38.53-32.03 3.942-3.142 7.758-6.43 11.402-9.916 4.052-3.874 7.948-7.908 12.06-11.722 3.908-3.627 8.076-6.904 12.37-10.06 3.88-2.851 7.798-5.663 11.448-8.808 4.096-3.53 7.824-7.514 10.576-12.193 2.89-4.913 4.673-10.411 5.298-16.072"/>
            <path fill="#F37368" d="M440.535 285.476c-.288-.16 1.253-7.494 1.253-7.494.405-.596-.635-1.162-1.038-.569l-2.41 3.542c-.618.906-1.699 1.976-1.858 3.102-.266 1.875 2.282 2.259 3.661 2.459.624.092 1.013-.692.392-1.04"/>
            <path fill="#231F20" d="M250.908 495.449l-4.275-.282 21.17-111.05 4.276.282zM406.477 495.663l4.275-.283-20.694-114.41-4.275.282z"/>
            <path fill="#231F20" d="M251.352 387.197h151.567V371.2H251.352z"/>
            <path fill="#231F20" d="M398.325 371.307h-52.598a5.143 5.143 0 0 1 5.143-5.142h42.313a5.142 5.142 0 0 1 5.142 5.142M313.412 371.736h-22.604a5.144 5.144 0 0 1 5.143-5.143h12.318a5.144 5.144 0 0 1 5.143 5.143M337.05 354.489h-69.844a2.358 2.358 0 0 1-2.357-2.356V298.57a2.356 2.356 0 0 1 2.357-2.356h69.845a2.355 2.355 0 0 1 2.356 2.356v53.563c0 1.3-1.054 2.356-2.356 2.356"/>
            <path fill="#231F20" d="M299.629 371.486h5.57v-48.991h-5.57z"/>
            <path fill="#E62E24" d="M333.019 346.704H272.49a2.358 2.358 0 0 1-2.357-2.356v-41.28a2.357 2.357 0 0 1 2.357-2.356h60.528a2.356 2.356 0 0 1 2.356 2.356v41.28a2.356 2.356 0 0 1-2.356 2.356M479.083 315.83c-2.217-3.217-4.212-7.5-7.521-9.708-.542-.747-1.081-1.495-1.624-2.24-.418-.575-.836-1.358-1.496-1.672-.891-.426-1.591-.079-2.444.285-1.672.716-3.322 1.484-4.982 2.226l-4.601 2.054c-1.342.6-2.853 1.096-3.886 2.197-1.642 1.751-2.623 4.925-3.013 7.205-.066.381.277.648.629.484 1.098-.514 1.942-1.26 2.748-2.103-2.844 11.612-3.545 24.074-5.476 35.7-1.15 6.93-3.093 13.704-5.215 20.391-1.925 6.068-4.377 12.14-3.658 18.62.066.594.588.746 1.032.588a.832.832 0 0 0 .362.077 675.924 675.924 0 0 0 32.993-.634c2.982-.132 8.386.642 10.067-2.61 1.096-2.117 1.326-5.015 1.787-7.329.505-2.53.95-5.07 1.338-7.622 2.783-18.346 4.012-39.872-7.04-55.909"/>
            <path fill="#FFF" d="M441.445 290.976c.604-.271 1.57-.597 1.734-1.344.134-.607-.272-.88-.813-.916-.945-.062-1.93.007-2.887.064.005.926.034 1.877.096 2.777a7.54 7.54 0 0 0 1.87-.581"/>
            <path fill="#231F20" d="M474.623 270.33c-.96-3.707-3.841-6.078-7.315-7.267-4.189-1.432-8.353-1.95-12.779-1.85-4.19.095-8.388 1.28-11.581 4.088-.157.138-.038.361.119.381-.016.111.038.236.182.254 1.993.264 4.74.253 6.385 1.543 1.723 1.353 1.922 3.741 1.98 5.76.04 1.381-.036 2.9.633 4.161.727 1.37 1.893 1.303 3.227 1.644 2.046.522 1.98 2.985 2.364 4.673.373 1.641.901 3.363 1.809 4.792 1.692 2.66 7.652 4.404 7.556 4.262 2.648-2.82 4.342-6.73 5.865-10.294 1.597-3.737 2.596-8.12 1.555-12.147"/>
            <path fill="#231F20" d="M454.293 258.097c-1.525-.737-3.38-1.48-5.098-1.644-2.19-.209-2.648 1.058-4.355 1.936-1.532.787-3.141.77-4.254 2.347-.904 1.282-.811 2.979.084 4.247.88 1.245 2.208 1.638 3.628 1.903 1.929.359 3.319 1.157 5.324.611 4.124-1.122 9.863-6.889 4.671-9.4M499.331 428.272c.034-2.348.085-4.696.086-7.044.001-1.714-.108-3.454-1.094-4.92-1.743-2.59-5.126-3.3-8.02-3.634-6.908-.796-41.23-1.293-51.212-.142-2.895.333-6.278 1.045-8.02 3.635-.987 1.464-1.095 3.205-1.094 4.918 0 2.485.058 4.97.092 7.455a.743.743 0 0 0 .004.274v.005c.008.616.638.865 1.682.758 11.455-.22 45.1-.1 50.763.097 5.228.182 11.851.064 15.44.224 1.071-.026 1.567-1.366 1.373-1.626M503.313 341.832c-2.341-.176-4.683-.369-7.025-.512-1.712-.104-3.454-.1-4.976.793-2.692 1.583-3.606 4.917-4.115 7.786-1.212 6.847-2.505 21.12-1.962 31.153.159 2.91.663 6.33 3.142 8.225 1.404 1.073 3.133 1.286 4.844 1.39 2.48.148 4.964.242 7.447.358.09.022.183.026.274.013h.005c.615.03.902-.584.858-1.633.474-11.447 1.351-25.064 1.89-30.705.498-5.209.78-11.827 1.159-15.399.038-1.072-1.27-1.648-1.541-1.469"/>
            <path fill="#231F20" d="M480.44 486.378l-4.276-.282 4.519-72.888 4.276.281zM493.285 381.78l-32.86-.158c-8-.038-14.644 6.162-15.159 14.145l-2.098 32.62 4.275.282 1.84-28.574c.531-11.475 6.03-14.26 15.144-14.144l28.835.113.023-4.284zM499.416 428.616l-4.275-.282 5.531-85.345 4.276.282z"/>
            <path fill="#231F20" d="M441.245 485.103c0-1.184.96-2.143 2.143-2.143h39.492a2.142 2.142 0 0 1 0 4.286h-39.492a2.142 2.142 0 0 1-2.143-2.143M449.797 493.137a4.177 4.177 0 1 1-8.355 0 4.177 4.177 0 1 1 8.355 0M484.434 492.995a4.177 4.177 0 1 1-8.355 0 4.177 4.177 0 1 1 8.355 0"/>
            <path fill="#F37368" d="M405.93 361.452a.54.54 0 0 0-.49-.043c-.001.002-.003.002-.005.002.53-.396 2.095-3.24 1.5-2.872-4.481 2.774-12.4 4.17-15.953 4.117-3.827-.058-5.958-.613-7.856.442-1.23.683-4.65 2.722-4.221 4.5.097.405.57.603.907.327.276-.228.556-.469.838-.71.008.305.192.606.716.662.484.051 1.385-.723 2.003-1.052.414-.22 1.006-.243 1.417-.469-.64.952-1.238 2.014-1.92 3.08-.248.388-.007.788.406.877 1.336.291 1.87-.817 2.583-1.79.317-.43.62-.817.925-1.162 1.157-.498 2.389-.962 3.662-.614 1.817.495 4.078.366 4.378-.4 3.1-.043 11.598-2.055 12.14-2.502.04-.03-.54-1.438-.5-1.468.516-.382-.003-1.082-.53-.925"/>
            <path fill="#231F20" d="M422.884 433.038c-.05-.272-.462-.156-.413.113.61 3.35 1.224 6.698 1.835 10.048.049.272.462.155.413-.113l-1.835-10.048zM421.874 437.682c-.043-.271-.456-.156-.413.114l1.231 7.722c.043.271.456.156.413-.114l-1.231-7.722M349.91 478.331c-.712-1.416-1.437-3.338-2.77-4.236-.87-.586-2.25-.7-3.142-1.28-.283-.186-3.803-4.326-4.868-5.773-2.358-3.2-3.49-3.073-5.204-1.67-.423.346 0 1.06.445.732l.032-.023c2.37 2.8 4.89 5.523 6.893 8.604 1.941 2.985 3.666 6.125 5.425 9.224-.15.103-.293.193-.428.267-.485.262-.04.995.444.732.144-.078 1.177-.689 1.138-.8.866-.759 1.49-1.719 2.048-2.805.643-1.253.62-1.713-.014-2.972"/>
            <path fill="#58595B" d="M345.98 480.835c-1.318-2.788-3.05-5.345-4.736-7.906-1.446-2.196-2.848-5.39-4.977-6.958-1.171-.863-1.875-1.515-2.831-.31-1.265 1.594-.346 3.793.39 5.438 2.367 5.3 6.128 9.691 10.326 13.59 1.146 1.065 1.496 1.068 2.254.517 1.499-1.09.207-3.034-.426-4.37"/>
            <path fill="#231F20" d="M426.39 415.17a1751.002 1751.002 0 0 1-71.203 59.007c-.217.17.088.472.303.303a1750.527 1750.527 0 0 0 71.205-59.007c.208-.182-.097-.485-.304-.303"/>
            <path fill="#F37368" d="M412.322 325.534c-.323-.89-1.304-1.586-1.995-2.127-.519-.407-1.488-1.316-2.248-1.13-2.17.534 1.528 4.207 1.71 4.86.088.315-.292 5.329 1.262 3.923.302-.272.42-.752.567-1.12.278-.702.525-1.428.7-2.165.184-.78.271-1.506.004-2.241M403.507 328.73c.007-.002.015-.003.02-.006.58-.25.375-1.15.169-1.778.038-.005.077-.008.113-.018 1.277-.368.14-2.55-.244-3.2-.404-.681-1.681-2.364-2.632-1.61-.524.415-.505 1.126-.286 1.812-.505-.08-.942.147-1.018.822-.108.967.702 1.904 1.33 2.6-.431.02-.8.257-.864.832-.123 1.065 1.166 1.9 1.939 2.36.54.322 2.07 1.105 2.444.18.294-.723-.364-1.552-.971-1.993"/>
            <path fill="#E62E24" d="M464.23 325.444c-1.232-1.487-3.025-2.507-4.587-3.603l-5.74-4.033c.588-1.132-1.127-2.202-1.846-1.07-13.031 20.479-33.449 35.817-56.768 42.577-.712.206-.978.877-.712 1.542.724 1.807 1.45 3.613 2.175 5.419.476 1.185.813 2.816 2.171 3.26 1.26.414 3.031-.098 4.291-.263 2.027-.265 4.04-.62 6.038-1.052 7.618-1.646 14.962-4.4 22.07-7.562 7.063-3.143 14.332-6.43 20.91-10.51 5.893-3.656 10.55-8.804 12.638-15.512.925-2.971 1.512-6.593-.64-9.193"/>
            <path fill="#231F20" d="M436.862 335.208c-.33.166-.663.327-.999.482-5.005 5.58-10.717 10.557-17.72 13.416-.253.103-.142.518.114.414 7.407-3.025 13.381-8.365 18.605-14.312M458.213 343.381c1.742-1.729 3.604-3.412 5.144-5.328 1.46-1.818 2.404-3.97 3.297-6.107.922-2.208 1.689-4.558 1.515-6.982-.212-2.967-1.994-5.305-4.461-6.589.752-1.796 1.315-3.657 1.63-5.582.237-1.446.665-3.35.064-4.766a53.486 53.486 0 0 1 6-2.15c-.087-.123-.176-.245-.265-.368a53.891 53.891 0 0 0-5.986 2.158.232.232 0 0 0-.227.096 53.7 53.7 0 0 0-12.16 7.323c-.055.23-.108.46-.16.69a53.222 53.222 0 0 1 12.403-7.583c.633 1.472.069 3.791-.218 5.242a24.61 24.61 0 0 1-1.465 4.748 9.676 9.676 0 0 0-2.701-.799c-3.103-.44-6.02.404-8.745 1.76-.034.173-.065.347-.1.521 2.198-1.124 4.528-1.92 7.047-1.962a9.912 9.912 0 0 1 4.359.918c.21.111.217.265.332.164 2.458 1.28 4.21 3.631 4.25 6.735.03 2.451-.857 4.777-1.817 6.992-.955 2.204-2.002 4.288-3.621 6.087-2.942 3.267-6.21 6.326-9.431 9.315a100.71 100.71 0 0 1-6.003 5.176c-.042.217-.09.433-.134.65a97.52 97.52 0 0 0 5.87-4.999 196.002 196.002 0 0 0 5.583-5.36"/>
            <path fill="#FFF" d="M310.315 316.502h-5.3l-2.262 4.478-2.26-4.478h-5.298l4.947 9.798v4.613h5.226V326.3zM316.674 326.335a2.63 2.63 0 0 1-2.627-2.628 2.63 2.63 0 0 1 2.627-2.627 2.63 2.63 0 0 1 2.627 2.627 2.63 2.63 0 0 1-2.627 2.628m0-9.995c-4.064 0-7.37 3.304-7.37 7.367 0 4.065 3.306 7.37 7.37 7.37 4.062 0 7.369-3.305 7.369-7.37 0-4.063-3.307-7.367-7.37-7.367M288.835 326.335a2.63 2.63 0 0 1-2.626-2.628 2.63 2.63 0 0 1 2.626-2.627 2.63 2.63 0 0 1 2.627 2.627 2.63 2.63 0 0 1-2.627 2.628m0-9.995c-4.063 0-7.369 3.304-7.369 7.367 0 4.065 3.306 7.37 7.369 7.37 4.062 0 7.369-3.305 7.369-7.37 0-4.063-3.307-7.367-7.369-7.367"/>
            <path fill="#F37368" d="M101.773 471.982c-1.231.125-.804-.151-1.822.676a1.22 1.22 0 0 0-.341.462c-.671-.035-1.332.348-1.34 1.216-.075 7.044-1.108 14.044-.915 21.095.023.9.662 1.613 1.617 1.473 1.742-.255 1.2-.337 2.868-.887.441-.145 1.37-2.815 1.403-3.252.267-3.563.816-15.62.746-19.227-.019-.936-1.266-1.653-2.216-1.556"/>
            <path fill="#231F20" d="M103.755 492.338c-.003-.12-.086-.227-.214-.232-1.852-.083-5.325.042-7.178-.046-.281-.014-.294-.04-.455.71-.171.797-.682 1.847-1.474 2.403-.595.417-4.658 1.278-5.27 1.613-.592.324-.765 1.535-.767 1.572-.042.722-.017.977.468 1.595.478.61 4.86 1.073 5.513 1.098 2.993.113 5.92.195 8.912.043.176-.009.25-.182.215-.31a.23.23 0 0 0 .028-.095c.21-2.715.293-5.629.222-8.35"/>
            <path fill="#58595B" d="M103.309 501.077c.176-.01.25-.181.215-.31a.23.23 0 0 0 .028-.094c.05-.65.093-1.313.128-1.98-1.951-.02-3.901.09-5.854.035-2.1-.058-7.342-.137-9.43-.37-.072.717-.115 1.55.216 1.972.478.61 5.132.68 5.785.704 2.993.113 5.92.195 8.912.043"/>
            <path fill="#F37368" d="M133.839 473.196c-1.232.125-.805-.15-1.823.676a1.234 1.234 0 0 0-.341.463c-.671-.036-1.331.347-1.34 1.215-.074 7.044-1.107 14.044-.915 21.095.025.9.664 1.613 1.618 1.473 1.74-.255 1.199-.337 2.867-.887.443-.145 1.37-2.815 1.404-3.252.266-3.563.815-15.62.746-19.227-.02-.936-1.265-1.653-2.216-1.556"/>
            <path fill="#231F20" d="M135.82 493.552c-.003-.12-.086-.227-.213-.232-1.852-.083-5.326.042-7.178-.046-.28-.014-.295-.04-.456.71-.17.797-.682 1.847-1.474 2.403-.595.417-4.658 1.278-5.27 1.613-.592.324-.765 1.535-.767 1.572-.04.723-.016.977.468 1.595.478.61 4.861 1.073 5.513 1.098 2.993.113 5.921.195 8.912.043.176-.009.25-.182.215-.31a.213.213 0 0 0 .03-.095c.21-2.714.292-5.629.22-8.35"/>
            <path fill="#58595B" d="M135.374 502.291c.176-.009.25-.182.215-.31a.23.23 0 0 0 .03-.095c.05-.65.091-1.312.126-1.979-1.95-.02-3.9.09-5.853.035-2.1-.058-7.343-.138-9.43-.37-.073.717-.116 1.55.216 1.972.477.61 5.132.68 5.784.703 2.993.113 5.921.195 8.912.044"/>
            <path fill="#231F20" d="M55.03 502.315l-4.276-.282 23.101-119.247 4.276.282zM216.439 500.74l4.275-.281-22.619-117.888-4.275.282z"/>
            <path fill="#231F20" d="M48.709 393.708h172.976v-15.997H48.709z"/>
            <path fill="#231F20" d="M124.945 377.836h-53.76a2.356 2.356 0 0 1-2.356-2.356v-40.99a2.356 2.356 0 0 1 2.356-2.357h53.76a2.356 2.356 0 0 1 2.356 2.357v40.99a2.356 2.356 0 0 1-2.356 2.356"/>
            <path fill="#FFF" d="M122.636 372.398H73.65a2.358 2.358 0 0 1-2.358-2.357v-33.142a2.357 2.357 0 0 1 2.358-2.356h48.985a2.356 2.356 0 0 1 2.357 2.356v33.142a2.357 2.357 0 0 1-2.357 2.357M139.57 410.117c-.394-2.454-5.099-15.03-9.039-12.603a1.038 1.038 0 0 0-.425-.032c-9.142 1.076-19.005 2.779-27.177 7.15-7.945 4.249-11.558 11.409-13.124 19.86-1.809 9.758-2.852 19.716-3.84 29.58a529.336 529.336 0 0 0-1.817 23.256c-.107 1.914-.855 4.919-.077 6.753.737 1.737 3.258 2 4.871 2.344 2.665.567 5.384.93 8.106 1.093 5.632.336 11.273-.258 16.73-1.64.462-.117.776-.553.786-1.01l.487-23.908c.142-6.94.107-14.1 2.416-20.75 2.44-7.018 7.898-11.624 13.848-15.867 2.566-1.83 5.584-3.566 7.126-6.387 1.31-2.394 1.552-5.192 1.128-7.84"/>
            <path fill="#FFF" d="M173.564 408.974c-.393-2.454-5.099-15.029-9.038-12.603a1.04 1.04 0 0 0-.425-.032c-9.143 1.076-19.006 2.779-27.178 7.15-7.945 4.249-11.558 11.409-13.124 19.859-1.809 9.759-2.852 19.717-3.84 29.581a532.867 532.867 0 0 0-1.817 23.256c-.106 1.914-.855 4.919-.076 6.753.736 1.737 3.257 2 4.87 2.344 2.665.567 5.383.931 8.106 1.093 5.632.336 11.273-.258 16.73-1.64.462-.117.776-.553.787-1.009.161-7.97.325-15.939.487-23.909.142-6.94.107-14.099 2.416-20.749 2.439-7.019 7.898-11.625 13.848-15.868 2.565-1.83 5.583-3.566 7.125-6.387 1.31-2.394 1.553-5.192 1.129-7.839"/>
            <path fill="#ED2D24" d="M110.192 343.984h-4.565c-.61 1.552-1.156 3.179-1.949 5.394-.793-2.215-1.34-3.842-1.948-5.394h-4.563c.462 3.395 2.49 7.125 4.223 11.97 0 2.283-.163 3.963.04 5.562h4.5c.201-1.6.038-3.28.038-5.561 1.735-4.846 3.762-8.576 4.224-11.971M115.876 355.998c-1.269 0-2.301-1.457-2.301-3.249 0-1.79 1.032-3.248 2.301-3.248 1.27 0 2.303 1.458 2.303 3.248 0 1.792-1.033 3.25-2.303 3.25m-.312-12.148c-3.469 0-6.145 3.874-6.145 8.898 0 5.025 2.676 8.9 6.145 8.9 3.468 0 6.689-4.053 6.689-8.9 0-4.846-3.221-8.898-6.689-8.898M91.483 355.998c-1.27 0-2.302-1.457-2.302-3.249 0-1.79 1.032-3.248 2.302-3.248s2.302 1.458 2.302 3.248c0 1.792-1.032 3.25-2.302 3.25m.311-12.148c-3.468 0-6.688 4.052-6.688 8.898 0 4.847 3.22 8.9 6.689 8.9 3.468 0 6.144-3.875 6.144-8.9 0-5.024-2.676-8.898-6.144-8.898"/>
            <path fill="#F37368" d="M218.142 328.13c-.845-1.196-2.19 1.93-2.402 2.31a412.328 412.328 0 0 0-2.215 4.014c-1.344-1.75-4.553-2.616-6.49-3.283a3.687 3.687 0 0 0-1.622-.62c-1.344-.173-3.625.197-4.312 1.512-.104.198.052.35.228.368.149.146.237.156.524.174.778.046 1.53-.138 2.317.005 1.043.191 1.975.636 2.688 1.33.506.877.64 1.905.238 2.931-.37.946-1.108 1.561-1.933 2.062a.265.265 0 0 0-.064-.078c-1.33-1.104-2.18-2.555-2.85-4.127-.288-.678-.445-2.03-1.27-2.255a.297.297 0 0 0-.338.14.285.285 0 0 0-.133.196c-.267 1.445-.071 3.1.488 4.463.444 1.082 2.397 4.171 2.453 5.032.037.577.137 1.454.563 1.945 0 .037 5.004.748 5.13.315.519-1.768 2.693-4.586 3.39-5.419.56-.67 1.246-1.415 1.506-2.277.934-1.209 1.757-2.499 2.542-3.815.526-.884 1.083-1.778 1.406-2.762.165-.5.51-1.659.156-2.16M156.89 285.536c-2.216-1.57-5.237-3.241-7.37-5.428-.704.366-1.395.78-2.063 1.252-5.881 4.17-6.634 8.258-6.573 15.351.074 8.573-1.068 14.358 5.146 19.036 3.412 2.57 13.6 2.817 17.297-.397 2.652-2.305 4.394-8.679 5.059-11.155.918-3.411 1.304-7.085 1.26-10.575-4.367-2.509-8.646-5.166-12.756-8.084"/>
            <path fill="#F37368" d="M147.252 330.446c1.146 1.148 3.909.39 5.298.308 1.271-.076 1.122.058 2.392-.016.994-.06 2.66.155 3.576-.212 1.352-.543 1.596 1.389 1.922.118 1.252-4.897 1.046-14.492 1.195-19.505.023-.787-.596-1.206-1.206-1.22a1.236 1.236 0 0 0-.355-.104c-4.343-.567-7.234-1.45-10.807-4.17-.703-.536-3.624-3.565-3.651-2.715l1.25 22.394c-.04 1.313-.728 4.005.386 5.122"/>
            <path fill="#231F20" d="M175.031 403.76c-1.194-4.957-2.31-11.365-6.569-13.813-2.513-1.445-5.539-1.734-8.304-2.006-3.267-.323-6.558-.305-9.838-.039-6.71.543-13.332 2.094-19.876 4.015-.232.068-.409.2-.542.367-.303.094-.58.33-.743.754-2.416 6.343-4.84 12.74-6.34 19.468-.708 3.176-1.223 6.42-1.412 9.685-.167 2.857-.254 6.028.895 8.606 2.255 5.061 7.341 6.257 11.787 6.583 6.111.45 12.26.543 18.392.428 3.071-.057 6.143-.172 9.212-.364 2.554-.16 5.132-.384 7.575-1.414 4.887-2.06 7.123-6.68 7.66-12.56.61-6.669-.37-13.364-1.897-19.71"/>
            <path fill="#464FB0" d="M182.565 344.995a30.309 30.309 0 0 0-4.708-12.21c-3.173-4.79-9.792-6.505-14.808-8.362-2.293 1.582-5.799 2.337-8.024 2.416-3.649.128-6.543-.668-8.327-3.459-5.292 1.04-12.072 2.52-16.524 5.243-5.509 3.37-7.285 8.067-9.357 15.125-2.136 7.276-5.896 50.065-4.977 57.59.52 4.26 8.962 8.751 10.926 12.426 3.337 4.558 4.8-6.648 10.717-6.24 5.097.007 9.803-.063 15.886-.47 5.083-.34 10.339-.918 15.22-2.622 3.804-1.33 9.072-5.456 10.54-9.596 1.66-4.684-4.516 6.056-4.177 1.147.427-6.146 8.416-45.613 7.613-50.988"/>
            <path fill="#231F20" d="M129.094 503.418a4.178 4.178 0 1 1-8.354.002 4.178 4.178 0 0 1 8.354-.002M163.73 503.276a4.178 4.178 0 1 1-8.355 0 4.178 4.178 0 0 1 8.356 0M143.951 497.44l-4.275-.281 4.518-72.89 4.277.283z"/>
            <path fill="#231F20" d="M120.541 495.384c0-1.183.96-2.143 2.143-2.143h39.493a2.143 2.143 0 0 1 0 4.286h-39.493a2.143 2.143 0 0 1-2.143-2.143"/>
            <path fill="#58595B" d="M175.25 424.273H126.26c-4.566 0-8.096-4.006-7.52-8.535l4.93-38.826a7.581 7.581 0 0 1 7.52-6.626h48.988c4.566 0 8.095 4.007 7.52 8.536l-4.929 38.826a7.582 7.582 0 0 1-7.52 6.625"/>
            <path fill="#58595B" d="M182.969 437.78c.033-2.347.082-4.695.083-7.043 0-1.714-.104-3.454-1.055-4.918-1.68-2.59-4.943-3.302-7.735-3.636-6.662-.796-54.763-1.293-64.39-.142-2.791.334-6.054 1.045-7.735 3.635-.951 1.464-1.056 3.205-1.055 4.918 0 2.485.057 4.97.089 7.455a.765.765 0 0 0 .005.274v.006c.007.615.614.864 1.622.758 11.048-.221 58.493-.1 63.955.096 5.043.182 11.43.064 14.893.225 1.033-.027 1.51-1.366 1.323-1.627"/>
            <path fill="#58595B" d="M152.18 392.12l-32.86-.156c-8-.04-14.644 6.161-15.158 14.144l-2.1 32.62 4.276.282 1.839-28.573c.532-11.476 6.03-14.26 15.145-14.146l28.835.115.023-4.286z"/>
            <path fill="#464FB0" d="M210.613 346.58c-.162-1.313.323-2.87-1.096-3.373-2.059-.731-3.856-.356-6.213-.356-.593 0-.929.59-.826 1.082 1.018 4.882.521 15.433-6.544 16.177-5.668.597-7.932-4.524-9.984-9.12-3.899-8.736-5.588-19.986-14.053-26.048-.898-.642-1.755.842-.865 1.48a16.44 16.44 0 0 1 3.863 3.906c-2.35.988-5.089 2.288-5.907 4.915-.459 1.47-.094 2.973.305 4.408.644 2.317 1.382 4.613 2.13 6.9 2.406 7.346 4.845 15.365 9.663 21.548 4.011 5.148 10.542 9.002 17.26 7.743 7.24-1.356 11.19-8.438 12.248-15.168.73-4.638.594-9.448.02-14.094"/>
            <path fill="#231F20" d="M183.142 342.416c-.652-5.097-2.893-9.485-4.145-14.47-1.31-5.214-2.777-10.307-3.547-15.64-1.138-7.888-2.162-15.986-4.568-23.59-1.62-5.117-3.196-7.14-9.534-10.14-3.52-1.668-14.854-1.537-19.281 5.141-1.683 4.294-1.998 9.246.844 13.13 1.349 1.843 3.145 3.318 4.578 5.095a17.621 17.621 0 0 1 3.123 5.891c1.515 4.897 1.116 10.101 2.693 15.013.655 2.038 1.488 4.005 2.41 5.933l.008.012c1.5 2.14 3.574 2.798 6.107 2.752 1.43-.026 2.93-.312 4.348 0 1.863.41 2.883 1.832 3.725 3.407 1.234 2.31 2.214 4.57 4.196 6.365 2.032 1.842 5.866 2.327 8.566 2.748 1.073.167.468-.808.477-1.647"/>
            <path fill="#E62E24" d="M200.348 335.477c-1.264.483-2.601.627-3.938.559.473-1.05.763-2.247.936-3.426.59-.17 1.19-.31 1.799-.398.798-.116 2.413-.23 2.782.787.447 1.23-.563 2.09-1.58 2.478m.26-3.742c-1.013-.154-2.123.034-3.192.353.1-.835.145-1.647.16-2.376.016-.327.076-.46-.176-.492l-.017-.004c-.007 0-.011-.003-.016-.004h-.007a.384.384 0 0 0-.131-.001c-3.512-.074-6.983-.146-10.488.074-.293.009-.545.059-.52.345.314 3.407.809 9.49 5.412 9.642 2.279.075 3.699-1.136 4.579-2.828.73.043 1.464.03 2.197-.066 1.35-.177 3.234-.573 3.887-1.95.627-1.321-.365-2.494-1.687-2.693"/>
            <path fill="#F37368" d="M93.062 375.161c-.021-.151-.127-.288-.325-.286-2.582.03-5.49-1.315-7.868-2.235-1.495-.578-3.294-1.291-4.69-.087-.762.656-1.257 1.661-1.94 2.401-.531.575-1.893 1.483-2.056 2.323-.176.911.74 1.11 1.43.908 1.016-.298 2.07-1.41 2.97-1.947.99-.594 1.384-1.04 2.458.385.17.226.207.574.379.813.972 1.355 3.422 1.151 4.836 1.236 1.407.083 2.927.246 4.332.125.524-.045 1.11-.045 1.468-.507.764-.987-.275-2.4-.994-3.129"/>
            <path fill="#464FB0" d="M137.679 336.432c-1.106-2.179-3.076-5.416-5.558-6.381.58-.4 1.177-.787 1.795-1.151.95-.56.089-2.041-.864-1.48-10.262 6.041-14.513 17.355-19.803 27.499-2.667 5.115-4.096 10.194-8.713 13.855-2.625 2.082-8.247 3.174-11.954 3.433-.49.035-.82.367-.857.857l-.61 8.11c-.024.303.15.654.423.74 9.099 2.871 20.514.974 24.902-3.836 4.447-4.874 13.667-22.794 15.599-25.573 1.818-2.612 4.249-4.911 5.699-7.765 1.384-2.731 1.325-5.584-.06-8.308"/>
            <path fill="#F37368" d="M577.515 474.872c-1.187.36-.82.007-1.66 1.014a1.238 1.238 0 0 0-.246.518c-.665.094-1.24.598-1.081 1.451 1.28 6.927 1.61 13.996 3.152 20.878.197.878.96 1.455 1.87 1.135 1.66-.585 1.113-.56 2.645-1.42.406-.228.804-3.027.753-3.462-.423-3.549-2.2-15.485-2.96-19.012-.198-.915-1.56-1.38-2.473-1.102"/>
            <path fill="#231F20" d="M583.392 493.548c-1.68-.182-5.367-.074-7.201-.059-.81.061-1.082.591-1.044.861.302 2.096-1.624 1.976-4.178 3.286-2.176 1.115-4.274 2.066-7.757 3.133-3.1.95-2.79.444-2.796 2.437-.004 1.43 3.192 1.167 5.787.998.409-.027.816-.05 1.22-.07a11.84 11.84 0 0 0 3.576-.756l.627-.24c1.91-.735 3.646-.946 5.689-.924.098.001.222.066.24.174.037.213.048.33.077.544a.74.74 0 0 0 .772.631c.837-.04 1.676-.085 2.523-.14 1.594-.105 3.098-.149 3.336-.555.264-.45.143-.53.128-.982-.04-1.223-.386-8.273-1-8.338"/>
            <path fill="#58595B" d="M576.163 497.22a13.97 13.97 0 0 0-1.654-1.09c-.238-.134-.49.214-.249.35.577.323 1.128.686 1.654 1.09.22.166.47-.183.25-.35m-3.522-.424c-.168-.215-.536.008-.365.226.407.522.777 1.07 1.107 1.643.137.24.502.014.364-.225a14.187 14.187 0 0 0-1.106-1.644m-1.807.94c-.123-.248-.487-.022-.364.224.283.567.577 1.128.881 1.684.133.241.498.015.365-.226a48.942 48.942 0 0 1-.882-1.683M584.38 501.884a16.275 16.275 0 0 0-.126-1.192c-1.937.468-3.911.465-5.896.498-1.96.032-3.845.233-5.755.67-4.048.922-8.022 1.506-12.173 1.396.007.185.017.402.024.665.038 1.428 3.226 1.071 5.814.824a88.7 88.7 0 0 1 1.219-.107 11.923 11.923 0 0 0 3.55-.86l.62-.26c1.887-.792 3.617-1.056 5.66-1.095.097-.002.223.061.245.167.044.212.057.328.092.541a.74.74 0 0 0 .79.607c.836-.064 1.674-.134 2.519-.214 1.59-.153 3.092-.243 3.317-.655.25-.458.127-.534.1-.985"/>
            <path fill="#231F20" d="M590.845 463.968c-.383-3.143-1.774-5.902-2.872-8.828-4.465-11.895 4.85-25.953 1.425-38.09-1.814-6.426-.628-11.638-1.201-18.398-.57-6.699.695-13.36 1.885-19.922 2.058-11.344 3.93-24.175-3.433-34.102-3.248-4.378-7.983-7.425-13.492-7.828-5.508-.404-10.805 1.67-15.094 5.007-.63-.566-1.9-.277-1.803.793l5.329 59.71c.877 9.825 1.665 19.665 2.908 29.452 1.21 9.535 2.813 19.015 4.407 28.491l5.504 32.715c.1.595.479 1.02 1.119 1.021 7.32.036 7.353.262 14.6-.765.622-.088.984-.49 1.023-1.119.195-3.208-.701-6.21-1.173-9.352-.522-3.466-.035-6.856.44-10.296.388-2.8.772-5.665.428-8.489"/>
            <path fill="#F37368" d="M545.035 477.167c-1.227-.178-.744-.342-1.933.214a1.245 1.245 0 0 0-.443.365c-.642-.197-1.375.016-1.595.856-1.778 6.816-4.477 13.357-5.999 20.244-.194.88.252 1.725 1.213 1.821 1.751.175 1.244-.036 2.996-.165.464-.034 2.013-2.399 2.15-2.815 1.122-3.393 4.577-14.957 5.383-18.474.21-.912-.827-1.91-1.772-2.046"/>
            <path fill="#231F20" d="M541.999 495.921c-1.68-.182-5.366-.074-7.2-.059-.811.062-1.083.592-1.044.861.302 2.096-1.625 1.977-4.178 3.286-2.176 1.116-4.274 2.066-7.758 3.134-3.099.95-2.789.443-2.796 2.436-.004 1.43 3.193 1.167 5.787.998.409-.026.816-.05 1.222-.07a11.863 11.863 0 0 0 3.574-.755l.628-.24c1.91-.736 3.646-.947 5.689-.925.097.001.222.067.24.174.037.214.047.33.077.544a.74.74 0 0 0 .772.631c.837-.04 1.675-.084 2.522-.14 1.595-.104 3.099-.148 3.336-.554.265-.45.144-.53.129-.983-.039-1.223-.386-8.272-1-8.338"/>
            <path fill="#58595B" d="M534.771 499.593a14.044 14.044 0 0 0-1.654-1.089c-.238-.134-.49.213-.25.348.579.325 1.13.687 1.656 1.09.218.168.468-.18.248-.349m-3.521-.423c-.168-.215-.535.008-.365.226a13.88 13.88 0 0 1 1.106 1.642c.138.24.504.014.365-.225a14.098 14.098 0 0 0-1.106-1.643m-1.808.938c-.123-.246-.486-.02-.364.225.284.567.577 1.128.882 1.684.132.242.497.015.365-.226a50.795 50.795 0 0 1-.883-1.683M542.987 504.257a15.742 15.742 0 0 0-.125-1.19c-1.937.466-3.912.463-5.897.497-1.959.032-3.844.232-5.755.67-4.048.921-8.02 1.505-12.173 1.395.008.186.018.402.025.665.038 1.43 3.226 1.071 5.814.824.408-.039.814-.074 1.22-.107a11.88 11.88 0 0 0 3.55-.86l.62-.26c1.886-.792 3.616-1.056 5.658-1.094.098-.002.223.06.246.166.043.212.056.33.092.542a.741.741 0 0 0 .79.607c.835-.065 1.673-.134 2.518-.215 1.591-.153 3.093-.242 3.318-.654.25-.458.127-.535.1-.986"/>
            <path fill="#231F20" d="M604.127 331.812c-3.022-1.443-8.389 6.51-11.647 6.784-4.593.386-9.129 1.17-13.61 2.237l.308-1.21c.407-1.606-2.127-2.048-2.531-.454-10.314 40.672-20.629 81.357-32.415 121.633a1534.235 1534.235 0 0 1-10.272 33.71c-.275.865.652 1.515 1.383 1.508l13.193-.125c2.891-.026 4.386-4.318 4.829-5.61.526-1.53 1.249-2.99 2.085-4.371 1.645-2.72 3.757-5.136 5.795-7.563 4.146-4.937 7.769-9.916 8.827-16.43.592-3.635.583-7.333.946-10.993.372-3.767 1.31-7.3 2.93-10.725 2.915-6.168 7.211-11.59 9.889-17.88 3.022-7.101 3.623-14.994 7.095-21.928 1.733-3.463 19.58-31.77 19.095-42.471-.292-6.451 1.08-22.782-5.9-26.112"/>
            <path fill="#58595B" d="M572.648 368.267a267.005 267.005 0 0 1-8.543 23.752c-.104.253.274.454.38.199a268.603 268.603 0 0 0 8.58-23.856c.081-.264-.338-.358-.418-.095M605.76 347.985a49.335 49.335 0 0 1-1.463 6.329c-.004-.001-.008-.003-.013-.003-2.92.02-6.05-.258-8.611-1.794-2.9-1.74-4.125-4.838-5.112-7.914-.084-.263-.492-.131-.407.133.986 3.073 2.215 6.187 5.052 7.996 2.639 1.684 5.898 2.019 8.96 2.007-1.757 5.727-4.393 11.178-7.091 16.529-4.067 8.07-8.157 16.129-12.236 24.194l-6.925 13.69c-.125.247.255.446.379.2l12.504-24.72c3.923-7.756 8.168-15.437 11.506-23.47 1.75-4.213 3.156-8.568 3.876-13.081.043-.272-.374-.368-.418-.096M587.331 408.42c-5.125 4.144-5.539 11.117-6.02 17.188-.3 3.81-.82 7.54-2.522 11.007-1.4 2.857-3.282 5.438-4.969 8.125-1.802 2.873-3.372 5.913-3.795 9.32-.034.271.384.368.418.094.763-6.146 5.174-10.829 8.058-16.06 1.582-2.869 2.495-5.889 2.91-9.138.443-3.478.443-7.01 1.088-10.465.683-3.658 2.097-7.312 5.064-9.713.212-.17-.017-.533-.232-.359M575.752 417.238c-1.342-1.151-2.683-2.304-4.024-3.456-.209-.18-.498.137-.289.316l4.024 3.456c.209.18.499-.135.289-.316M575.266 420.911a45.426 45.426 0 0 0-3.525-3.55c-.205-.185-.495.132-.29.317a45.413 45.413 0 0 1 3.526 3.55c.183.205.47-.113.289-.317M570.977 427.633a235.353 235.353 0 0 1-14.603 37.878 239.268 239.268 0 0 1-5.286 10.167c-.132.242.247.441.38.2a235.855 235.855 0 0 0 16.416-37.035 237.897 237.897 0 0 0 3.511-11.115c.077-.266-.341-.359-.418-.095"/>
            <path fill="#F37368" d="M593.606 221.42c-4.938-3.174-12.436-4.178-18.168-1.819a1.45 1.45 0 0 1-.463.69c-2.036 1.711-1.14 2.278-2.952 4.25a1.37 1.37 0 0 1-.873.443c-1.267 5.394-1.127 13 .948 19.532.778 2.442 2.807 8.731 5.56 10.915 3.837 3.043 8.824 1.887 12.058-.904 5.76-4.972 9.246-11.076 9.519-18.732.25-7.089.434-10.477-5.63-14.376"/>
            <path fill="#F37368" d="M598.924 257.93l-3.741-22.115c-.214-.824-2.392 2.777-2.96 3.456-2.88 3.443-5.504 4.944-9.613 6.46-.126.046-.23.11-.324.18-.591.15-1.102.695-.905 1.457 1.255 4.855 3.18 14.256 5.486 18.755.599 1.167.408-.77 1.848-.54.975.155 2.552-.424 3.532-.586 1.256-.209 1.08-.306 2.337-.514 1.372-.229 4.236-.1 5.099-1.474.839-1.336-.43-3.809-.76-5.08"/>
            <path fill="#FFF" d="M585.644 248.17c-3.97 1.838-7.784.426-7.996.517-.088.037-.176.117-.148.212.513 1.744 2.617 2.56 4.193 2.506 1.642-.056 3.84-1.228 4.225-2.984.033-.148-.114-.326-.274-.252"/>
            <path fill="#231F20" d="M603.23 227.114c-.34-2.438-1.06-4.882-2.816-6.682-1.87-1.917-4.43-2.83-6.99-3.403-2.651-2.303-6.873-3.25-10.174-2.741-3.437.529-6.554 2.166-9.32 4.22-1.733 1.288-3.945 2.767-4.8 4.83-.001.003-.005.005-.006.005l-.065.129c-1.404 2.97-.75 6.682.69 9.059.13.213.246.363.433.41.198.05.418.036.606-.147 1.621-1.576 4.173-.402 6.269-1.088 1.207-.396 2.322-.84 3.61-.873 1.056-.028 2.083.219 3.141.07 3.337-.468 5.55-3.121 6.298-6.217a45.754 45.754 0 0 1-.11 3.113c-.083 1.203.74 4.448 1.404 5.509 1.446 2.313 4.337 1.037 4.507 6.356.09 2.812-.633 4.866.035 6.587.116.3.494.399.725.156 1.468-1.551 2.543-3.638 3.43-5.784 1.168-1.461 1.913-3.564 2.412-5.142a19.184 19.184 0 0 0 .72-8.367"/>
            <path fill="#E62E24" d="M582.05 264.666c1.23 1.9 2.258 4.32 2.91 6.875 4.094-1.26 8.27-2.289 12.326-3.65a22.436 22.436 0 0 1 6.5-6.457l.42-.2a29.134 29.134 0 0 0-1.276-.37c-.06-.177-1.215-2.969-1.935-4.08-.414-.639-.997-1.89-1.94-1.7-.534.107-1.066.474-1.55.707-.746.36-1.49.724-2.232 1.09-1.356.666-2.752 1.26-4.051 2.03-3.385 2.005-3.5 1.57-5.374.776-.666-.28-1.138-.482-1.64.178-.625.822-.987 2.004-1.241 3.073-.55.242-1.09.481-1.622.72.247.333.485.67.705 1.008"/>
            <path fill="#231F20" d="M590.903 263.422c-.909-.8-1.698-1.642-2.612-2.438-.239-.23-.42-.195-.53-.007-.62 1.06-1.347 2.11-1.875 3.218-.338.714-.296 1.328.087 2.024.481.871 1.197 1.664 1.892 2.37.417.425.761.976 1.37.7 1.184-.538 2.54-2.835 2.687-4.078.093-.796-.469-1.305-1.019-1.789"/>
            <path fill="#464FB0" d="M609.749 263.747c-2.098-1.339-4.397-2.289-6.794-2.91-.06-.179-4.05 2.67-6.42 4.071-2.801 1.657-6.193 2.498-9.395 1.63-2.007-.546-3.772-1.67-5.019-3.242-8.342 3.701-14.682 7.063-19.274 15.096-7.06 12.345-6.037 16.433-8.127 35.253-.852 7.67-3.719 28.54-3.244 30.377.465 1.805.764 3.936 1.624 5.6 1.328 2.575 5.311 1.703 7.603 1.372 3.945-.568 7.807-1.63 11.731-2.329 7.928-1.41 26.992-4.036 34.989-4.662 6.746-.528 4.487-4.426 6.772-11.459.212-.65 3.183-17.799 4.882-33.092 1.376-12.384 2.756-27.988-9.328-35.705"/>
            <path fill="#231F20" d="M507.386 275.582c.665 6.863 5.014 33.91 5.156 35.777.077 1.011-.138 2.337.565 3.146.149.172 46.674 1.147 50.619.996 1.002.074 1.665-.136 1.592-.744-1.52-12.55-3.015-25.992-4.1-38.38-.017-.19-.13-.496-.243-.6-.09-.2-.567-.202-.85-.213-18.22-.66-33.843-.836-52.074-.624-.32.004-.7.283-.665.642"/>
            <path fill="#FFF" d="M534.783 292.413c-3.584-.065-3.692 5.503-.103 5.57 3.584.065 3.693-5.505.103-5.57"/>
            <path fill="#231F20" d="M584.781 315.186c.006-.376-.284-.61-.63-.655a314.775 314.775 0 0 0-37.447-2.66 310.664 310.664 0 0 0-27.83.947c-1.374.108-3.159-.02-4.499.366.036-.214.075-.42.107-.604.143-.807-1.089-1.18-1.232-.365-.273 1.542-.514 3.478.677 4.716.668.697 1.54.822 2.461.9 1.685.145 3.383.198 5.072.288 6.903.368 13.812.64 20.723.818 13.964.358 27.936.32 41.898-.088.346-.01.65-.27.654-.631l.046-3.032"/>
            <path fill="#F37368" d="M546.793 321.8c-.133-.226-.375-.397-.543-.592a9.426 9.426 0 0 1-.409-.505c-.518-1.877-.439-3.869-.528-5.82-.062-1.327-.012-3.986-1.499-4.61-.097-.042-.243-.026-.289.09-.245.611-.175 1.216-.154 1.868.033 1.006.068 2.014.128 3.021.022.36.049.717.083 1.074-.406-.469-.838-.922-1.255-1.364-.315-.334-.754-.934-1.199-1.306a30.662 30.662 0 0 1-2.475-3.608c-.569-.976-1.089-1.987-1.624-2.983-.43-.806-.457-1.687-1.182-1.744-1.541-.12.487 3.846.736 4.4a26.502 26.502 0 0 0 2.433 4.273c-.13.112-.253.217-.373.317-1.672-1.788-2.843-3.92-3.97-6.088-.213-.41-2.127-3.332-2.565-2.29-.336.797.396 2.03.688 2.775a31.209 31.209 0 0 0 3.863 7.02c-.118.085-.233.172-.347.26-1.253-1.744-2.315-3.578-3.376-5.454-.192-.339-2.436-3.95-2.914-2.652-.076.207 2.635 5.174 4.75 8.662.468.772.05.588-.181.37-.285-.339-3.537-5.497-4.222-5.124-.597.324 1.274 3.973 2.617 5.46 1.362 1.504 2.446 3.143 3.998 4.455.968.871 2.032 1.688 3.198 2.08 1.706.574 3.547.396 5.239 1.052.208.081.383-.04.452-.199a.384.384 0 0 0 .098-.112c.58-1.02 1.637-1.342.822-2.727"/>
            <path fill="#464FB0" d="M611.747 283.316c-1.737-1.138-3.969-1.636-5.922-2.242-2.55-.792-5.12-1.512-7.705-2.18-.48-.123-.77.276-.76.66-.332-.237-.902-.174-1.03.346-2.936 11.872-6.043 24.307-14.185 33.817-3.79 4.428-8.849 8.483-14.655 9.757-6.664 1.463-12.969-1.97-18.594-5.113-.323-.18-.683-.016-.868.27a64.395 64.395 0 0 0-5.245 9.89c-.146.346-.04.663.27.868 6.876 4.543 14.725 7.518 22.91 8.549 8 1.007 16.39.427 23.322-4.032 6.31-4.06 10.878-10.37 14.476-16.837A92.105 92.105 0 0 0 613 293.028c.756-3.281 2.161-7.477-1.252-9.712"/>
            <path fill="#231F20" d="M617.873 291.335c-2.581 10.134-7.106 19.885-13.958 27.85-6.901 8.023-16.17 13.891-26.585 16.046-5.92 1.224-12.064 1.164-17.92-.373-.267-.07-.361.348-.095.418 10.376 2.723 21.483.757 30.829-4.309 9.442-5.118 16.777-13.413 21.778-22.829 2.805-5.282 4.894-10.918 6.369-16.708.068-.268-.35-.363-.418-.095M604.686 266.26c-.219-.165-.51.15-.288.316 2.785 2.098 4.665 5.137 5.261 8.58.047.266.475.25.428-.02-.615-3.553-2.518-6.705-5.401-8.876M609.054 278.227c-4.272 1.165-7.4 4.726-9.934 8.166-2.814 3.822-5.025 8.037-7.22 12.233-.128.246.252.445.38.2 2.119-4.052 4.248-8.128 6.935-11.84 2.527-3.491 5.654-7.174 9.972-8.352.265-.072.133-.48-.133-.407"/>
            <path fill="#231F20" d="M587.475 316.01l-2.67-3.022c-.182-.207-.47.112-.288.316.89 1.008 1.779 2.016 2.669 3.022.183.207.47-.11.289-.316M584.229 315.592c-.098-.257-.506-.127-.409.133.418 1.108.736 2.24.96 3.402.052.271.459.136.407-.132a20.698 20.698 0 0 0-.958-3.403M571.71 320.519c-3.615 1.493-7.411 3.003-11.398 2.433-.272-.04-.37.379-.095.418 4.073.583 7.927-.915 11.627-2.444.253-.104.123-.513-.133-.407"/>
            <path fill="#F2F2F2" d="M603.84 53.496c1.655-4.57-3.105-9.95-8.524-9.632-4.9.288-9.698 4.28-14.104 2.366-2.94-1.277-3.84-4.517-4.601-7.333-.76-2.815-2.21-6.042-5.4-6.7-2.338-.48-4.658.65-6.835 1.543-2.177.894-4.925 1.529-6.832.24-1.571-1.06-1.916-3.067-1.541-4.784.374-1.716 1.319-3.291 1.87-4.97 2.119-6.458-2.788-14.033-10.162-15.69-7.375-1.655-15.78 2.93-17.407 9.498-.663 2.675-.322 5.457-.547 8.188-.225 2.73-1.188 5.647-3.707 7.242-3.894 2.463-10.476 1.196-12.875 4.857-1.056 1.612-.807 3.63-.318 5.442.487 1.81 1.185 3.643.923 5.49-.262 1.848-1.884 3.723-3.991 3.67-1.342.074-2.864 1.084-2.945 2.27-.081 1.186.95 2.353 2.273 2.57l29.528.338c18.39 0 36.804-.351 55.195-.164 2.104.022 4.285.03 6.206-.73 1.92-.76 3.508-2.518 3.199-4.356M97.042 130.621c1.655-4.57-3.105-9.95-8.523-9.632-4.9.287-9.698 4.28-14.105 2.365-2.939-1.276-3.84-4.516-4.6-7.332-.76-2.816-2.21-6.043-5.4-6.7-2.338-.48-4.659.65-6.836 1.543-2.177.894-4.925 1.529-6.832.24-1.57-1.06-1.916-3.068-1.54-4.785.373-1.715 1.32-3.29 1.87-4.97 2.118-6.457-2.788-14.032-10.163-15.688-7.374-1.657-15.778 2.93-17.406 9.496-.663 2.675-.323 5.457-.548 8.189-.225 2.73-1.188 5.647-3.707 7.242-3.894 2.463-10.475 1.195-12.875 4.856-1.056 1.613-.806 3.63-.318 5.443.487 1.81 1.186 3.642.923 5.49-.26 1.847-1.884 3.722-3.99 3.67-1.343.074-2.865 1.084-2.946 2.27-.08 1.185.952 2.352 2.274 2.57l29.527.337c18.392 0 36.805-.35 55.196-.164 2.103.022 4.285.03 6.206-.73 1.92-.76 3.507-2.518 3.198-4.356M613.564 101.76l-38.322.282c-.866-1.054-1.1-2.594-.582-3.857.519-1.264 2.389-2.106 3.747-2.247 1.816.63 3.697-.962 4.5-2.709.803-1.747 1.011-3.753 2.025-5.386 1.163-1.873 3.38-3.04 5.582-2.94 2.202.097 4.303 1.46 5.294 3.428.586 1.164.808 2.512 1.572 3.568 1.46 2.018 4.361 2.3 6.83 1.96 2.466-.344 4.978-1.12 7.4-.534 2.42.59 4.543 3.344 3.346 5.528 0 0 2.21 2.906-1.392 2.906"/>
        </g>
    </g>
</svg>