<svg xmlns="http://www.w3.org/2000/svg" xmlns:xlink="http://www.w3.org/1999/xlink" width="666" height="484" viewBox="0 0 666 484">
    <defs>
        <path id="a" d="M.576 241.846c0 133.218 107.995 241.213 241.213 241.213s241.212-107.995 241.212-241.213S375.007.635 241.789.635.576 108.628.576 241.846"/>
        <path id="c" d="M.576 241.846c0 133.218 107.995 241.213 241.213 241.213s241.212-107.995 241.212-241.213S375.007.635 241.789.635.576 108.628.576 241.846"/>
        <path id="e" d="M.576 241.846c0 133.218 107.995 241.213 241.213 241.213s241.212-107.995 241.212-241.213S375.007.635 241.789.635.576 108.628.576 241.846"/>
        <path id="g" d="M.576 241.846c0 133.218 107.995 241.213 241.213 241.213s241.212-107.995 241.212-241.213S375.007.635 241.789.635.576 108.628.576 241.846"/>
        <path id="i" d="M.576 241.846c0 133.218 107.995 241.213 241.213 241.213s241.212-107.995 241.212-241.213S375.007.635 241.789.635.576 108.628.576 241.846"/>
        <path id="k" d="M.576 241.846c0 133.218 107.995 241.213 241.213 241.213s241.212-107.995 241.212-241.213S375.007.635 241.789.635.576 108.628.576 241.846"/>
        <linearGradient id="m" x1="50%" x2="50%" y1="-6.9%" y2="115.326%">
            <stop offset="0%" stop-color="#FFF"/>
            <stop offset="100%" stop-color="#E2E2E2"/>
        </linearGradient>
    </defs>
    <g fill="none" fill-rule="evenodd">
        <g transform="translate(54)">
            <mask id="b" fill="#fff">
                <use xlink:href="#a"/>
            </mask>
            <path fill="#FBD23C" d="M483.001 241.846c0 133.218-107.994 241.213-241.212 241.213S.576 375.064.576 241.846 108.571.634 241.789.634s241.212 107.994 241.212 241.212" mask="url(#b)"/>
        </g>
        <g transform="translate(54)">
            <mask id="d" fill="#fff">
                <use xlink:href="#c"/>
            </mask>
            <path fill="#FFECC5" d="M-48.326 152.19c26.133-7.565 35.389-40.718 58.247-55.472 15.206-9.814 35.115-10.544 49.748-21.194 8.443-6.146 15.447-15.673 25.817-16.908 14.002-1.67 24.719 13.229 26.828 27.173 2.108 13.943-.885 28.425 2.354 42.15 2.79 11.825 9.977 22.109 14.163 33.515 4.186 11.405 4.608 25.828-4.32 34.068-5.608 5.178-13.63 6.726-20.108 10.76-13.171 8.203-17.924 25.514-16.64 40.978 1.286 15.464 7.359 30.07 11.082 45.134 1.932 7.816.515 19.384-7.535 19.456-3.356.03-6.221-2.28-8.767-4.467l-31.424-26.994c-5.672-4.873-11.56-9.868-18.7-12.092-15.976-4.975-32.988 5.149-49.633 3.43-19.51-2.013-34.12-20.37-38.278-39.537-4.158-19.167-.172-39.054 3.81-58.258l5.894-28.425" mask="url(#d)"/>
        </g>
        <g transform="translate(54)">
            <mask id="f" fill="#fff">
                <use xlink:href="#e"/>
            </mask>
            <path fill="#FFECC5" d="M420.44-.118c-11.907-5.096-24.178 6.391-30.94 17.437-6.764 11.045-14.373 24.413-27.288 25.407-5.101.392-10.108-1.36-15.204-1.834-20.11-1.869-36.308 15.568-55.22 22.657-10.748 4.028-22.7 4.754-32.805 10.197-10.105 5.444-17.748 18.64-11.668 28.374 7.907 12.667 29.843 7.513 39.29 19.078 5.142 6.296 4.79 15.607 9.26 22.398 5.887 8.941 20.34 10.433 27.928 2.883 5.666-5.637 8.421-15.45 16.317-16.688 9.399-1.473 14.55 10.354 16.805 19.596 2.255 9.243 9.085 20.735 18.044 17.534 4.474-1.599 6.827-6.368 8.885-10.65 6.236-12.977 18.288-27.26 32.069-23.09 16.935 5.125 15.411 30.906 28.293 43.037 11.62 10.943 32.582 5.974 41.418-7.319 8.837-13.293 7.273-31.424.131-45.7-5.043-10.08-12.59-18.9-16.377-29.515-5.755-16.14-2.435-35.33-11.921-49.599-10.86-16.33-36.825-23.853-37.014-43.465" mask="url(#f)"/>
        </g>
        <g transform="translate(54)">
            <mask id="h" fill="#fff">
                <use xlink:href="#g"/>
            </mask>
            <path fill="#FFECC5" d="M273.722 174.045c-3.46 14.66 7.891 26.551 18.886 36.846 10.995 10.296 24.57 17.48 35.806 27.51 12.853 11.476 22.391 26.623 27.187 43.173 4.381 15.123 5.04 31.706 13.392 45.053 11.256 17.986 36.5 25.61 55.83 16.86.805-.364 1.622-.769 2.21-1.43 2.463-2.782-.709-6.856-3.439-9.374-3.817-3.52-7.306-7.77-8.293-12.867-3.253-16.794 20.803-27.937 21.352-45.035.5-15.557-17.78-24.274-25.34-37.88-3.276-5.896-4.473-12.724-7.323-18.838-6.529-14.009-22.32-23.107-37.716-21.728-9.63.862-19.448 5.364-28.599 2.24-11.25-3.84-16.535-17.637-27.586-22.012-11.424-4.523-25.162 2.522-36.367-2.518" mask="url(#h)"/>
        </g>
        <g transform="translate(54)">
            <mask id="j" fill="#fff">
                <use xlink:href="#i"/>
            </mask>
            <path fill="#FFECC5" d="M158.713 277.016c-13.583.433-17.545 12.89-22.95 25.358-5.407 12.469-5.929 26.428-6.37 40.011-.083 2.549-.13 5.245 1.13 7.461 1.285 2.262 3.721 3.619 6.165 4.511 17.045 6.215 35.745-5.443 53.746-3.176 6.862.864 13.328 3.733 20.151 4.869 6.822 1.136 14.73.079 19.035-5.333 4.683-5.886 3.356-14.517.561-21.501-2.794-6.983-6.873-13.754-7.063-21.273-.156-6.157 2.346-12.365.947-18.364-2.397-10.27-14.978-14.728-25.477-13.745-10.499.984-20.49 5.545-31.03 5.87-3.653.113-8.24-1.084-8.845-4.688" mask="url(#j)"/>
        </g>
        <g transform="translate(54)">
            <mask id="l" fill="#fff">
                <use xlink:href="#k"/>
            </mask>
            <path fill="#FFECC5" d="M438.857 213.675c1.62 7.497 4.322 11.115 8.373 17.628 3.641 5.852 11.151 11.63 16.705 7.548 1.665-1.224 2.69-3.11 3.661-4.935l8.12-15.255c1.09-2.046 2.2-4.162 2.408-6.47.516-5.758-4.977-10.643-10.68-11.594-5.702-.95-11.449.968-16.913 2.858-5.59 1.936-12.339 5.593-11.638 11.466" mask="url(#l)"/>
        </g>
        <path fill="#E66E61" d="M2.435 258.041h266.802V57.937H2.435v200.104zM.24 260.236h271.191V55.743H.24v204.493z"/>
        <g>
            <path fill="#A3A1A1" d="M227.96 481.79h-4.132l14.463-122.253h10.744z"/>
            <path fill="#A3A1A1" d="M242.673 396.439l6.361-36.901H238.29l-3.046 25.745c1.68 3.983 4.344 7.728 7.43 11.156M368.975 481.79h4.133l-14.463-122.253H347.9z"/>
            <path fill="#A3A1A1" d="M363.6 401.43l-4.955-41.893H347.9l5.586 32.408c2.86 3.576 6.308 6.74 10.114 9.484"/>
            <path fill="#DEDFE0" d="M223.102 316.777h133.799V213.295H223.102z"/>
            <g>
                <path fill="#DEDFE0" d="M356.901 318.258c0 36.948-29.952 66.9-66.9 66.9-36.947 0-66.899-29.952-66.899-66.9 0-36.947 29.952-66.899 66.9-66.899 36.947 0 66.9 29.952 66.9 66.9"/>
                <path fill="#DEDFE0" d="M290.002 385.08h43.475c-16.882-.773-32.122-7.81-43.475-18.831v18.83zM336.589 385.159a68.36 68.36 0 0 0 3.113-.08h-6.225c1.032.048 2.068.08 3.112.08"/>
                <path fill="#DEDFE0" d="M290.002 285.34v80.908c11.353 11.023 26.593 18.058 43.475 18.831h6.225c35.502-1.627 63.787-30.917 63.787-66.82a66.562 66.562 0 0 0-8.667-32.919h-104.82z"/>
                <path fill="#BCBEC0" d="M236.431 316.777h107.141v-92.933H236.431z"/>
                <path fill="#BCBEC0" d="M359.651 367.322h-58.648V294.9h84.121c14.217 23.358-2.074 61.609-25.473 72.42"/>
                <path fill="#BCBEC0" d="M343.572 267.315c-11.199-7.02-25.133-11.186-40.24-11.186-36.949 0-66.9 24.892-66.9 55.597 0 30.705 29.951 55.596 66.9 55.596 15.107 0 29.041-4.165 40.24-11.185v-88.822z"/>
                <path fill="#DEDFE0" d="M268.971 318.18a66.568 66.568 0 0 1 8.625-32.84h-45.312v52.51l5.628 19.55 16.883 3.553 19.55 2.103 15.657 3.192c-13.385-8.589-21.03-30.794-21.03-48.068"/>
                <path fill="#BDBCBC" d="M255.67 481.79h-4.131l14.463-122.253c5.662 0 10.004 5.027 9.18 10.63L255.672 481.79zM396.685 481.79h4.133l-14.462-122.253c-5.663 0-10.005 5.027-9.183 10.63l19.512 111.623z"/>
                <path fill="#BDBCBC" d="M381.763 396.42c3.02 2.972 6.364 5.56 9.896 7.946l-5.303-44.829c-5.663 0-10.005 5.028-9.182 10.63l4.589 26.252zM269.446 402.984l5.736-32.816c.824-5.603-3.518-10.63-9.18-10.63l-4.017 33.955c1.897 3.545 4.494 6.676 7.461 9.49"/>
                <path fill="#231F20" d="M328.668 472.53s-16.928-72.352-16.928-102.835c0-30.482 19.2-29.56 24.685-17.242 5.487 12.316 1.88 119.885 1.88 119.885l-9.637.192z"/>
                <path fill="#231F20" d="M269.218 323.667s2.453 37.657 20.03 41.836c17.577 4.18 72.322 1.818 72.322 1.818l11.538-23.759-8.521-2.052-34.723-.485-5.894-18.553-54.752 1.195z"/>
                <path fill="#E62E24" d="M277.597 285.34H251.42c4.532-14.778 22.58-59.045 30.262-63.494 7.68-4.45 25.2-5.172 31.557 1.025 5.329 5.196 10.41 18.35 10.752 25.784 1.612 35.19.293 42.013 3.657 80.003-25.54 1.488-48.098-2.104-58.21-2.559 0 0-1.507-11.007 1.203-23.225 2.396-10.798 6.955-17.534 6.955-17.534"/>
                <path fill="#E9E9E9" d="M306.77 328.968l-4.26-92.02 2.192-.1 4.26 92.017z"/>
                <path fill="#464FB0" d="M197.095 481.79h-4.132l14.463-170.249h10.744zM100.292 311.541h437.646v-14.05H100.292zM110.623 481.79h-4.132l14.463-170.249h10.744zM527.264 481.79h4.132l-14.463-170.249h-10.744zM440.791 481.79h4.132L430.46 311.541h-10.744z"/>
                <path fill="#464FB0" d="M203.767 297.492H100.292v14.05h95.367c2.458-4.86 5.055-9.63 8.108-14.05M239.936 297.492c-3.046 4.49-5.745 9.207-8.234 14.05h38.377c2.146-4.683 4.303-9.361 6.527-14.007.007-.015.015-.028.021-.043h-36.691z"/>
                <path fill="#E66E61" d="M297.477 202.682l-7.644 18.434 13.87 12.933 4.163-11.145-5.791-16.851z"/>
                <path fill="#E66E61" d="M304.067 179.153c6.567-1.317 12.925 2.078 13.914 8.007.71 4.262.288 11.29-.186 15.572-.378 3.402-.487 7.077-2.04 10.21-1.295 2.619-3.792 5.202-6.834 5.709-3.154.525-5.128-.935-7.417-2.961-5.318-4.71-6.928-10.1-7.478-17.31-.61-7.992-.617-18.693 10.04-19.227"/>
                <path fill="#E62E24" d="M315.409 225.394s31.825 35.509 39.947 56.687c2.419 6.308-1.385 10.647-7.59 10.97-11.375.595-36.026-35.71-36.026-35.71l3.669-31.947z"/>
                <path fill="#E62E24" d="M366.433 285.657c.555 1.462-5.978 6.79-7.42 7.396-1.443.603-2.614.193-4.16.432-1.766.274-3.563.547-5.333.298-1.77-.25-3.541-1.102-4.477-2.623-1.234-2.008-1.897-5.41-.715-7.45 1.992-3.438 6.422-8.604 8.637-6.988 4.47 3.263 12.028 5.143 13.468 8.935"/>
                <path fill="#E66E61" d="M351.965 292.007c-.015.358.008.762.272 1.004.404.37 1.068.106 1.462-.273.395-.378.725-.88 1.25-1.033.825-.239 1.583.49 2.139 1.143.556.653 1.338 1.368 2.15 1.097.735-.243.984-1.123 1.339-1.809.356-.687 1.315-1.285 1.835-.713.266.291.243.734.344 1.116.319 1.207 1.984 1.65 3.076 1.043 1.092-.604 1.635-1.895 1.77-3.137.322-2.94-1.396-5.997-4.077-7.249-6.1-2.849-11.335 3.145-11.56 8.811"/>
                <path fill="#E62E24" d="M277.747 227.938c11.912-1.95-.914 69.554-.914 69.554l-9.412-.48c-11.13-4.89-10.757-5.855-9.073-13.027 4.153-17.7 12.304-54.886 19.4-56.047"/>
                <path fill="#E66E61" d="M308.789 290.807c5.814-.402 11.972-1.179 17.208 1.382.297.145.609.305.939.282.33-.023.665-.318.595-.642-.041-.19-.202-.328-.353-.45l-3.14-2.535c.914-.14 1.813.341 2.51.944.698.604 1.276 1.343 2.017 1.892.743.548 1.736.888 2.592.544.856-.344 1.319-1.583.675-2.244l1.667 1.075c.765.493 1.559.998 2.457 1.144.899.145 1.937-.165 2.37-.965.554-1.027-.09-2.283-.831-3.182-3.162-3.821-8.25-5.605-13.2-5.914-4.948-.309-9.874.676-14.766 1.486-4.892.811-9.924 1.451-14.784.464-1.204-.244-2.395-.588-3.622-.65-1.227-.063-2.528.192-3.448 1.006-1.202 1.062-1.472 2.8-1.385 4.327.104 1.81 1.655 1.621 3.139 1.765a116.698 116.698 0 0 0 19.36.271"/>
                <path fill="#E62E24" d="M258.348 286.728c-1.625 4.874-.023 7.229 4.023 9.966 4.045 2.736 40.046-2.867 40.046-2.867V283.71s-40.493-7.712-44.07 3.018"/>
                <path fill="#808285" d="M287.34 297.41h-14.812l-2.194-24.522h19.2z"/>
            </g>
            <g>
                <path fill="#F5877D" d="M332.26 475.829l.671 5.962h27.388s.702-2.089-1.747-3.596c-2.448-1.507-26.312-2.366-26.312-2.366M396.993 475.829l.67 5.962h27.39s.701-2.089-1.748-3.596c-2.449-1.507-26.312-2.366-26.312-2.366"/>
                <path fill="#231F20" d="M394.426 472.53s-31.35-76.194-37.735-107.615c-6.386-31.421 19.38-27.01 24.699-11.202 7.27 21.61 23.243 118.817 23.243 118.817h-10.207z"/>
                <path fill="#F5877D" d="M144.517 297.492h18.651v-54.376h-18.651z"/>
                <path fill="#FFF" d="M148.814 278.467h10.058v-29.669h-10.058z"/>
                <path fill="#231F20" d="M150.643 287.23a3.2 3.2 0 1 1 6.399.001 3.2 3.2 0 0 1-6.4-.001"/>
                <path fill="#808285" d="M163.168 297.492h18.652v-54.376h-18.652z"/>
                <path fill="#FFF" d="M167.465 278.467h10.058v-29.669h-10.058z"/>
                <path fill="#231F20" d="M169.294 287.23a3.2 3.2 0 1 1 6.4.001 3.2 3.2 0 0 1-6.4-.001"/>
                <path fill="#E62E24" d="M125.865 297.492h18.652v-54.376h-18.652z"/>
                <path fill="#FFF" d="M130.162 278.467h10.058v-29.669h-10.058z"/>
                <path fill="#231F20" d="M131.99 287.23a3.2 3.2 0 1 1 6.4.001 3.2 3.2 0 0 1-6.4-.001"/>
                <path fill="#464FB0" d="M185.631 128.203h27.556v-27.556h-27.556zM210.282 171.584h-27.556c-2.083-14.997-1.7-27.64-1.7-27.64h27.554s.092 11.254 1.702 27.64"/>
                <path fill="#FFF" d="M149.542 189.692h25.362V164.33h-25.362v25.362zm-2.194 2.195h29.751v-29.751h-29.751v29.751z"/>
                <path fill="url(#m)" d="M195.261 110.926h24.106v-20.15h-24.106z" transform="translate(11 27)"/>
                <path fill="#464FB0" d="M238.904 139.844h-27.556c-7.094-15.56-4.697-27.68-4.697-27.68h27.556s-1.768 9.511 4.697 27.68"/>
                <path fill="#231F20" d="M291.488 198.814c-.827-4.24-.8-11.363.686-13.931 2.197-3.794 6.053-6.106 10.277-6.832 4.992-.856 9.115-1.212 12.965-4.587 2.111-1.85 5.615-4.04 8.58-3.026 4.862 1.66 5.327 12.855 2.613 16.398-3.117 4.066-11.566 8.562-16.889 7.477-4.103-.836-8.384-2.336-11.45-5.474-1.342 3.958 2.561 10.49.605 14.366-2.626 5.2-6.153 1.943-7.387-4.391"/>
                <path fill="#F5877D" d="M112.879 150.223h54.572V79.639h-54.572z"/>
                <path fill="#DDB01F" d="M29.367 232.968h75.283v-97.373H29.367z"/>
                <path fill="#E62E24" d="M117.2 85.559a1.098 1.098 0 1 0 2.195 0 1.098 1.098 0 0 0-2.196 0M161.126 85.559a1.098 1.098 0 1 0 2.196 0 1.098 1.098 0 0 0-2.196 0"/>
                <path fill="#F5877D" d="M35.196 143.762a1.514 1.514 0 1 0 3.028 0 1.514 1.514 0 0 0-3.028 0M95.794 143.762a1.514 1.514 0 1 0 3.029 0 1.514 1.514 0 0 0-3.029 0"/>
                <path fill="#E62E24" d="M145.685 91.875c-8.75-1.977-17.446 3.514-19.423 12.264a16.241 16.241 0 0 0-.386 3.74l16.23-.16-5.857 15.131c.734.283 1.486.534 2.276.712 8.75 1.977 17.446-3.513 19.423-12.263 1.978-8.75-3.513-17.446-12.263-19.424"/>
                <path fill="#F5877D" d="M121.979 111.034a16.237 16.237 0 0 0 10.373 14.97l5.856-15.13-16.229.16z"/>
                <path fill="#F0EFEF" d="M156.309 136.692h-29.075a1.096 1.096 0 1 1 0-2.194h29.075a1.097 1.097 0 1 1 0 2.194"/>
                <path fill="#464FB0" d="M552.22 483.315H13.41a1.523 1.523 0 1 1 0-3.048H552.22a1.523 1.523 0 1 1 0 3.048"/>
                <path fill="#231F20" d="M366.638 295.05c-.457 0-32.447-.458-34.58.456-2.132.913-4.265 2.291-4.265 2.291l38.845.004v-2.752z"/>
                <path fill="#231F20" d="M363.59 297.797h60.172s15.204-32.607 14.167-33.845c-1.58-1.884-59.59-1.098-60.933 0-1.43 1.172-13.405 33.845-13.405 33.845"/>
                <path fill="#DEDFE0" d="M405.294 277.835a1.701 1.701 0 0 0-.563-1.1 1.952 1.952 0 0 0-1.364-.493c-.807-.138-1.674.11-2.228.898-.766 1.088-.187 2.4.778 2.992a2.29 2.29 0 0 0 1.36.53c1.093.031 2.028-.866 2.12-1.942a2.192 2.192 0 0 0-.103-.885"/>
                <path fill="#FFF" d="M296.277 246.368h-1.5l-.638 1.266-.64-1.266h-1.497l1.399 2.77v1.304h1.477v-1.304zM298.075 249.148a.744.744 0 0 1 0-1.486c.409 0 .743.334.743.743a.745.745 0 0 1-.743.743m0-2.826a2.084 2.084 0 0 0 0 4.166 2.085 2.085 0 0 0 2.083-2.083c0-1.15-.935-2.083-2.083-2.083M290.204 249.148a.744.744 0 0 1 0-1.486.744.744 0 0 1 0 1.486m0-2.826a2.085 2.085 0 0 0-2.083 2.083c0 1.149.935 2.083 2.083 2.083a2.086 2.086 0 0 0 2.084-2.083c0-1.15-.935-2.083-2.084-2.083"/>
                <path fill="#231F20" d="M480.08 470.436c-1.895-1.346-4.282-1.47-6.57-.887a.683.683 0 0 0-.489.322c-2.076 3.228-4.705 3.914-8.12 4.963-3.054.939-6.066 2.044-9.108 3.023-2.014.647-6.097 3.878-1.943 4.613 2.617.463 5.363-.008 7.983-.237 4.407-.387 7.37-.843 11.77-1.266 2.02-.194 4.773-.323 6.194-1.998 1.534-1.835 1.316-5.763 1.46-8.024.043-.692-.756-.86-1.178-.51"/>
                <path fill="#DEDFE0" d="M552.407 356.6s-64.748 6.665-72.604 17.854c-8.046 11.46-12.616 94.502-9.998 96.169 2.62 1.666 11.695 2.64 12.885.736 1.191-1.905 14.73-72.149 18.3-75.243 3.57-3.095 57.527-13.569 59.947-15.711 2.42-2.143 11.228-18.33 11.228-18.33l-19.758-5.475z"/>
                <path fill="#231F20" d="M517.072 470.436c-1.893-1.346-4.28-1.47-6.569-.887a.679.679 0 0 0-.488.322c-2.077 3.228-4.706 3.914-8.122 4.963-3.053.939-6.065 2.044-9.107 3.023-2.013.647-6.097 3.878-1.943 4.613 2.618.463 5.364-.008 7.984-.237 4.406-.387 7.368-.843 11.77-1.266 2.018-.194 4.772-.323 6.193-1.998 1.534-1.835 1.316-5.763 1.46-8.024.043-.692-.756-.86-1.178-.51"/>
                <path fill="#DEDFE0" d="M589.401 356.6s-64.749 6.665-72.604 17.854c-8.047 11.46-12.617 94.502-9.998 96.169 2.62 1.666 11.694 2.64 12.884.736 1.191-1.905 14.73-72.149 18.3-75.243 3.57-3.095 57.527-13.569 59.947-15.711 2.42-2.143 11.228-18.33 11.228-18.33l-19.757-5.475z"/>
                <path fill="#F5877D" d="M644.509 270.979s6.346 5.893 5.336 16.24c-1.01 10.348-.252 18.017-3.534 18.979-3.281.962-15.4 5.1-17.923 2.273-2.525-2.826-18.053-22.516-11.298-32.11 6.754-9.591 19.88-4.29 20.89-4.67 1.01-.377 6.529-.712 6.529-.712"/>
                <path fill="#FFA873" d="M540.473 311.887c-.462-1.693-29.156-2.37-30.46-3.056-1.992-1.047-5.29-5.312-10.313-3.798-5.024 1.513-5.108 3.47-8.798 4.387-3.692.918-3.031 3.357-.132 5.672 2.898 2.316 12.639 2.92 16.344 1.675.9-.303 28.685 7.744 29.994 7.82 1.308.076 3.457-12.366 3.365-12.7"/>
                <path fill="#E66E61" d="M581.404 217.44s-2.928 5.24-2.61 6.312c.221.75 2.224 1.369 2.224 1.369l.386-7.68z"/>
                <path fill="#E66E61" d="M583.104 208.222c-.13.501-.248 1.007-.363 1.545-.058.253-.116.506-.168.777a15.48 15.48 0 0 0-.164.81c-.033.187-.077.369-.107.556a98.562 98.562 0 0 0-1.654 13.936l-.005.013c-.024.806-.058 1.593-.067 2.36-.099 5.674.47 10.069 1.909 10.803 1.582.793 5.39 1.12 8.019 2.023 0 0 .014.006.033-.002.726.255 1.266.586 1.535 1.052.745 1.294 1.096 3.981.688 6.308l-.006.012c-.255 1.589-.876 3.012-1.96 3.734-2.663 1.779-10.228 5.533-10.228 5.533l16.603 8.396s20.525-5.449 19.908-5.705c-.62-.255-3.967-6.096-4.808-9.325-1.264-4.856 1.32-38.023.092-42.614-1.215-4.584-17.135-11.418-17.135-11.418-.255.618-9.266-.352-12.122 11.206"/>
                <path fill="#E66E61" d="M590.536 241.043c.727.255 1.268.586 1.536 1.052.744 1.294 1.096 3.98.688 6.307.235-.272 4.314-4.73 3.482-6.107-.799-1.348-5.254-1.266-5.706-1.252"/>
                <path fill="#FFF" d="M590.794 252.149s.345-1.888 1.054-2.355c.709-.468 9.97.694 13.442 0 3.47-.695 6.57-1.2 6.997-.513.166.267.22 2.554.22 2.554s-2.042 3.259-4.251 3.323c-2.21.062-5.175.379-9.15 0-3.976-.38-8.312-3.01-8.312-3.01"/>
                <path fill="#F5877D" d="M603.018 253.895c-6.806.37-12.224-1.746-12.224-1.746s-20.277 10.455-27.092 12.349c-6.816 1.893-5.302 16.282-6.06 21.205-.756 4.92-.378 35.4-2.46 45.057-2.083 9.656-9.846 28.212-6.437 30.294 3.408 2.083 10.035 5.533 21.394 6.627 11.358 1.094 20.864 1.136 23.306 0s51.664-92.865 51.478-95.99c-.134-2.238-24.613-18.553-32.416-19.857 0 0-2.547 1.683-9.49 2.06"/>
                <path fill="#231F20" d="M559.08 472.034h9.428v-87.1h-9.428z"/>
                <path fill="#464FB0" d="M665.747 285.89c-.499-7.609-57.468-7.431-68.69-4.682-11.226 2.748-28.736 93.44-38.164 96.133-9.428 2.695-62.406-1.796-66.895 4.489-4.489 6.287-6.734 23.796 9.877 24.245 16.611.449 119.873 3.591 124.811 0 4.94-3.592 39.854-108.084 39.061-120.185"/>
                <path fill="#231F20" d="M563.028 464.84L535.2 480.772c-1.324.757-.786 2.778.74 2.778h53.788c1.501 0 2.058-1.97.78-2.756l-25.962-15.933a1.486 1.486 0 0 0-1.518-.023"/>
                <path fill="#F5877D" d="M583.416 255.795s-20.511 7.323-23.729 11.11c-3.219 3.786-15.108 35.505-21.545 36.972-6.437 1.467-12.914 2.125-14.806 4.35-1.894 2.223-2.083 17.558 2.84 19.452 4.922 1.893 15.228 5.221 24.991 1.136 9.762-4.087 21.204-13.064 20.826-14.389-.379-1.325 9.845-19.69 9.466-23.666-.379-3.976 1.957-34.965 1.957-34.965"/>
                <path fill="#3B241A" d="M583.977 205.492s3.106 5.048 2.822 8.645c-.284 3.597-1.514 5.679.758 5.679 2.271 0 2.082-3.235 3.976-2.375 1.893.862.661 6.884.946 8.718.284 1.834 4.622 2.359 6.136 5.389 1.514 3.029 3.52 6.633 6.454 7.674 2.682.953 6.904.948 6.904.948s2.278-24.33 3.415-26.79c1.135-2.461 4.354-7.763 3.029-11.644-1.327-3.881-5.302-4.64-7.29-6.816-1.987-2.177-9.94-8.71-14.72-6.437-4.78 2.272-10.114 1.799-15.003 4.544-3.915 2.198-3.557 6.4-1.894 9.183 1.357 2.27 4.467 3.282 4.467 3.282"/>
                <path fill="#FFF" d="M576.46 275.577c-2.452-4.215-6.654-8.288-11.365-9.766-.88-.275-1.255 1.104-.38 1.378 11.938 3.744 14.31 17.676 12.31 28.369-1.944 10.411-9.338 18.84-16.553 26.14-.647.654.363 1.665 1.01 1.01 8.253-8.35 16.437-18.118 17.362-30.318.427-5.628.549-11.777-2.383-16.813M643.578 271.257c-.003-.918-1.432-.92-1.428 0 .01 2.521.104 5.001-.688 7.428-.286.876 1.093 1.251 1.377.38.832-2.549.75-5.16.74-7.808"/>
                <path fill="#231F20" d="M316.4 205.758a3.787 3.787 0 0 1-3.782-3.784 3.787 3.787 0 0 1 3.783-3.783 3.787 3.787 0 0 1 3.784 3.783 3.788 3.788 0 0 1-3.784 3.784m-10.704 0a3.787 3.787 0 0 1-3.783-3.784 3.787 3.787 0 0 1 3.783-3.783 3.788 3.788 0 0 1 3.784 3.783 3.788 3.788 0 0 1-3.784 3.784m10.704-8.47c-2.503 0-4.538 1.98-4.662 4.453h-1.38c-.125-2.473-2.158-4.453-4.662-4.453-2.283 0-4.184 1.645-4.596 3.81l-1.796-1.463-.57.7 2.3 1.872c.125 2.474 2.158 4.452 4.662 4.452 2.354 0 4.289-1.75 4.618-4.016h1.469c.328 2.265 2.263 4.016 4.617 4.016a4.69 4.69 0 0 0 4.686-4.685 4.691 4.691 0 0 0-4.686-4.686"/>
                <path fill="#F2F2F2" d="M612.895 72.847c1.656-4.57-3.105-9.95-8.523-9.632-4.9.287-9.698 4.28-14.104 2.365-2.94-1.277-3.84-4.517-4.601-7.333-.76-2.815-2.21-6.042-5.4-6.699-2.338-.481-4.659.649-6.836 1.542-2.177.893-4.925 1.529-6.832.241-1.57-1.06-1.916-3.068-1.54-4.785.374-1.716 1.32-3.291 1.87-4.97 2.119-6.458-2.788-14.033-10.163-15.689-7.373-1.656-15.777 2.929-17.405 9.497-.663 2.675-.323 5.457-.548 8.188-.226 2.731-1.188 5.647-3.707 7.241-3.894 2.464-10.476 1.197-12.875 4.858-1.056 1.612-.808 3.63-.318 5.442.486 1.811 1.185 3.643.923 5.491-.262 1.847-1.885 3.722-3.992 3.669-1.342.074-2.864 1.084-2.945 2.27-.08 1.186.952 2.353 2.274 2.57l29.528.338c18.391 0 36.804-.351 55.195-.164 2.104.022 4.286.03 6.206-.73 1.92-.76 3.508-2.518 3.199-4.356M622.62 121.11l-38.32.283c-.869-1.054-1.102-2.594-.584-3.857.518-1.264 2.388-2.106 3.747-2.247 1.816.628 3.696-.962 4.5-2.71.802-1.746 1.011-3.752 2.026-5.385 1.163-1.873 3.378-3.041 5.58-2.941 2.203.098 4.305 1.46 5.295 3.429.585 1.164.808 2.512 1.571 3.568 1.461 2.018 4.363 2.3 6.831 1.958 2.466-.342 4.978-1.12 7.4-.532 2.42.588 4.543 3.344 3.345 5.528 0 0 2.211 2.906-1.39 2.906"/>
            </g>
        </g>
    </g>
</svg>