<?xml version="1.0" encoding="utf-8"?>
<!-- Generator: Adobe Illustrator 16.0.0, SVG Export Plug-In . SVG Version: 6.00 Build 0)  -->
<!DOCTYPE svg PUBLIC "-//W3C//DTD SVG 1.1//EN" "http://www.w3.org/Graphics/SVG/1.1/DTD/svg11.dtd">
<svg version="1.1" id="Layer_1" xmlns="http://www.w3.org/2000/svg" xmlns:xlink="http://www.w3.org/1999/xlink" x="0px" y="0px"
	 width="1000px" height="1000px" viewBox="0 0 1000 1000" enable-background="new 0 0 1000 1000" xml:space="preserve">
<path fill="#1B322E" d="M988,500.195c0,269.242-218.258,487.5-487.5,487.5c-269.23,0-487.5-218.258-487.5-487.5
	c0-269.242,218.27-487.5,487.5-487.5C769.742,12.695,988,230.954,988,500.195z"/>
<g>
	<g>
		<path fill="#E7E1E6" d="M466.637,228.202v134.571h-19.326V228.815c0-16.296-21.242-15.684-21.242-0.613v134.571H406.42V228.659
			c0-15.985-21.866-15.049-21.866-0.613v134.727H365.54V229.271c0-16.931-22.724-16.341-22.724-0.612v180.586
			c0,25.809,19.471,43.03,41.838,43.03v328.156c0,46.572,63.481,46.572,63.481,0V452.275c22.98,0,40.68-20.819,40.68-40.257
			l0.011-183.204C488.826,212.674,466.637,213.287,466.637,228.202z"/>
		<path fill="#E7E1E6" d="M560.695,270.631v307.427h33.862v202.218c0,44.868,63.627,45.548,63.627,0V270.631
			C658.185,199.074,560.695,199.074,560.695,270.631z"/>
	</g>
</g>
</svg>
