<svg xmlns="http://www.w3.org/2000/svg" width="107" height="105" viewBox="0 0 107 105">
    <g fill="none" fill-rule="evenodd">
        <path fill="#F17C96" d="M52.581 0c29.04 0 52.582 23.457 52.582 52.392 0 28.936-23.542 52.393-52.582 52.393S0 81.328 0 52.392C0 23.457 23.542 0 52.581 0"/>
        <path fill="#DDDDDC" d="M46.69 52.715v5.116s-8.375.7-11.456 6.084l17.996 9.1 17.887-9.1s-4.972-5.815-12.753-6.3v-4.953H46.69v.053z"/>
        <path fill="#FBD47D" d="M70.523 71.238c1.026-.807 1.837-9.746 0-9.369l-2.864-1.938c-2.81-1.454-6.918-2.208-6.918-2.208-.054 7.754-7.511 7.808-7.511 7.808-8.97.107-8.214-7.485-8.214-7.485-16.375 3.662-7.134 11.63-7.134 11.63s-.594 16.262-.648 19.762c-.162 7.647-1.838 12.439-1.838 12.439s3.891 1.292 5.242 1.508c.649.107 2.486.538 4.324.807 1.837.27 3.674.377 4.323.431 1.783.162 3.675.108 3.675.108s3.404-.054 5.62-.323c1.135-.162 3.783-.485 6.214-1.077a225.22 225.22 0 0 0 4.54-1.185"/>
        <path fill="#8AD2F3" d="M17.347 2.53a2.643 2.643 0 0 1 2.648 2.64 2.643 2.643 0 0 1-2.648 2.638 2.643 2.643 0 0 1-2.648-2.639 2.643 2.643 0 0 1 2.648-2.638"/>
        <path fill="#FCD67E" d="M13.78 9.315c2.776 0 5.026 2.243 5.026 5.008 0 2.766-2.25 5.008-5.026 5.008-2.775 0-5.025-2.242-5.025-5.008 0-2.765 2.25-5.008 5.025-5.008"/>
        <path fill="#F9F9F9" d="M13.78 10.07a4.27 4.27 0 0 0-4.269 4.253c0 2.37 1.946 4.254 4.27 4.254 2.323 0 4.268-1.939 4.268-4.254.055-2.315-1.89-4.254-4.269-4.254m0 10.016c-3.188 0-5.782-2.585-5.782-5.762 0-3.177 2.594-5.761 5.782-5.761 3.189 0 5.783 2.584 5.783 5.761s-2.594 5.762-5.783 5.762"/>
        <path fill="#EF5871" d="M91.436 5.923a2.643 2.643 0 0 1 2.648 2.639 2.643 2.643 0 0 1-2.648 2.638 2.643 2.643 0 0 1-2.648-2.638 2.643 2.643 0 0 1 2.648-2.639"/>
        <path fill="#EDECED" d="M53.23 55.677h-.324c-6.755 0-12.322-5.546-12.322-12.277V32.038c0-6.73 5.567-12.276 12.322-12.276h.324c6.755 0 12.321 5.546 12.321 12.276V43.4c0 6.785-5.566 12.277-12.321 12.277"/>
        <path fill="#291143" d="M59.769 38.608c-2.756-1.023-5.783-1.508-8.7-2.1-4.648-.97-10.485-3.231-11.836-6.193-.594-1.292-.702-4.307-1.297-5.653-.054-.108-.054-.162-.108-.27.379.862 1.297 1.723 1.892 2.477.648.754 1.405 1.508 2.107 2.208 1.297 1.292 2.594 2.585 4.107 3.554 1.513.969 3.135 1.884 4.81 2.477 2.108.754 4.323 1.13 6.377 1.992 0 0 2.053.808 3.999 2.046l-1.351-.538z"/>
        <path fill="#452462" d="M65.551 42.43c0-.807-.324-3.93-.81-4.63-.487-.646-1.244-.97-2-1.238-3.729-1.185-7.89-.539-11.673-1.508-5.998-1.508-10.051-6.516-13.996-10.823l-.162-.162c-.054-.054-.054-.107-.108-.215-.055-.162 0-.323.054-.43 1.297-3.34 3.62-6.247 6.755-8.024 8.322-4.685 21.075-1.723 24.156 7.97.756 2.422 1.08 4.9 1.189 7.43.054 1.4-.109 2.854-.217 4.254-.108 1.346-.594 2.908-.378 3.984"/>
        <path fill="#291143" d="M40.584 36.67v-8.616l-3.782-4.2s-.487 7.161 1.89 13.138l1.892-.323z"/>
        <path fill="#EDECED" d="M39.666 45.77h-.054c-1.19.053-2.162-.862-2.216-2.047l-.27-5.761c-.054-1.185.864-2.154 2.053-2.208h.054c1.19-.054 2.162.861 2.216 2.046l.27 5.762c0 1.184-.864 2.153-2.053 2.207M66.578 45.77h.054c1.189.053 2.161-.862 2.215-2.047l.27-5.761c.055-1.185-.864-2.154-2.053-2.208h-.054c-1.189-.054-2.162.861-2.216 2.046l-.27 5.762c0 1.184.865 2.153 2.054 2.207"/>
        <path fill="#291143" d="M41.125 31.823v8.939l-.54-4.577-.109-4.147"/>
        <path fill="#452462" d="M64.903 36.885l-.325 6.353s.379-6.084-3.837-7.161l2.324-.862 1.838 1.67z"/>
        <path fill="#FBD47D" d="M31.29 66.93c1.296-5.007 7.565-7.484 12.104-8.453 1.19-.27-.702 10.285-.702 10.285-1.837-.377-2.162 0-3.297.646-.27.592-1.297 7.215-1.62 9.638-.271 2.1-2.054 3.662-3.513 3.662-2.054 0-3.513-1.616-3.513-3.662 0 0 0-10.07.54-12.115M74.576 66.392c-1.297-5.007-7.566-7.484-12.105-8.454-1.19-.269.702 10.285.702 10.285 1.838-.377 2.162 0 3.297.646.27.593 1.297 7.216 1.62 9.639.271 2.1 2.054 3.661 3.514 3.661 2.053 0 3.512-1.615 3.512-3.661 0 0 0-10.07-.54-12.116"/>
        <path fill="#FFF" d="M93.436 12.87c7.253 0 13.132 5.857 13.132 13.084 0 7.227-5.88 13.084-13.132 13.084-7.253 0-13.132-5.857-13.132-13.084 0-7.227 5.88-13.085 13.132-13.085"/>
        <path fill="#452462" d="M93.598 15.454c-5.782 0-10.538 4.684-10.538 10.5 0 5.761 4.702 10.5 10.538 10.5 5.782 0 10.538-4.685 10.538-10.5-.054-5.816-4.756-10.5-10.538-10.5m0 21.97c-6.377 0-11.51-5.17-11.51-11.47 0-6.3 5.187-11.47 11.51-11.47 6.323 0 11.51 5.17 11.51 11.47 0 6.3-5.187 11.47-11.51 11.47"/>
        <path fill="#F17C96" d="M87.06 18.47c-.109.215-.541.484-.703.645-.595.647-1.135 1.4-1.46 2.208-1.567 3.392-1.513 7.43.757 10.554 1.08 1.454 2.54 2.638 4.27 3.338-2.649-2.961-4.54-6.892-4.432-10.877 0-2.1.594-4.092 1.567-5.869"/>
        <path fill="#FFF" d="M44.962 58.1c-.703.162-1.405.377-2.162.538.27 2.854 1.675 5.762 4.161 7.216 2.216 1.292 5.026 1.454 7.512 1.238 1.729-.161 3.458-.646 4.971-1.615 2.324-1.508 3.567-4.63 3.513-7.377-.54-.108-1.73-.215-2.27-.377-.216 1.4-.27 3.446-1.35 4.685-1.027 1.238-2.162 2.1-3.73 2.53-2.485.647-5.403.754-7.565-.753-.81-.593-1.513-1.347-2-2.208-.324-.539-.54-1.13-.702-1.723 0-.216-.486-2.154-.378-2.154"/>
        <path fill="#DDDDDC" d="M38.963 42.7c-.432 0-.865-.27-.865-.7l-.162-4.308c0-.377.325-.7.811-.7.432 0 .865.27.865.7L39.774 42c0 .377-.379.7-.81.7M67.334 42.7c.433 0 .865-.27.865-.7l.162-4.308c0-.377-.324-.7-.81-.7-.433 0-.865.27-.865.7L66.524 42c-.054.377.324.7.81.7"/>
        <path fill="#F17C96" d="M69.28 102.146s8.43-9.692-.108-22.4c0 0-2.054 17.339.108 22.4"/>
        <path fill="#94B8C4" d="M78.088 93.262h-50.42c-1.62 0-2.972-1.347-2.972-2.962V71.938c0-1.615 1.351-2.961 2.973-2.961h50.42c1.62 0 2.972 1.346 2.972 2.961V90.3a2.958 2.958 0 0 1-2.973 2.962"/>
        <path fill="#B5E3F5" d="M76.575 92.185H29.182c-1.621 0-2.972-1.347-2.972-2.962V72.8c0-1.615 1.35-2.962 2.972-2.962h47.447c1.622 0 2.973 1.347 2.973 2.962v16.423c0 1.615-1.351 2.962-3.027 2.962"/>
        <path fill="#452462" d="M33.991 74.092l1.19 2.423 2.701.377-1.945 1.831.432 2.639-2.378-1.239-2.377 1.239.486-2.639-1.945-1.83 2.648-.378zM43.34 74.092l1.19 2.423 2.647.377-1.945 1.831.486 2.639-2.378-1.239-2.377 1.239.432-2.639-1.946-1.83 2.703-.378zM61.93 74.092l1.19 2.423 2.647.377-1.891 1.831.432 2.639-2.378-1.239-2.377 1.239.432-2.639-1.892-1.83 2.648-.378zM71.225 74.092l1.19 2.423 2.647.377-1.891 1.831.432 2.639-2.378-1.239-2.378 1.239.433-2.639-1.892-1.83 2.648-.378zM74.792 84.97h-43.88c-.163 0-.271-.108-.271-.27 0-.162.108-.27.27-.27h43.88c.163 0 .271.108.271.27 0 .162-.108.27-.27.27M74.846 88.092h-43.88c-.163 0-.271-.107-.271-.269 0-.161.108-.27.27-.27h43.881c.162 0 .27.109.27.27 0 .162-.162.27-.27.27"/>
        <path fill="#EDEDEF" d="M21.346 77.862V78.56l.27 5.708c.054 1.131 1.081 2.046 2.324 1.993l2.81-.108c1.243 0 2.216-.97 2.162-2.1l-.108-5.816c-.055-1.13-1.081-2.046-2.324-1.992l-1.297-.054-1.243-.054h-.432c-1.19-.053-2.108.754-2.162 1.724"/>
        <path fill="#B9BAB9" d="M28.695 77.7s.109.485-.432.915c0 0-.27.216-.865.216l-4.593.107h5.35s.649.054.649.539c0 0 .108-1.077-.109-1.777M28.804 80.5s.108.377-.379.754c0 0-.216.215-.756.215l-3.945.054 4.485.108s.595 0 .595.43c.054 0 .108-.7 0-1.561M28.804 82.977s.108.43-.379.808c0 0-.216.215-.756.215l-3.945.054 4.485.108s.649.107.649.538c0 0 .108-1.13-.054-1.723"/>
        <path fill="#EDEDEF" d="M83.763 77.862V78.56l-.27 5.708c-.055 1.131-1.081 2.046-2.324 1.993l-2.81-.108c-1.243 0-2.216-.97-2.162-2.1l.054-5.816c.054-1.13 1.08-2.046 2.324-1.992l1.297-.054 1.243-.054h.432c1.243-.053 2.162.754 2.216 1.724"/>
        <path fill="#B9BAB9" d="M76.413 77.7s-.108.485.432.915c0 0 .27.216.865.216l4.594.107h-5.35s-.649.054-.649.539c0 0-.108-1.077.108-1.777M76.305 80.5s-.108.377.378.754c0 0 .216.215.757.215l3.945.054-4.486.108s-.594 0-.594.43c0 0-.108-.7 0-1.561M76.305 82.977s-.108.43.378.808c0 0 .216.215.757.215l3.945.054-4.486.108s-.648.107-.648.538c.054 0-.108-1.13.054-1.723"/>
        <path fill="#452462" d="M52.635 74.092l1.19 2.423 2.647.377-1.945 1.831.486 2.639-2.378-1.239-2.377 1.239.432-2.639-1.946-1.83 2.702-.378zM93.436 20.946l1.621 3.285 3.62.538L96.03 27.3l.648 3.608-3.242-1.723-3.243 1.723.595-3.608-2.594-2.53 3.62-.54z"/>
    </g>
</svg>
