<svg xmlns="http://www.w3.org/2000/svg" width="106" height="105" viewBox="0 0 106 105">
    <g fill="none" fill-rule="evenodd">
        <path fill="#8AD2F3" d="M17.36 2.692a2.644 2.644 0 0 1 2.65 2.639 2.644 2.644 0 0 1-2.65 2.638 2.644 2.644 0 0 1-2.65-2.638 2.644 2.644 0 0 1 2.65-2.639"/>
        <path fill="#9474B3" d="M52.676 0c29.092 0 52.675 23.48 52.675 52.446 0 28.966-23.583 52.446-52.675 52.446C23.583 104.892 0 81.412 0 52.446 0 23.481 23.583 0 52.676 0"/>
        <path fill="#FFF" d="M92.426 11.685c7.288 0 13.195 5.882 13.195 13.138s-5.907 13.139-13.195 13.139c-7.289 0-13.196-5.883-13.196-13.139 0-7.256 5.907-13.138 13.196-13.138"/>
        <path stroke="#452462" stroke-width="1.08" d="M92.588 13.838c6.093 0 11.032 4.918 11.032 10.985 0 6.067-4.939 10.985-11.032 10.985-6.094 0-11.033-4.918-11.033-10.985 0-6.067 4.94-10.985 11.033-10.985z"/>
        <path fill="#452462" d="M92.588 24.877l.54-1.346-.54-5.87-.541 5.87zM92.966 24.823l.92-.538 4.002.538-4.002.539z"/>
        <path fill="#452462" d="M92.588 23.8c.567 0 1.027.458 1.027 1.023s-.46 1.023-1.027 1.023a1.026 1.026 0 0 1-1.028-1.023c0-.565.46-1.023 1.028-1.023"/>
        <path fill="#FFF" d="M96.806 87.123h-6.49c-.54 0-.973-.485-1.027-1.077L88.26 70.97h10.6l-1.027 15.077c-.054.592-.487 1.077-1.028 1.077"/>
        <path fill="#3C2666" d="M93.561 70.377c2.927 0 5.3.265 5.3.592 0 .328-2.373.593-5.3.593-2.927 0-5.3-.265-5.3-.593 0-.327 2.373-.592 5.3-.592"/>
        <path fill="#291143" d="M17.847 86.37H9.086a.599.599 0 0 1-.595-.593V85.4c0-.323.27-.592.595-.592H17.9c.325 0 .595.269.595.592v.377c0 .323-.27.592-.65.592"/>
        <path fill="#FFF" d="M8.49 85.185c.109-.323.217-.647.38-.97.27-.484.594-.861 1.027-1.184a4.238 4.238 0 0 1 1.893-.97c.757-.215 1.622-.376 2.38-.215a7.232 7.232 0 0 1 2.379.754c.649.377 1.19.862 1.568 1.562.163.323.325.7.379 1.13 0 .162-.108.27-.216.27H8.76c-.216-.108-.324-.216-.27-.377"/>
        <path fill="#291143" d="M13.466 84.97a.369.369 0 0 1-.378-.378v-1.184c0-.216.162-.377.378-.377h.054c.217 0 .379.161.379.377v1.184c-.054.216-.216.377-.433.377"/>
        <path fill="#3C2666" d="M81.068 92.885H24.12a2.338 2.338 0 0 1-2.325-2.316V90.3c0-1.292 1.082-2.315 2.325-2.315h56.948a2.338 2.338 0 0 1 2.326 2.315v.27c.054 1.292-1.028 2.315-2.326 2.315"/>
        <path fill="#DDDDDC" d="M46.672 44.37v4.684s-7.68.646-10.545 5.6h32.935s-3.731-6.03-11.681-5.762V44.37H46.672z"/>
        <path fill="#291143" d="M38.02 17.877c-.109-.054-.217-.162-.325-.215-1.082 4.253-.757 8.776-.595 13.084 0 .43.216 1.13 0 1.562-.054.161-.27.377-.379.538-1.027 1.508-2.65 3.77-4.597 4.039 0 0 2.867 5.923 11.087 4.253l-1.19-21.215c-.81-.323-1.568-.646-2.38-.97-.378-.16-.756-.322-1.135-.484-.162-.054-.162-.323-.27-.43-.108-.054-.163-.108-.217-.162"/>
        <path fill="#EDECED" d="M53.108 47.115h-1.19c-5.949 0-10.816-4.846-10.816-10.769V25.038c0-5.923 4.867-10.769 10.816-10.769h1.19c5.95 0 10.816 4.846 10.816 10.77v11.307c.055 5.923-4.813 10.77-10.816 10.77"/>
        <path fill="#8AD2F3" d="M40.129 50.885s-3.245 1.992-4.002 3.823l6.76-.323-2.758-3.5zM65.33 50.723s3.246 1.992 4.003 3.823l-6.76-.323 2.758-3.5z"/>
        <path fill="#D34F44" d="M45.483 49.27s.649 4.522 6.814 5.545c0 0 4.975.108 6.652-5.815 0 0 3.786.215 6.382 1.777l-3.408 4.254-19.199-.431-2.595-3.608c0-.107 1.784-1.238 5.354-1.723"/>
        <path fill="#F2F2F2" d="M79.662 91.592H25.581a2.672 2.672 0 0 1-2.704-2.692V56.27a2.672 2.672 0 0 1 2.704-2.693h54.081a2.672 2.672 0 0 1 2.704 2.692V88.9a2.672 2.672 0 0 1-2.704 2.692"/>
        <path fill="#DACFE6" d="M53.324 70.377a3.13 3.13 0 0 1 3.137 3.123 3.13 3.13 0 0 1-3.137 3.123 3.13 3.13 0 0 1-3.136-3.123 3.13 3.13 0 0 1 3.136-3.123"/>
        <path fill="#3C2666" d="M52.676 70.215a3.13 3.13 0 0 1 3.136 3.123 3.13 3.13 0 0 1-3.136 3.124 3.13 3.13 0 0 1-3.137-3.124 3.13 3.13 0 0 1 3.137-3.123"/>
        <path fill="#FCD67E" d="M13.79 9.477c2.778 0 5.03 2.242 5.03 5.008 0 2.765-2.252 5.007-5.03 5.007-2.777 0-5.029-2.242-5.029-5.007 0-2.766 2.252-5.008 5.03-5.008"/>
        <path stroke="#F9F9F9" stroke-width="1.62" d="M13.79 9.477c2.778 0 5.03 2.242 5.03 5.008 0 2.765-2.252 5.007-5.03 5.007-2.777 0-5.029-2.242-5.029-5.007 0-2.766 2.252-5.008 5.03-5.008z"/>
        <path fill="#EF5871" d="M90.965 5.33a2.644 2.644 0 0 1 2.65 2.64 2.644 2.644 0 0 1-2.65 2.638 2.644 2.644 0 0 1-2.65-2.639 2.644 2.644 0 0 1 2.65-2.638"/>
        <path fill="#291143" d="M58.679 31.5c-2.542-.915-5.3-1.346-7.95-1.938-4.273-.862-9.573-2.962-10.87-5.708-.542-1.185-.65-3.985-1.19-5.17-.055-.053-.055-.16-.109-.215.325.808 1.19 1.616 1.785 2.262.595.7 1.298 1.346 1.947 2.046 1.19 1.185 2.38 2.37 3.786 3.285 1.352.915 2.866 1.723 4.38 2.261 1.947.7 3.948 1.023 5.841 1.83 0 0 1.893.755 3.678 1.885l-1.298-.538z"/>
        <path stroke="#FBD47D" stroke-width="1.62" d="M35.64 31.985c-2.542-5.223-2.542-11.685.162-16.854 2.704-5.17 7.95-8.993 13.737-9.854 5.787-.862 11.952 1.238 15.954 5.492 4.921 5.223 6.273 13.246 3.028 19.654"/>
        <path fill="#452462" d="M37.695 18.146c0-.054-.054-.161-.054-.215-.054-.162 0-.27.054-.377 1.19-3.016 3.299-5.762 6.22-7.377C51.54 5.869 63.22 8.615 66.087 17.5c.865 2.746.811 5.708 1.027 8.562.163 2.1.541 4.307 1.569 6.192.92 1.723 2.325 3.015 4.164 3.661.324.108.108.323 0 .539-1.082 1.615-2.866 2.854-4.597 3.661-1.785.862-3.786 1.454-5.787 1.293.974-2.746 1.406-5.654 1.352-8.562 0-.754-.054-1.561-.486-2.154-.433-.592-1.136-.915-1.84-1.13-3.46-1.077-7.192-.485-10.707-1.347-5.463-1.4-9.194-5.977-12.872-9.961-.108-.054-.162-.054-.216-.108"/>
        <path fill="#FBE5BF" d="M37.154 28.538a3.184 3.184 0 0 1 3.19 3.177 3.184 3.184 0 0 1-3.19 3.177 3.184 3.184 0 0 1-3.19-3.177 3.184 3.184 0 0 1 3.19-3.177M66.629 29.023a3.184 3.184 0 0 1 3.19 3.177 3.184 3.184 0 0 1-3.19 3.177 3.184 3.184 0 0 1-3.191-3.177 3.184 3.184 0 0 1 3.19-3.177"/>
        <path fill="#FBD47D" d="M39.21 37.53h-.217c-1.028 0-1.893-.86-1.893-1.884v-8.13c0-1.024.865-1.885 1.893-1.885h.216c1.028 0 1.893.861 1.893 1.884v8.131c0 1.023-.865 1.885-1.893 1.885M64.79 38.5h-.217c-1.027 0-1.892-.862-1.892-1.885v-8.13c0-1.023.865-1.885 1.892-1.885h.217c1.027 0 1.893.862 1.893 1.885v8.13c-.054 1.023-.866 1.885-1.893 1.885"/>
        <path fill="#DACFE6" d="M25.797 57.938v29.293l2.11-26.654c.161-1.777.161-2.854 1.892-3.392l5.138-1.293h-7.03c-1.19 0-2.11.916-2.11 2.046M79.987 88.038V70.215l-1.298 16.208c-.108 1.077-.108 1.723-1.136 2.1l-3.137.808h4.273c.703 0 1.298-.593 1.298-1.293M88.37 72.53s5.191 1.455 10.383-.053l-.108 1.454s-3.894 1.507-10.167 0l-.109-1.4zM86.044 17.338c-.108.216-.54.485-.703.647-.595.646-1.136 1.4-1.46 2.207-1.569 3.446-1.515 7.431.757 10.554 1.081 1.454 2.542 2.639 4.272 3.339-2.65-2.962-4.543-6.893-4.434-10.931 0-2.046.54-4.039 1.568-5.816"/>
    </g>
</svg>
