<svg xmlns="http://www.w3.org/2000/svg" xmlns:xlink="http://www.w3.org/1999/xlink" width="107" height="106" viewBox="0 0 107 106">
    <defs>
        <path id="a" d="M.27.432h7.242v2.759H.27V.432z"/>
    </defs>
    <g fill="none" fill-rule="evenodd">
        <path fill="#FBD47D" d="M52.581.54c29.04 0 52.582 23.56 52.582 52.622S81.62 105.784 52.58 105.784 0 82.224 0 53.162 23.542.541 52.581.541"/>
        <path fill="#DDDDDC" d="M46.69 53.487v5.137s-8.375.704-11.456 6.112l17.996 9.14 17.887-9.14s-4.972-5.841-12.753-6.328v-4.975H46.69v.054z"/>
        <path fill="#E2708E" d="M72.414 71.983c-1.08-.65-.054-9.681-1.945-9.302l-2.864-1.947c-2.81-1.46-6.918-2.218-6.918-2.218-.054 7.788-7.511 7.842-7.511 7.842-8.97.108-8.214-7.517-8.214-7.517-16.375 3.677-7.134 11.681-7.134 11.681s-.594 16.333-.648 19.848c-.162 7.68-1.838 12.493-1.838 12.493s3.891 1.298 5.242 1.515c.649.108 2.486.54 4.324.81 1.837.271 3.674.38 4.323.433 1.783.163 3.675.109 3.675.109s3.404-.054 5.62-.325c1.135-.162 3.783-.487 6.214-1.082 3.189-.81 6.215-1.892 6.215-1.892l.162-.541c2-8.167 1.567-29.312 1.297-29.907"/>
        <path fill="#E2708E" d="M72.522 98.97s-1.837-11.574.216-19.903c0 0 1.351 6.923-.216 19.902"/>
        <path fill="#8AD2F3" d="M17.347 3.083a2.65 2.65 0 1 1-.002 5.298 2.65 2.65 0 0 1 .002-5.298"/>
        <path fill="#FCD67E" d="M13.78 9.897a5.028 5.028 0 0 1 5.026 5.03c0 2.777-2.25 5.03-5.026 5.03a5.028 5.028 0 0 1-5.025-5.03c0-2.778 2.25-5.03 5.025-5.03"/>
        <path fill="#F9F9F9" d="M13.78 10.654c-2.377 0-4.269 1.947-4.269 4.273 0 2.38 1.946 4.272 4.27 4.272 2.323 0 4.268-1.947 4.268-4.272.055-2.326-1.89-4.273-4.269-4.273m0 10.06a5.791 5.791 0 0 1-5.782-5.787A5.791 5.791 0 0 1 13.78 9.14a5.791 5.791 0 0 1 5.783 5.787 5.791 5.791 0 0 1-5.783 5.786"/>
        <path fill="#EF5871" d="M91.436 6.49a2.65 2.65 0 1 1-.002 5.298 2.65 2.65 0 0 1 .002-5.298"/>
        <path fill="#EDECED" d="M53.23 56.461h-.324c-6.755 0-12.322-5.57-12.322-12.33V32.719c0-6.76 5.567-12.33 12.322-12.33h.324c6.755 0 12.321 5.57 12.321 12.33v11.412c0 6.814-5.566 12.33-12.321 12.33"/>
        <path fill="#291143" d="M59.769 39.317c-2.756-1.027-5.783-1.514-8.7-2.109-4.648-.973-10.485-3.245-11.836-6.22-.594-1.297-.702-4.326-1.297-5.678-.054-.108-.054-.162-.108-.27.379.865 1.297 1.73 1.892 2.488.648.757 1.405 1.514 2.107 2.217 1.297 1.298 2.594 2.596 4.107 3.57 1.513.973 3.135 1.892 4.81 2.487 2.108.757 4.323 1.136 6.377 2.001 0 0 2.053.811 3.999 2.055l-1.351-.54z"/>
        <path fill="#452462" d="M65.551 43.157c0-.811-.324-3.948-.81-4.65-.487-.65-1.244-.974-2-1.245-3.729-1.19-7.89-.54-11.673-1.514-5.998-1.514-10.051-6.544-13.996-10.87l-.162-.163c-.054-.054-.054-.108-.108-.216-.055-.162 0-.325.054-.433 1.297-3.353 3.62-6.273 6.755-8.058 8.322-4.705 21.075-1.73 24.156 8.004.756 2.434 1.08 4.922 1.189 7.464.054 1.406-.109 2.866-.217 4.272-.108 1.352-.594 2.92-.378 4.002"/>
        <path fill="#291143" d="M40.584 37.37v-8.653L36.802 24.5s-.487 7.193 1.89 13.196l1.892-.325z"/>
        <path fill="#EDECED" d="M39.666 46.51h-.054c-1.19.054-2.162-.865-2.216-2.055l-.27-5.787c-.054-1.19.864-2.163 2.053-2.217h.054c1.19-.054 2.162.865 2.216 2.055l.27 5.787c0 1.19-.864 2.163-2.053 2.217M66.578 46.51h.054c1.189.054 2.161-.865 2.215-2.055l.27-5.787c.055-1.19-.864-2.163-2.053-2.217h-.054c-1.189-.054-2.162.865-2.216 2.055l-.27 5.787c0 1.19.865 2.163 2.054 2.217"/>
        <path fill="#291143" d="M41.125 32.503v8.978l-.54-4.597-.109-4.165"/>
        <path fill="#452462" d="M64.903 37.587l-.325 6.381s.379-6.11-3.837-7.192l2.324-.866 1.838 1.677z"/>
        <g transform="translate(49.177 50.08)">
            <mask id="b" fill="#fff">
                <use xlink:href="#a"/>
            </mask>
            <path fill="#EF5871" d="M3.89 2.055C2.54 2.055 1.406.92 1.406-.433S2.54-2.92 3.891-2.92c1.35 0 2.486 1.135 2.486 2.487A2.48 2.48 0 0 1 3.89 2.055m0-6.111c-2 0-3.62 1.622-3.62 3.623a3.622 3.622 0 0 0 3.62 3.624c2 0 3.62-1.623 3.62-3.624 0-2-1.567-3.623-3.62-3.623" mask="url(#b)"/>
        </g>
        <g>
            <path fill="#E2708E" d="M31.29 67.764c1.296-5.03 7.565-7.517 12.104-8.49 1.19-.27-.702 10.33-.702 10.33-1.837-.38-2.162 0-3.297.648-.27.595-1.297 7.247-1.62 9.68-.271 2.11-2.054 3.678-3.513 3.678-2.054 0-3.513-1.622-3.513-3.677 0 0 0-10.114.54-12.169M75.062 67.764c-1.027-3.894-4.972-6.327-8.863-7.68 1.838.92 3.675 2.434 4.864 4.652v37.154c0 .216-.162.324-.162.54 0 0 1.567-.594 2.108-.865.54-.216 2.053-.92 2.053-.92s.81-9.41.919-18.603c.108-7.626-.649-13.304-.919-14.278"/>
            <path fill="#3C2666" d="M18.968 47.754s-.162-2.704-.702-3.137c-.54-.486-3.135-.54-3.135-.54s2.432-.325 3.027-.812c.486-.432.648-3.028.648-3.028s.27 2.596.757 3.028c.27.27 3.08.703 3.08.703s-2.432-.054-3.026.595c-.54.541-.649 3.191-.649 3.191M20.86 61.49s-.108-1.892-.487-2.217c-.378-.324-2.161-.378-2.161-.378s1.729-.216 2.107-.54c.324-.271.487-2.11.487-2.11s.162 1.785.54 2.11c.216.161 2.108.486 2.108.486s-1.676-.054-2.108.378c-.432.487-.486 2.272-.486 2.272M32.424 58.03s-.216-3.948-.972-4.597c-.811-.703-4.594-.812-4.594-.812s3.567-.432 4.431-1.135c.703-.595.973-4.38.973-4.38s.378 3.73 1.08 4.38c.433.378 4.486 1.027 4.486 1.027s-3.566-.108-4.431.811c-.865.92-.973 4.706-.973 4.706"/>
            <path fill="#F2F2F2" d="M32.857 60.085c0 .108 0 .324.054.595l.324 3.299c.054.162.054.378.054.54l.162 2.001c0 .109.054.217.054.325.108.378.378.757.703.973.432.325.972.487 1.567.433.972-.162 1.243-.92 1.35-1.839v-.486s.055-1.947 0-2.596c0-.27-.161-1.082-.161-1.082l-.433-2.055c-.162-1.136-1.62-2.272-2.756-2.11-.972.163-.918 1.028-.918 2.002"/>
            <path fill="#F2F2F2" d="M31.452 66.953v.379l.054.649.378 8.76c.054 1.731 1.675 3.138 3.567 3.138l4.269-.109c1.891-.054 3.404-1.46 3.296-3.244l-.054-8.978c-.054-1.73-1.675-3.137-3.567-3.137l-1.999-.108-1.945-.108-.649-.054c-1.783 0-3.188 1.244-3.35 2.812"/>
            <path fill="#FFF" d="M93.436 13.466c7.253 0 13.132 5.884 13.132 13.142 0 7.258-5.88 13.142-13.132 13.142-7.253 0-13.132-5.884-13.132-13.142 0-7.258 5.88-13.142 13.132-13.142"/>
            <path fill="#452462" d="M93.598 16.062c-5.782 0-10.538 4.705-10.538 10.546 0 5.787 4.702 10.546 10.538 10.546 5.782 0 10.538-4.705 10.538-10.546-.054-5.84-4.756-10.546-10.538-10.546m0 22.066c-6.377 0-11.51-5.192-11.51-11.52 0-6.327 5.187-11.52 11.51-11.52 6.323 0 11.51 5.193 11.51 11.52 0 6.328-5.187 11.52-11.51 11.52"/>
            <path fill="#DACFE6" d="M87.06 19.09c-.109.217-.541.488-.703.65-.595.649-1.135 1.406-1.46 2.217-1.567 3.407-1.513 7.463.757 10.6 1.08 1.46 2.54 2.65 4.27 3.353-2.649-2.974-4.54-6.922-4.432-10.924 0-2.11.594-4.11 1.567-5.895"/>
            <path fill="#452462" d="M88.302 27.906l.757-.703a.385.385 0 0 1 .594.054l1.837 2.055a.415.415 0 0 0 .54.054l6.594-5.246c.162-.162.432-.108.594.054l.703.758c.162.162.108.432-.054.595l-7.998 6.435c-.162.162-.433.108-.595-.054l-3.026-3.407c-.108-.216-.108-.433.054-.595"/>
            <path fill="#FFF" d="M44.962 58.895c-.703.162-1.405.378-2.162.54.27 2.867 1.675 5.787 4.161 7.248 2.216 1.298 5.026 1.46 7.512 1.244 1.729-.163 3.458-.65 4.971-1.623 2.324-1.514 3.567-4.65 3.513-7.41-.54-.107-1.73-.215-2.27-.378-.216 1.406-.27 3.462-1.35 4.705-1.027 1.244-2.162 2.11-3.73 2.542-2.485.65-5.403.757-7.565-.757-.81-.595-1.513-1.352-2-2.217-.324-.541-.54-1.136-.702-1.73 0-.217-.486-2.164-.378-2.164"/>
            <path fill="#AAA" d="M42.854 66.79s.108.65-.54 1.19c0 0-.325.325-1.135.325l-5.945.108h6.972s.81.054.864.703c-.108-.054 0-1.46-.216-2.325M42.962 70.63s.108.541-.486.974c0 0-.27.27-.973.27l-5.134.109 5.89.162s.757.054.757.54c0 0 .054-.973-.054-2.054M43.016 74.2s.108.595-.486 1.028c0 0-.27.27-.973.27l-5.134.108 5.837.162s.81.163.81.65c-.054.053.162-1.407-.054-2.218"/>
            <path fill="#DDDDDC" d="M38.963 43.428c-.432 0-.865-.27-.865-.704l-.162-4.326c0-.379.325-.703.811-.703.432 0 .865.27.865.703l.162 4.326c0 .38-.379.704-.81.704M67.334 43.428c.433 0 .865-.27.865-.704l.162-4.326c0-.379-.324-.703-.81-.703-.433 0-.865.27-.865.703l-.162 4.326c-.054.38.324.704.81.704"/>
            <path fill="#FBD47D" d="M69.28 103.134s1.027-15.9-.108-22.498c0 0-2.054 17.414.108 22.498"/>
        </g>
    </g>
</svg>
