<svg xmlns="http://www.w3.org/2000/svg" width="107" height="105" viewBox="0 0 107 105">
    <g fill="none" fill-rule="evenodd">
        <path fill="#B5E3F5" d="M52.581 0c29.04 0 52.582 23.457 52.582 52.392 0 28.936-23.542 52.393-52.582 52.393S0 81.328 0 52.392C0 23.457 23.542 0 52.581 0"/>
        <path fill="#DDDDDC" d="M46.69 52.715v5.116s-8.375.7-11.456 6.084l17.996 9.1 17.887-9.1s-4.972-5.815-12.753-6.3v-4.953H46.69v.053z"/>
        <path fill="#896DA9" d="M70.523 71.238c1.026-.807 1.837-9.746 0-9.369l-2.864-1.938c-2.81-1.454-6.918-2.208-6.918-2.208-.054 7.754-7.511 7.808-7.511 7.808-8.97.107-8.214-7.485-8.214-7.485-16.375 3.662-7.134 11.63-7.134 11.63s-.594 16.262-.648 19.762c-.162 7.647-1.838 12.439-1.838 12.439s3.891 1.292 5.242 1.508c.649.107 2.486.538 4.324.807 1.837.27 3.674.377 4.323.431 1.783.162 3.675.108 3.675.108s3.404-.054 5.62-.323c1.135-.162 3.783-.485 6.214-1.077a225.22 225.22 0 0 0 4.54-1.185"/>
        <path fill="#8AD2F3" d="M17.347 2.53a2.643 2.643 0 0 1 2.648 2.64 2.643 2.643 0 0 1-2.648 2.638 2.643 2.643 0 0 1-2.648-2.639 2.643 2.643 0 0 1 2.648-2.638"/>
        <path fill="#FCD67E" d="M13.78 9.315c2.776 0 5.026 2.243 5.026 5.008 0 2.766-2.25 5.008-5.026 5.008-2.775 0-5.025-2.242-5.025-5.008 0-2.765 2.25-5.008 5.025-5.008"/>
        <path fill="#F9F9F9" d="M13.78 10.07a4.27 4.27 0 0 0-4.269 4.253c0 2.37 1.946 4.254 4.27 4.254 2.323 0 4.268-1.939 4.268-4.254.055-2.315-1.89-4.254-4.269-4.254m0 10.016c-3.188 0-5.782-2.585-5.782-5.762 0-3.177 2.594-5.761 5.782-5.761 3.189 0 5.783 2.584 5.783 5.761s-2.594 5.762-5.783 5.762"/>
        <path fill="#EF5871" d="M91.436 5.923a2.643 2.643 0 0 1 2.648 2.639 2.643 2.643 0 0 1-2.648 2.638 2.643 2.643 0 0 1-2.648-2.638 2.643 2.643 0 0 1 2.648-2.639"/>
        <path fill="#EDECED" d="M53.23 55.677h-.324c-6.755 0-12.322-5.546-12.322-12.277V32.038c0-6.73 5.567-12.276 12.322-12.276h.324c6.755 0 12.321 5.546 12.321 12.276V43.4c0 6.785-5.566 12.277-12.321 12.277"/>
        <path fill="#291143" d="M59.769 38.608c-2.756-1.023-5.783-1.508-8.7-2.1-4.648-.97-10.485-3.231-11.836-6.193-.594-1.292-.702-4.307-1.297-5.653-.054-.108-.054-.162-.108-.27.379.862 1.297 1.723 1.892 2.477.648.754 1.405 1.508 2.107 2.208 1.297 1.292 2.594 2.585 4.107 3.554 1.513.969 3.135 1.884 4.81 2.477 2.108.754 4.323 1.13 6.377 1.992 0 0 2.053.808 3.999 2.046l-1.351-.538z"/>
        <path fill="#452462" d="M65.551 42.43c0-.807-.324-3.93-.81-4.63-.487-.646-1.244-.97-2-1.238-3.729-1.185-7.89-.539-11.673-1.508-5.998-1.508-10.051-6.516-13.996-10.823l-.162-.162c-.054-.054-.054-.107-.108-.215-.055-.162 0-.323.054-.43 1.297-3.34 3.62-6.247 6.755-8.024 8.322-4.685 21.075-1.723 24.156 7.97.756 2.422 1.08 4.9 1.189 7.43.054 1.4-.109 2.854-.217 4.254-.108 1.346-.594 2.908-.378 3.984"/>
        <path fill="#291143" d="M40.584 36.67v-8.616l-3.782-4.2s-.487 7.161 1.89 13.138l1.892-.323z"/>
        <path fill="#EDECED" d="M39.666 45.77h-.054c-1.19.053-2.162-.862-2.216-2.047l-.27-5.761c-.054-1.185.864-2.154 2.053-2.208h.054c1.19-.054 2.162.861 2.216 2.046l.27 5.762c0 1.184-.864 2.153-2.053 2.207M66.578 45.77h.054c1.189.053 2.161-.862 2.215-2.047l.27-5.761c.055-1.185-.864-2.154-2.053-2.208h-.054c-1.189-.054-2.162.861-2.216 2.046l-.27 5.762c0 1.184.865 2.153 2.054 2.207"/>
        <path fill="#291143" d="M41.125 31.823v8.939l-.54-4.577-.109-4.147"/>
        <path fill="#452462" d="M64.903 36.885l-.325 6.353s.379-6.084-3.837-7.161l2.324-.862 1.838 1.67z"/>
        <path fill="#896DA9" d="M31.29 66.93c1.296-5.007 7.565-7.484 12.104-8.453 1.19-.27-.702 10.285-.702 10.285-1.837-.377-2.162 0-3.297.646-.27.592-1.297 7.215-1.62 9.638-.271 2.1-2.054 3.662-3.513 3.662-2.054 0-3.513-1.616-3.513-3.662 0 0 0-10.07.54-12.115M74.576 66.392c-1.297-5.007-7.566-7.484-12.105-8.454-1.19-.269.702 10.285.702 10.285 1.838-.377 2.162 0 3.297.646.27.593 1.297 7.216 1.62 9.639.271 2.1 2.054 3.661 3.514 3.661 2.053 0 3.512-1.615 3.512-3.661 0 0 0-10.07-.54-12.116"/>
        <path fill="#FFF" d="M93.436 12.87c7.253 0 13.132 5.857 13.132 13.084 0 7.227-5.88 13.084-13.132 13.084-7.253 0-13.132-5.857-13.132-13.084 0-7.227 5.88-13.085 13.132-13.085"/>
        <path fill="#452462" d="M93.598 15.454c-5.782 0-10.538 4.684-10.538 10.5 0 5.761 4.702 10.5 10.538 10.5 5.782 0 10.538-4.685 10.538-10.5-.054-5.816-4.756-10.5-10.538-10.5m0 21.97c-6.377 0-11.51-5.17-11.51-11.47 0-6.3 5.187-11.47 11.51-11.47 6.323 0 11.51 5.17 11.51 11.47 0 6.3-5.187 11.47-11.51 11.47"/>
        <path fill="#B5E3F5" d="M87.06 18.47c-.109.215-.541.484-.703.645-.595.647-1.135 1.4-1.46 2.208-1.567 3.392-1.513 7.43.757 10.554 1.08 1.454 2.54 2.638 4.27 3.338-2.649-2.961-4.54-6.892-4.432-10.877 0-2.1.594-4.092 1.567-5.869"/>
        <path fill="#FFF" d="M44.962 58.1c-.703.162-1.405.377-2.162.538.27 2.854 1.675 5.762 4.161 7.216 2.216 1.292 5.026 1.454 7.512 1.238 1.729-.161 3.458-.646 4.971-1.615 2.324-1.508 3.567-4.63 3.513-7.377-.54-.108-1.73-.215-2.27-.377-.216 1.4-.27 3.446-1.35 4.685-1.027 1.238-2.162 2.1-3.73 2.53-2.485.647-5.403.754-7.565-.753-.81-.593-1.513-1.347-2-2.208-.324-.539-.54-1.13-.702-1.723 0-.216-.486-2.154-.378-2.154"/>
        <path fill="#DDDDDC" d="M38.963 42.7c-.432 0-.865-.27-.865-.7l-.162-4.308c0-.377.325-.7.811-.7.432 0 .865.27.865.7L39.774 42c0 .377-.379.7-.81.7M67.334 42.7c.433 0 .865-.27.865-.7l.162-4.308c0-.377-.324-.7-.81-.7-.433 0-.865.27-.865.7L66.524 42c-.054.377.324.7.81.7"/>
        <path fill="#B5E3F5" d="M69.28 102.146s8.43-9.692-.108-22.4c0 0-.54 18.039.108 22.4"/>
        <path fill="#CEAE75" d="M46.259 91.43H14.483c-1.621 0-2.972-1.345-2.972-2.96V67.361c0-1.616 1.35-2.962 2.972-2.962h31.776c1.62 0 2.972 1.346 2.972 2.962v21.107c0 1.616-1.351 2.962-2.972 2.962"/>
        <path fill="#FCDEA3" d="M45.232 90.192H15.456c-1.622 0-2.973-1.346-2.973-2.961V68.277c0-1.615 1.351-2.962 2.973-2.962h29.776c1.621 0 2.972 1.347 2.972 2.962V87.23c.054 1.615-1.297 2.961-2.972 2.961"/>
        <path fill="#EDEDEF" d="M8.106 76.03v.7l.27 5.708c.054 1.131 1.081 2.047 2.324 1.993l2.81-.108c1.243 0 2.216-.97 2.162-2.1l-.054-5.815c-.054-1.131-1.081-2.046-2.324-1.993l-1.297-.053-1.243-.054h-.432c-1.19-.108-2.108.7-2.216 1.723"/>
        <path fill="#B9BAB9" d="M15.51 75.87s.108.484-.433.915c0 0-.27.215-.864.215l-4.594.108h5.35s.649.054.649.538c0-.054.054-1.077-.108-1.777M15.618 78.615s.108.377-.379.754c0 0-.216.216-.756.216l-3.945.053 4.485.108s.595 0 .595.43c0 .055.054-.7 0-1.56M15.618 81.146s.108.43-.379.808c0 0-.216.215-.756.215l-3.945.054 4.485.108s.649.107.649.538c-.054-.054.108-1.13-.054-1.723"/>
        <path fill="#785C99" d="M56.418 78.83s9.241.162 12.97-2.96l1.297 1.4-13.943 4.576-.324-3.015z"/>
        <path fill="#896DA9" d="M75.278 77.538s.81 6.247-7.079 6.947l-11.294-.054-.54-5.116s11.996.916 12.753-3.446"/>
        <path fill="#EDEDEF" d="M56.418 78.238v.593l-.27 5.061c-.054 1.023-1.08 1.831-2.324 1.777l-2.81-.054c-1.243 0-1.837-.915-1.783-1.884l-.324-5.17c.054-1.023 1.08-1.83 2.323-1.776l1.297-.054 1.243-.054h.433c1.242-.054 2.161.646 2.215 1.561"/>
        <path fill="#B9BAB9" d="M49.069 78.077s-.108.43.432.808c0 0 .27.215.865.215l4.593.054h-5.35s-.648.054-.648.484c0 0-.108-.969.108-1.561M49.123 80.662s-.108.376.378.7c0 0 .216.161.757.161l3.945.054-4.486.108s-.594 0-.594.377c0 0-.108-.647 0-1.4M49.339 82.923s-.054.377.432.7c0 0 .216.162.757.108l3.945-.162-4.486.377s-.594.162-.594.485c0 .054-.216-.97-.054-1.508"/>
        <path fill="#EDEDEF" d="M56.31 78.508l.595 5.223s.216 1.077-2.27 1.83l1.675-7.053zM45.556 78.938h8.592c.649 0 1.19-.538 1.19-1.184 0-.646-.541-1.185-1.19-1.185h-8.592c-.648 0-1.189.539-1.189 1.185 0 .7.54 1.184 1.19 1.184"/>
        <path fill="#452462" d="M97.38 30.908l3.081-3.339c.054-.107 0-.215-.108-.215l-6.052.161c-.109 0-.163.108-.109.216l2.973 3.177a.165.165 0 0 0 .216 0"/>
        <path fill="#452462" d="M98.462 27.677h-2.54c-.108 0-.216-.108-.216-.215v-5.277c0-.108.108-.216.216-.216h2.54c.108 0 .216.108.216.216v5.277c0 .107-.108.215-.216.215"/>
        <path fill="#FFF" d="M92.355 20.946c2.597 0 4.702 2.097 4.702 4.685 0 2.587-2.105 4.684-4.702 4.684s-4.701-2.097-4.701-4.684c0-2.588 2.104-4.685 4.701-4.685"/>
        <path stroke="#452462" stroke-width=".5" d="M92.355 21.646a3.992 3.992 0 0 1 3.999 3.985c0 2.2-1.79 3.984-3.999 3.984a3.992 3.992 0 0 1-3.999-3.984c0-2.2 1.79-3.985 4-3.985z"/>
        <path fill="#452462" d="M90.626 23.262h3.458l-.324.484h-.919c.108.162.217.323.27.539h.973l-.324.484h-.648c0 .162-.108.377-.27.593-.217.269-.379.376-.595.484a2.126 2.126 0 0 1-.973.216s.703.861 2.108 2.476h-.919a1334.66 1334.66 0 0 0-2.053-2.369v-.484h.432c.756 0 1.243-.27 1.405-.754.054-.054.054-.162.054-.216h-2.054l.325-.484h1.62c-.107-.216-.27-.323-.54-.431-.216-.054-.378-.108-.54-.108h-.919c.325-.269.433-.43.433-.43"/>
        <path fill="#8AD2F3" d="M29.398 71.615c3.134 0 5.674 2.7 5.674 6.031 0 3.331-2.54 6.03-5.674 6.03-3.134 0-5.674-2.699-5.674-6.03 0-3.33 2.54-6.03 5.674-6.03"/>
        <path fill="#EE5971" d="M17.617 74.738c-.108 0-.162-.107-.162-.161v-1.454c0-.108.108-.161.162-.161.108 0 .162.107.162.161v1.454c0 .054-.054.161-.162.161"/>
        <path fill="#EE5971" d="M18.374 73.985H16.86c-.108 0-.163-.108-.163-.162 0-.108.109-.161.163-.161h1.513c.108 0 .162.107.162.161.054.108-.054.162-.162.162"/>
        <path fill="#452462" d="M27.83 74.362h4.324c-.27.376-.378.592-.432.646h-1.135c.162.161.27.43.324.7h1.243c-.27.43-.432.592-.432.592h-.81c0 .215-.109.485-.325.754-.27.323-.486.484-.703.592-.432.216-.81.323-1.189.323 0 .054.865 1.077 2.594 3.07h-1.134c-1.676-1.939-2.54-2.962-2.54-2.962v-.592c.162 0 .324.053.54.053.919 0 1.513-.323 1.783-.915.054-.108.054-.161.054-.27h-2.54c.27-.43.433-.591.433-.591h2.053c-.108-.216-.324-.431-.702-.539-.216-.054-.432-.108-.649-.108h-1.134c.216-.538.378-.753.378-.753"/>
        <path fill="#EE5971" d="M29.776 71.615c-3.35 0-6.106 2.693-6.106 6.085a6.09 6.09 0 0 0 6.106 6.085c3.405 0 6.107-2.693 6.107-6.085-.054-3.338-2.756-6.085-6.107-6.085m0 12.654c-3.62 0-6.593-2.961-6.593-6.569s2.973-6.57 6.593-6.57c3.621 0 6.593 2.962 6.593 6.57s-2.972 6.57-6.593 6.57"/>
        <path fill="#452462" d="M29.776 69.677c-4.431 0-7.998 3.608-7.998 7.97 0 4.415 3.621 7.968 7.998 7.968 4.378 0 7.998-3.607 7.998-7.969 0-4.361-3.566-7.97-7.998-7.97m0 16.8c-4.863 0-8.808-3.93-8.808-8.776s3.945-8.777 8.808-8.777c4.864 0 8.809 3.93 8.809 8.777 0 4.846-3.945 8.777-8.809 8.777"/>
        <path fill="#EE5971" d="M40.476 79.477c.418 0 .757.338.757.754a.755.755 0 0 1-.757.754.755.755 0 0 1-.756-.754c0-.416.339-.754.756-.754"/>
        <path fill="#452462" d="M21.238 71.077c-.054 0-.108-.054-.108-.108V67.9c0-.054.054-.108.108-.108s.108.054.108.108v3.07c0 .053-.054.107-.108.107"/>
        <path fill="#452462" d="M21.184 71.185h-.054l-1.081-.862c-.054-.054-.054-.108 0-.161.054-.054.108-.054.162 0l1.027.807 1.027-.807c.054-.054.108-.054.162 0 .054.053.054.107 0 .161l-1.081.862h-.162zM43.178 84.808c-.054 0-.108-.054-.108-.108v-2.154c0-.054.054-.108.108-.108s.108.054.108.108v2.1c0 .108-.054.162-.108.162"/>
        <path fill="#452462" d="M43.124 84.915h-.054l-.756-.592c-.054-.054-.054-.108 0-.161.054-.054.108-.054.162 0l.702.538.703-.538c.054-.054.108-.054.162 0 .054.053.054.107 0 .161l-.757.592h-.162z"/>
    </g>
</svg>
